NotoAmalgamated-DisplaySemiBoldItalic.ufo
<glyph name="exclam" format="2">
  <advance width="275"/>
  <unicode hex="0021"/>
  <outline>
    <contour>
      <point x="67" y="237" type="line"/>
      <point x="192" y="237" type="line"/>
      <point x="313" y="714" type="line"/>
      <point x="148" y="714" type="line"/>
    </contour>
    <contour>
      <point x="85" y="-13" type="curve" smooth="yes"/>
      <point x="143" y="-13"/>
      <point x="182" y="27"/>
      <point x="182" y="83" type="curve" smooth="yes"/>
      <point x="182" y="127"/>
      <point x="154" y="153"/>
      <point x="110" y="153" type="curve" smooth="yes"/>
      <point x="39" y="153"/>
      <point x="11" y="103"/>
      <point x="11" y="55" type="curve" smooth="yes"/>
      <point x="11" y="21"/>
      <point x="30" y="-13"/>
    </contour>
  </outline>
</glyph>
<glyph name="quotedbl" format="2">
  <advance width="430"/>
  <unicode hex="0022"/>
  <outline>
    <contour>
      <point x="287" y="456" type="line"/>
      <point x="383" y="456" type="line"/>
      <point x="457" y="714" type="line"/>
      <point x="323" y="714" type="line"/>
    </contour>
    <contour>
      <point x="96" y="456" type="line"/>
      <point x="192" y="456" type="line"/>
      <point x="266" y="714" type="line"/>
      <point x="132" y="714" type="line"/>
    </contour>
  </outline>
</glyph>
<glyph name="numbersign" format="2">
  <advance width="614"/>
  <unicode hex="0023"/>
  <outline>
    <contour>
      <point x="73" y="0" type="line"/>
      <point x="178" y="0" type="line"/>
      <point x="233" y="199" type="line"/>
      <point x="321" y="199" type="line"/>
      <point x="265" y="0" type="line"/>
      <point x="371" y="0" type="line"/>
      <point x="427" y="199" type="line"/>
      <point x="564" y="199" type="line"/>
      <point x="574" y="300" type="line"/>
      <point x="456" y="300" type="line"/>
      <point x="488" y="413" type="line"/>
      <point x="616" y="413" type="line"/>
      <point x="626" y="515" type="line"/>
      <point x="517" y="515" type="line"/>
      <point x="572" y="714" type="line"/>
      <point x="468" y="714" type="line"/>
      <point x="412" y="515" type="line"/>
      <point x="323" y="515" type="line"/>
      <point x="378" y="714" type="line"/>
      <point x="273" y="714" type="line"/>
      <point x="217" y="515" type="line"/>
      <point x="83" y="515" type="line"/>
      <point x="73" y="413" type="line"/>
      <point x="189" y="413" type="line"/>
      <point x="156" y="300" type="line"/>
      <point x="29" y="300" type="line"/>
      <point x="19" y="199" type="line"/>
      <point x="128" y="199" type="line"/>
    </contour>
    <contour>
      <point x="261" y="300" type="line"/>
      <point x="294" y="413" type="line"/>
      <point x="383" y="413" type="line"/>
      <point x="350" y="300" type="line"/>
    </contour>
  </outline>
</glyph>
<glyph name="dollar" format="2">
  <advance width="529"/>
  <unicode hex="0024"/>
  <outline>
    <contour>
      <point x="189" y="40" type="curve"/>
      <point x="168" y="-58" type="line"/>
      <point x="235" y="-58" type="line"/>
      <point x="255" y="39" type="line"/>
      <point x="413" y="51"/>
      <point x="486" y="134"/>
      <point x="486" y="244" type="curve" smooth="yes"/>
      <point x="486" y="344"/>
      <point x="426" y="384"/>
      <point x="337" y="419" type="curve"/>
      <point x="367" y="565" type="line"/>
      <point x="405" y="562"/>
      <point x="447" y="547"/>
      <point x="482" y="529" type="curve"/>
      <point x="532" y="642" type="line"/>
      <point x="487" y="667"/>
      <point x="445" y="679"/>
      <point x="394" y="686" type="curve"/>
      <point x="410" y="760" type="line"/>
      <point x="343" y="760" type="line"/>
      <point x="326" y="686" type="line"/>
      <point x="193" y="677"/>
      <point x="100" y="609"/>
      <point x="100" y="488" type="curve" smooth="yes"/>
      <point x="100" y="393"/>
      <point x="164" y="345"/>
      <point x="248" y="312" type="curve"/>
      <point x="214" y="155" type="line"/>
      <point x="144" y="158"/>
      <point x="77" y="184"/>
      <point x="27" y="212" type="curve"/>
      <point x="26" y="82" type="line"/>
      <point x="69" y="57"/>
      <point x="122" y="44"/>
    </contour>
    <contour>
      <point x="281" y="157" type="curve"/>
      <point x="308" y="285" type="line"/>
      <point x="329" y="276"/>
      <point x="345" y="257"/>
      <point x="345" y="228" type="curve" smooth="yes"/>
      <point x="345" y="187"/>
      <point x="320" y="163"/>
    </contour>
    <contour>
      <point x="300" y="565" type="curve"/>
      <point x="276" y="445" type="line"/>
      <point x="252" y="456"/>
      <point x="242" y="475"/>
      <point x="242" y="498" type="curve" smooth="yes"/>
      <point x="242" y="543"/>
      <point x="267" y="561"/>
    </contour>
  </outline>
</glyph>
<glyph name="percent" format="2">
  <advance width="827"/>
  <unicode hex="0025"/>
  <outline>
    <contour>
      <point x="113" y="0" type="line"/>
      <point x="229" y="0" type="line"/>
      <point x="739" y="714" type="line"/>
      <point x="625" y="714" type="line"/>
    </contour>
    <contour>
      <point x="191" y="276" type="curve" smooth="yes"/>
      <point x="342" y="276"/>
      <point x="392" y="458"/>
      <point x="392" y="572" type="curve" smooth="yes"/>
      <point x="392" y="672"/>
      <point x="344" y="724"/>
      <point x="258" y="724" type="curve" smooth="yes"/>
      <point x="109" y="724"/>
      <point x="58" y="547"/>
      <point x="58" y="429" type="curve" smooth="yes"/>
      <point x="58" y="332"/>
      <point x="104" y="276"/>
    </contour>
    <contour>
      <point x="201" y="377" type="curve" smooth="yes"/>
      <point x="184" y="377"/>
      <point x="176" y="393"/>
      <point x="176" y="423" type="curve" smooth="yes"/>
      <point x="176" y="509"/>
      <point x="208" y="622"/>
      <point x="249" y="622" type="curve" smooth="yes"/>
      <point x="266" y="622"/>
      <point x="275" y="607"/>
      <point x="275" y="577" type="curve" smooth="yes"/>
      <point x="275" y="498"/>
      <point x="245" y="377"/>
    </contour>
    <contour>
      <point x="599" y="-9" type="curve" smooth="yes"/>
      <point x="747" y="-9"/>
      <point x="798" y="171"/>
      <point x="798" y="291" type="curve" smooth="yes"/>
      <point x="798" y="387"/>
      <point x="750" y="439"/>
      <point x="663" y="439" type="curve" smooth="yes"/>
      <point x="518" y="439"/>
      <point x="464" y="275"/>
      <point x="464" y="136" type="curve" smooth="yes"/>
      <point x="464" y="44"/>
      <point x="510" y="-9"/>
    </contour>
    <contour>
      <point x="606" y="92" type="curve" smooth="yes"/>
      <point x="589" y="92"/>
      <point x="581" y="108"/>
      <point x="581" y="138" type="curve" smooth="yes"/>
      <point x="581" y="224"/>
      <point x="614" y="337"/>
      <point x="655" y="337" type="curve" smooth="yes"/>
      <point x="672" y="337"/>
      <point x="680" y="322"/>
      <point x="680" y="292" type="curve" smooth="yes"/>
      <point x="680" y="213"/>
      <point x="651" y="92"/>
    </contour>
  </outline>
</glyph>
<glyph name="ampersand" format="2">
  <advance width="677"/>
  <unicode hex="0026"/>
  <outline>
    <contour>
      <point x="234" y="-10" type="curve" smooth="yes"/>
      <point x="311" y="-10"/>
      <point x="369" y="13"/>
      <point x="417" y="48" type="curve"/>
      <point x="447" y="0" type="line"/>
      <point x="618" y="0" type="line"/>
      <point x="526" y="140" type="line"/>
      <point x="587" y="207"/>
      <point x="635" y="288"/>
      <point x="672" y="383" type="curve"/>
      <point x="526" y="383" type="line"/>
      <point x="507" y="330"/>
      <point x="486" y="286"/>
      <point x="452" y="239" type="curve"/>
      <point x="369" y="367" type="line"/>
      <point x="475" y="412"/>
      <point x="539" y="477"/>
      <point x="539" y="576" type="curve" smooth="yes"/>
      <point x="539" y="656"/>
      <point x="484" y="725"/>
      <point x="367" y="725" type="curve" smooth="yes"/>
      <point x="247" y="725"/>
      <point x="160" y="654"/>
      <point x="160" y="518" type="curve" smooth="yes"/>
      <point x="160" y="478"/>
      <point x="171" y="435"/>
      <point x="194" y="394" type="curve"/>
      <point x="82" y="335"/>
      <point x="28" y="274"/>
      <point x="28" y="173" type="curve" smooth="yes"/>
      <point x="28" y="55"/>
      <point x="103" y="-10"/>
    </contour>
    <contour>
      <point x="256" y="115" type="curve" smooth="yes"/>
      <point x="207" y="115"/>
      <point x="181" y="150"/>
      <point x="181" y="188" type="curve" smooth="yes"/>
      <point x="181" y="246"/>
      <point x="207" y="277"/>
      <point x="252" y="304" type="curve"/>
      <point x="352" y="144" type="line"/>
      <point x="326" y="128"/>
      <point x="294" y="115"/>
    </contour>
    <contour>
      <point x="314" y="449" type="curve"/>
      <point x="302" y="467"/>
      <point x="295" y="499"/>
      <point x="295" y="528" type="curve" smooth="yes"/>
      <point x="295" y="573"/>
      <point x="317" y="611"/>
      <point x="358" y="611" type="curve" smooth="yes"/>
      <point x="382" y="611"/>
      <point x="402" y="595"/>
      <point x="402" y="559" type="curve" smooth="yes"/>
      <point x="402" y="507"/>
      <point x="362" y="476"/>
    </contour>
  </outline>
</glyph>
<glyph name="parenleft" format="2">
  <advance width="328"/>
  <unicode hex="0028"/>
  <outline>
    <contour>
      <point x="101" y="-158" type="curve"/>
      <point x="215" y="-158" type="line"/>
      <point x="182" y="-70"/>
      <point x="164" y="30"/>
      <point x="164" y="132" type="curve" smooth="yes"/>
      <point x="164" y="370"/>
      <point x="266" y="559"/>
      <point x="402" y="714" type="curve"/>
      <point x="276" y="714" type="line"/>
      <point x="121" y="549"/>
      <point x="35" y="368"/>
      <point x="35" y="137" type="curve" smooth="yes"/>
      <point x="35" y="30"/>
      <point x="56" y="-72"/>
    </contour>
  </outline>
</glyph>
<glyph name="parenright" format="2">
  <advance width="328"/>
  <unicode hex="0029"/>
  <outline>
    <contour>
      <point x="-69" y="-158" type="curve"/>
      <point x="58" y="-158" type="line"/>
      <point x="212" y="7"/>
      <point x="295" y="188"/>
      <point x="298" y="419" type="curve"/>
      <point x="299" y="526"/>
      <point x="277" y="628"/>
      <point x="231" y="714" type="curve"/>
      <point x="118" y="714" type="line"/>
      <point x="151" y="626"/>
      <point x="170" y="526"/>
      <point x="169" y="424" type="curve"/>
      <point x="166" y="186"/>
      <point x="68" y="-3"/>
    </contour>
  </outline>
</glyph>
<glyph name="asterisk" format="2">
  <advance width="517"/>
  <unicode hex="002A"/>
  <outline>
    <contour>
      <point x="333" y="282" type="line"/>
      <point x="451" y="318" type="line"/>
      <point x="380" y="482" type="line"/>
      <point x="534" y="461" type="line"/>
      <point x="544" y="585" type="line"/>
      <point x="366" y="571" type="line"/>
      <point x="420" y="743" type="line"/>
      <point x="298" y="768" type="line"/>
      <point x="281" y="588" type="line"/>
      <point x="126" y="673" type="line"/>
      <point x="84" y="557" type="line"/>
      <point x="232" y="512" type="line"/>
      <point x="105" y="391" type="line"/>
      <point x="204" y="311" type="line"/>
      <point x="294" y="447" type="line"/>
    </contour>
  </outline>
</glyph>
<glyph name="plus" format="2">
  <advance width="536"/>
  <unicode hex="002B"/>
  <outline>
    <contour>
      <point x="343" y="406" type="line"/>
      <point x="343" y="596" type="line"/>
      <point x="231" y="596" type="line"/>
      <point x="231" y="406" type="line"/>
      <point x="57" y="406" type="line"/>
      <point x="57" y="299" type="line"/>
      <point x="231" y="299" type="line"/>
      <point x="231" y="111" type="line"/>
      <point x="343" y="111" type="line"/>
      <point x="343" y="299" type="line"/>
      <point x="518" y="299" type="line"/>
      <point x="518" y="406" type="line"/>
    </contour>
  </outline>
</glyph>
<glyph name="comma" format="2">
  <advance width="275"/>
  <unicode hex="002C"/>
  <outline>
    <contour>
      <point x="-49" y="-129" type="curve"/>
      <point x="61" y="-129" type="line"/>
      <point x="106" y="-56"/>
      <point x="154" y="34"/>
      <point x="185" y="105" type="curve"/>
      <point x="181" y="116" type="line"/>
      <point x="43" y="116" type="line"/>
      <point x="19" y="47"/>
      <point x="-15" y="-50"/>
    </contour>
  </outline>
</glyph>
<glyph name="hyphen" format="2">
  <advance width="308"/>
  <unicode hex="002D"/>
  <outline>
    <contour>
      <point x="20" y="207" type="line"/>
      <point x="266" y="207" type="line"/>
      <point x="293" y="329" type="line"/>
      <point x="47" y="329" type="line"/>
    </contour>
  </outline>
</glyph>
<glyph name="period" format="2">
  <advance width="275"/>
  <unicode hex="002E"/>
  <outline>
    <contour>
      <point x="83" y="-13" type="curve"/>
      <point x="142" y="-13"/>
      <point x="180" y="27"/>
      <point x="181" y="82" type="curve"/>
      <point x="181" y="127"/>
      <point x="153" y="153"/>
      <point x="109" y="153" type="curve"/>
      <point x="42" y="153"/>
      <point x="11" y="104"/>
      <point x="10" y="56" type="curve"/>
      <point x="10" y="21"/>
      <point x="31" y="-13"/>
    </contour>
  </outline>
</glyph>
<glyph name="slash" format="2">
  <advance width="408"/>
  <unicode hex="002F"/>
  <outline>
    <contour>
      <point x="-42" y="0" type="line"/>
      <point x="99" y="0" type="line"/>
      <point x="484" y="714" type="line"/>
      <point x="343" y="714" type="line"/>
    </contour>
  </outline>
</glyph>
<glyph name="zero" format="2">
  <advance width="529"/>
  <unicode hex="0030"/>
  <outline>
    <contour>
      <point x="220" y="-10" type="curve" smooth="yes"/>
      <point x="433" y="-10"/>
      <point x="525" y="246"/>
      <point x="525" y="499" type="curve" smooth="yes"/>
      <point x="525" y="656"/>
      <point x="459" y="725"/>
      <point x="340" y="725" type="curve" smooth="yes"/>
      <point x="137" y="725"/>
      <point x="33" y="484"/>
      <point x="33" y="223" type="curve" smooth="yes"/>
      <point x="33" y="74"/>
      <point x="94" y="-10"/>
    </contour>
    <contour>
      <point x="234" y="112" type="curve" smooth="yes"/>
      <point x="195" y="112"/>
      <point x="181" y="149"/>
      <point x="181" y="220" type="curve" smooth="yes"/>
      <point x="181" y="344"/>
      <point x="235" y="603"/>
      <point x="324" y="603" type="curve" smooth="yes"/>
      <point x="360" y="603"/>
      <point x="377" y="572"/>
      <point x="377" y="503" type="curve" smooth="yes"/>
      <point x="377" y="346"/>
      <point x="320" y="112"/>
    </contour>
  </outline>
</glyph>
<glyph name="one" format="2">
  <advance width="529"/>
  <unicode hex="0031"/>
  <outline>
    <contour>
      <point x="265" y="405" type="curve" smooth="yes"/>
      <point x="178" y="0" type="line"/>
      <point x="326" y="0" type="line"/>
      <point x="477" y="714" type="line"/>
      <point x="356" y="714" type="line"/>
      <point x="87" y="544" type="line"/>
      <point x="150" y="439" type="line"/>
      <point x="241" y="499" type="line" smooth="yes"/>
      <point x="260" y="512"/>
      <point x="289" y="535"/>
      <point x="301" y="545" type="curve"/>
      <point x="289" y="502"/>
      <point x="272" y="439"/>
    </contour>
  </outline>
</glyph>
<glyph name="three" format="2">
  <advance width="529"/>
  <unicode hex="0033"/>
  <outline>
    <contour>
      <point x="186" y="-10" type="curve" smooth="yes"/>
      <point x="380" y="-10"/>
      <point x="476" y="103"/>
      <point x="476" y="217" type="curve" smooth="yes"/>
      <point x="476" y="307"/>
      <point x="424" y="351"/>
      <point x="354" y="365" type="curve"/>
      <point x="354" y="369" type="line"/>
      <point x="459" y="389"/>
      <point x="520" y="463"/>
      <point x="520" y="563" type="curve" smooth="yes"/>
      <point x="520" y="655"/>
      <point x="454" y="724"/>
      <point x="330" y="724" type="curve" smooth="yes"/>
      <point x="230" y="724"/>
      <point x="168" y="695"/>
      <point x="105" y="653" type="curve"/>
      <point x="166" y="553" type="line"/>
      <point x="200" y="575"/>
      <point x="245" y="602"/>
      <point x="298" y="602" type="curve" smooth="yes"/>
      <point x="350" y="602"/>
      <point x="371" y="572"/>
      <point x="371" y="534" type="curve" smooth="yes"/>
      <point x="371" y="448"/>
      <point x="290" y="419"/>
      <point x="207" y="419" type="curve" smooth="yes"/>
      <point x="173" y="419" type="line"/>
      <point x="150" y="311" type="line"/>
      <point x="209" y="311" type="line" smooth="yes"/>
      <point x="303" y="311"/>
      <point x="330" y="276"/>
      <point x="330" y="228" type="curve" smooth="yes"/>
      <point x="330" y="148"/>
      <point x="269" y="110"/>
      <point x="181" y="110" type="curve" smooth="yes"/>
      <point x="124" y="110"/>
      <point x="60" y="127"/>
      <point x="8" y="159" type="curve"/>
      <point x="7" y="29" type="line"/>
      <point x="51" y="3"/>
      <point x="116" y="-10"/>
    </contour>
  </outline>
</glyph>
<glyph name="four" format="2">
  <advance width="529"/>
  <unicode hex="0034"/>
  <outline>
    <contour>
      <point x="230" y="0" type="line"/>
      <point x="374" y="0" type="line"/>
      <point x="404" y="148" type="line"/>
      <point x="481" y="148" type="line"/>
      <point x="507" y="265" type="line"/>
      <point x="430" y="265" type="line"/>
      <point x="524" y="714" type="line"/>
      <point x="376" y="714" type="line"/>
      <point x="14" y="262" type="line"/>
      <point x="-9" y="148" type="line"/>
      <point x="261" y="148" type="line"/>
    </contour>
    <contour>
      <point x="152" y="265" type="line"/>
      <point x="289" y="447" type="line" smooth="yes"/>
      <point x="310" y="475"/>
      <point x="333" y="509"/>
      <point x="347" y="535" type="curve"/>
      <point x="352" y="535" type="line"/>
      <point x="344" y="511"/>
      <point x="325" y="437"/>
      <point x="314" y="386" type="curve" smooth="yes"/>
      <point x="287" y="265" type="line"/>
    </contour>
  </outline>
</glyph>
<glyph name="five" format="2">
  <advance width="529"/>
  <unicode hex="0035"/>
  <outline>
    <contour>
      <point x="191" y="-10" type="curve" smooth="yes"/>
      <point x="386" y="-10"/>
      <point x="479" y="114"/>
      <point x="479" y="263" type="curve" smooth="yes"/>
      <point x="479" y="391"/>
      <point x="398" y="450"/>
      <point x="296" y="450" type="curve" smooth="yes"/>
      <point x="276" y="450"/>
      <point x="257" y="446"/>
      <point x="242" y="443" type="curve"/>
      <point x="282" y="586" type="line"/>
      <point x="507" y="586" type="line"/>
      <point x="535" y="714" type="line"/>
      <point x="180" y="714" type="line"/>
      <point x="79" y="356" type="line"/>
      <point x="129" y="318" type="line"/>
      <point x="152" y="325"/>
      <point x="190" y="334"/>
      <point x="227" y="334" type="curve" smooth="yes"/>
      <point x="301" y="334"/>
      <point x="326" y="293"/>
      <point x="326" y="243" type="curve" smooth="yes"/>
      <point x="326" y="181"/>
      <point x="286" y="113"/>
      <point x="177" y="113" type="curve" smooth="yes"/>
      <point x="118" y="113"/>
      <point x="59" y="134"/>
      <point x="13" y="161" type="curve"/>
      <point x="12" y="30" type="line"/>
      <point x="50" y="7"/>
      <point x="119" y="-10"/>
    </contour>
  </outline>
</glyph>
<glyph name="six" format="2">
  <advance width="529"/>
  <unicode hex="0036"/>
  <outline>
    <contour>
      <point x="241" y="-10" type="curve" smooth="yes"/>
      <point x="432" y="-10"/>
      <point x="496" y="174"/>
      <point x="496" y="286" type="curve" smooth="yes"/>
      <point x="496" y="403"/>
      <point x="438" y="464"/>
      <point x="346" y="464" type="curve" smooth="yes"/>
      <point x="277" y="464"/>
      <point x="232" y="429"/>
      <point x="201" y="383" type="curve"/>
      <point x="198" y="383" type="line"/>
      <point x="237" y="529"/>
      <point x="303" y="604"/>
      <point x="433" y="604" type="curve" smooth="yes"/>
      <point x="462" y="604"/>
      <point x="497" y="599"/>
      <point x="520" y="592" type="curve"/>
      <point x="546" y="712" type="line"/>
      <point x="520" y="719"/>
      <point x="480" y="725"/>
      <point x="442" y="725" type="curve" smooth="yes"/>
      <point x="336" y="725"/>
      <point x="261" y="696"/>
      <point x="198" y="637" type="curve" smooth="yes"/>
      <point x="100" y="545"/>
      <point x="42" y="380"/>
      <point x="42" y="224" type="curve" smooth="yes"/>
      <point x="42" y="74"/>
      <point x="108" y="-10"/>
    </contour>
    <contour>
      <point x="250" y="111" type="curve" smooth="yes"/>
      <point x="209" y="111"/>
      <point x="186" y="150"/>
      <point x="186" y="204" type="curve" smooth="yes"/>
      <point x="186" y="220"/>
      <point x="188" y="235"/>
      <point x="192" y="251" type="curve" smooth="yes"/>
      <point x="202" y="296"/>
      <point x="241" y="348"/>
      <point x="290" y="348" type="curve" smooth="yes"/>
      <point x="329" y="348"/>
      <point x="349" y="319"/>
      <point x="349" y="273" type="curve" smooth="yes"/>
      <point x="349" y="195"/>
      <point x="316" y="111"/>
    </contour>
  </outline>
</glyph>
<glyph name="seven" format="2">
  <advance width="529"/>
  <unicode hex="0037"/>
  <outline>
    <contour>
      <point x="32" y="0" type="line"/>
      <point x="201" y="0" type="line"/>
      <point x="556" y="619" type="line"/>
      <point x="577" y="714" type="line"/>
      <point x="120" y="714" type="line"/>
      <point x="92" y="587" type="line"/>
      <point x="378" y="587" type="line"/>
    </contour>
  </outline>
</glyph>
<glyph name="eight" format="2">
  <advance width="529"/>
  <unicode hex="0038"/>
  <outline>
    <contour>
      <point x="240" y="-10" type="curve" smooth="yes"/>
      <point x="404" y="-10"/>
      <point x="484" y="92"/>
      <point x="484" y="198" type="curve" smooth="yes"/>
      <point x="484" y="288"/>
      <point x="437" y="340"/>
      <point x="387" y="374" type="curve"/>
      <point x="465" y="402"/>
      <point x="531" y="460"/>
      <point x="531" y="564" type="curve" smooth="yes"/>
      <point x="531" y="651"/>
      <point x="468" y="725"/>
      <point x="343" y="725" type="curve" smooth="yes"/>
      <point x="194" y="725"/>
      <point x="115" y="634"/>
      <point x="115" y="523" type="curve" smooth="yes"/>
      <point x="115" y="457"/>
      <point x="152" y="410"/>
      <point x="189" y="379" type="curve"/>
      <point x="85" y="339"/>
      <point x="27" y="272"/>
      <point x="27" y="169" type="curve" smooth="yes"/>
      <point x="27" y="67"/>
      <point x="99" y="-10"/>
    </contour>
    <contour>
      <point x="251" y="101" type="curve" smooth="yes"/>
      <point x="203" y="101"/>
      <point x="171" y="135"/>
      <point x="171" y="186" type="curve" smooth="yes"/>
      <point x="171" y="245"/>
      <point x="206" y="285"/>
      <point x="273" y="314" type="curve"/>
      <point x="314" y="285"/>
      <point x="342" y="251"/>
      <point x="342" y="196" type="curve" smooth="yes"/>
      <point x="342" y="148"/>
      <point x="311" y="101"/>
    </contour>
    <contour>
      <point x="309" y="436" type="curve"/>
      <point x="277" y="456"/>
      <point x="256" y="486"/>
      <point x="256" y="533" type="curve" smooth="yes"/>
      <point x="256" y="579"/>
      <point x="284" y="615"/>
      <point x="330" y="615" type="curve" smooth="yes"/>
      <point x="365" y="615"/>
      <point x="390" y="588"/>
      <point x="390" y="545" type="curve" smooth="yes"/>
      <point x="390" y="492"/>
      <point x="360" y="458"/>
    </contour>
  </outline>
</glyph>
<glyph name="nine" format="2">
  <advance width="529"/>
  <unicode hex="0039"/>
  <outline>
    <contour>
      <point x="150" y="-10" type="curve" smooth="yes"/>
      <point x="254" y="-10"/>
      <point x="327" y="25"/>
      <point x="382" y="83" type="curve" smooth="yes"/>
      <point x="473" y="179"/>
      <point x="516" y="353"/>
      <point x="516" y="494" type="curve" smooth="yes"/>
      <point x="516" y="656"/>
      <point x="443" y="725"/>
      <point x="321" y="725" type="curve" smooth="yes"/>
      <point x="121" y="725"/>
      <point x="61" y="544"/>
      <point x="61" y="438" type="curve" smooth="yes"/>
      <point x="61" y="331"/>
      <point x="111" y="251"/>
      <point x="216" y="251" type="curve" smooth="yes"/>
      <point x="282" y="251"/>
      <point x="324" y="282"/>
      <point x="354" y="328" type="curve"/>
      <point x="358" y="328" type="line"/>
      <point x="331" y="220"/>
      <point x="280" y="111"/>
      <point x="146" y="111" type="curve" smooth="yes"/>
      <point x="106" y="111"/>
      <point x="68" y="122"/>
      <point x="43" y="131" type="curve"/>
      <point x="42" y="6" type="line"/>
      <point x="68" y="-2"/>
      <point x="109" y="-10"/>
    </contour>
    <contour>
      <point x="270" y="367" type="curve" smooth="yes"/>
      <point x="231" y="367"/>
      <point x="208" y="396"/>
      <point x="208" y="451" type="curve" smooth="yes"/>
      <point x="208" y="521"/>
      <point x="243" y="604"/>
      <point x="308" y="604" type="curve" smooth="yes"/>
      <point x="351" y="604"/>
      <point x="371" y="567"/>
      <point x="371" y="513" type="curve" smooth="yes"/>
      <point x="371" y="497"/>
      <point x="369" y="479"/>
      <point x="365" y="463" type="curve" smooth="yes"/>
      <point x="354" y="418"/>
      <point x="320" y="367"/>
    </contour>
  </outline>
</glyph>
<glyph name="colon" format="2">
  <advance width="275"/>
  <unicode hex="003A"/>
  <outline>
    <contour>
      <point x="173" y="390" type="curve" smooth="yes"/>
      <point x="232" y="390"/>
      <point x="271" y="430"/>
      <point x="271" y="486" type="curve" smooth="yes"/>
      <point x="271" y="530"/>
      <point x="242" y="556"/>
      <point x="199" y="556" type="curve" smooth="yes"/>
      <point x="131" y="556"/>
      <point x="100" y="506"/>
      <point x="100" y="458" type="curve" smooth="yes"/>
      <point x="100" y="424"/>
      <point x="121" y="390"/>
    </contour>
    <contour>
      <point x="83" y="-13" type="curve" smooth="yes"/>
      <point x="142" y="-13"/>
      <point x="181" y="27"/>
      <point x="181" y="83" type="curve" smooth="yes"/>
      <point x="181" y="127"/>
      <point x="152" y="153"/>
      <point x="109" y="153" type="curve" smooth="yes"/>
      <point x="41" y="153"/>
      <point x="10" y="103"/>
      <point x="10" y="55" type="curve" smooth="yes"/>
      <point x="10" y="21"/>
      <point x="31" y="-13"/>
    </contour>
  </outline>
</glyph>
<glyph name="semicolon" format="2">
  <advance width="275"/>
  <unicode hex="003B"/>
  <outline>
    <contour>
      <point x="-50" y="-129" type="curve"/>
      <point x="60" y="-129" type="line"/>
      <point x="105" y="-56"/>
      <point x="153" y="34"/>
      <point x="184" y="105" type="curve"/>
      <point x="180" y="116" type="line"/>
      <point x="42" y="116" type="line"/>
      <point x="18" y="47"/>
      <point x="-16" y="-50"/>
    </contour>
    <contour>
      <point x="173" y="390" type="curve" smooth="yes"/>
      <point x="232" y="390"/>
      <point x="271" y="430"/>
      <point x="271" y="486" type="curve" smooth="yes"/>
      <point x="271" y="530"/>
      <point x="242" y="556"/>
      <point x="199" y="556" type="curve" smooth="yes"/>
      <point x="131" y="556"/>
      <point x="100" y="506"/>
      <point x="100" y="458" type="curve" smooth="yes"/>
      <point x="100" y="424"/>
      <point x="121" y="390"/>
    </contour>
  </outline>
</glyph>
<glyph name="equal" format="2">
  <advance width="535"/>
  <unicode hex="003D"/>
  <outline>
    <contour>
      <point x="57" y="394" type="line"/>
      <point x="518" y="394" type="line"/>
      <point x="518" y="500" type="line"/>
      <point x="57" y="500" type="line"/>
    </contour>
    <contour>
      <point x="57" y="204" type="line"/>
      <point x="518" y="204" type="line"/>
      <point x="518" y="311" type="line"/>
      <point x="57" y="311" type="line"/>
    </contour>
  </outline>
</glyph>
<glyph name="greater" format="2">
  <advance width="535"/>
  <unicode hex="003E"/>
  <outline>
    <contour>
      <point x="57" y="216" type="line"/>
      <point x="57" y="99" type="line"/>
      <point x="517" y="313" type="line"/>
      <point x="517" y="383" type="line"/>
      <point x="57" y="625" type="line"/>
      <point x="57" y="508" type="line"/>
      <point x="356" y="353" type="line"/>
    </contour>
  </outline>
</glyph>
<glyph name="question" format="2">
  <advance width="441"/>
  <unicode hex="003F"/>
  <outline>
    <contour>
      <point x="122" y="237" type="curve"/>
      <point x="247" y="237" type="line"/>
      <point x="261" y="294"/>
      <point x="278" y="318"/>
      <point x="337" y="358" type="curve" smooth="yes"/>
      <point x="416" y="412"/>
      <point x="477" y="463"/>
      <point x="477" y="564" type="curve" smooth="yes"/>
      <point x="477" y="664"/>
      <point x="409" y="724"/>
      <point x="296" y="724" type="curve" smooth="yes"/>
      <point x="216" y="724"/>
      <point x="146" y="696"/>
      <point x="88" y="663" type="curve"/>
      <point x="132" y="555" type="line"/>
      <point x="188" y="583"/>
      <point x="233" y="604"/>
      <point x="275" y="604" type="curve" smooth="yes"/>
      <point x="316" y="604"/>
      <point x="333" y="582"/>
      <point x="333" y="547" type="curve" smooth="yes"/>
      <point x="333" y="504"/>
      <point x="309" y="481"/>
      <point x="246" y="437" type="curve" smooth="yes"/>
      <point x="168" y="383"/>
      <point x="140" y="329"/>
    </contour>
    <contour>
      <point x="152" y="-13" type="curve" smooth="yes"/>
      <point x="210" y="-13"/>
      <point x="249" y="27"/>
      <point x="249" y="83" type="curve" smooth="yes"/>
      <point x="249" y="127"/>
      <point x="221" y="153"/>
      <point x="177" y="153" type="curve" smooth="yes"/>
      <point x="106" y="153"/>
      <point x="78" y="103"/>
      <point x="78" y="55" type="curve" smooth="yes"/>
      <point x="78" y="21"/>
      <point x="97" y="-13"/>
    </contour>
  </outline>
</glyph>
<glyph name="at" format="2">
  <advance width="820"/>
  <unicode hex="0040"/>
  <outline>
    <contour>
      <point x="368" y="-91" type="curve" smooth="yes"/>
      <point x="452" y="-91"/>
      <point x="527" y="-72"/>
      <point x="585" y="-47" type="curve"/>
      <point x="586" y="44" type="line"/>
      <point x="518" y="17"/>
      <point x="453" y="2"/>
      <point x="378" y="2" type="curve" smooth="yes"/>
      <point x="223" y="2"/>
      <point x="151" y="116"/>
      <point x="151" y="252" type="curve" smooth="yes"/>
      <point x="151" y="477"/>
      <point x="293" y="622"/>
      <point x="480" y="622" type="curve" smooth="yes"/>
      <point x="634" y="622"/>
      <point x="705" y="541"/>
      <point x="705" y="411" type="curve" smooth="yes"/>
      <point x="705" y="307"/>
      <point x="653" y="189"/>
      <point x="588" y="189" type="curve" smooth="yes"/>
      <point x="573" y="189"/>
      <point x="563" y="198"/>
      <point x="563" y="221" type="curve" smooth="yes"/>
      <point x="563" y="242"/>
      <point x="569" y="262"/>
      <point x="577" y="292" type="curve" smooth="yes"/>
      <point x="628" y="496" type="line"/>
      <point x="587" y="511"/>
      <point x="540" y="523"/>
      <point x="475" y="523" type="curve" smooth="yes"/>
      <point x="319" y="523"/>
      <point x="227" y="384"/>
      <point x="227" y="248" type="curve" smooth="yes"/>
      <point x="227" y="143"/>
      <point x="280" y="100"/>
      <point x="350" y="100" type="curve" smooth="yes"/>
      <point x="409" y="100"/>
      <point x="443" y="128"/>
      <point x="470" y="172" type="curve"/>
      <point x="475" y="172" type="line"/>
      <point x="487" y="122"/>
      <point x="526" y="100"/>
      <point x="575" y="100" type="curve" smooth="yes"/>
      <point x="721" y="100"/>
      <point x="811" y="254"/>
      <point x="811" y="414" type="curve" smooth="yes"/>
      <point x="811" y="603"/>
      <point x="691" y="714"/>
      <point x="493" y="714" type="curve" smooth="yes"/>
      <point x="256" y="714"/>
      <point x="44" y="545"/>
      <point x="44" y="240" type="curve" smooth="yes"/>
      <point x="44" y="54"/>
      <point x="158" y="-91"/>
    </contour>
    <contour>
      <point x="379" y="189" type="curve" smooth="yes"/>
      <point x="356" y="189"/>
      <point x="337" y="206"/>
      <point x="337" y="255" type="curve" smooth="yes"/>
      <point x="337" y="326"/>
      <point x="379" y="434"/>
      <point x="467" y="434" type="curve" smooth="yes"/>
      <point x="482" y="434"/>
      <point x="492" y="432"/>
      <point x="503" y="429" type="curve"/>
      <point x="476" y="321" type="line" smooth="yes"/>
      <point x="456" y="242"/>
      <point x="426" y="189"/>
    </contour>
  </outline>
</glyph>
<glyph name="A" format="2">
  <advance width="605"/>
  <unicode hex="0041"/>
  <anchor x="247" y="0" name="bottom"/>
  <anchor x="399" y="714" name="top"/>
  <anchor x="683" y="714" name="topright"/>
  <outline>
    <contour>
      <point x="-57" y="0" type="line"/>
      <point x="99" y="0" type="line"/>
      <point x="176" y="170" type="line"/>
      <point x="393" y="170" type="line"/>
      <point x="402" y="0" type="line"/>
      <point x="547" y="0" type="line"/>
      <point x="488" y="714" type="line"/>
      <point x="304" y="714" type="line"/>
    </contour>
    <contour>
      <point x="238" y="297" type="line"/>
      <point x="329" y="490" type="line" smooth="yes"/>
      <point x="348" y="531"/>
      <point x="362" y="565"/>
      <point x="374" y="601" type="curve"/>
      <point x="376" y="601" type="line"/>
      <point x="375" y="559"/>
      <point x="377" y="520"/>
      <point x="379" y="481" type="curve" smooth="yes"/>
      <point x="388" y="297" type="line"/>
    </contour>
  </outline>
</glyph>
<glyph name="C" format="2">
  <advance width="585"/>
  <unicode hex="0043"/>
  <anchor x="305" y="0" name="bottom"/>
  <anchor x="420" y="714" name="top"/>
  <anchor x="662" y="714" name="topright"/>
  <outline>
    <contour>
      <point x="304" y="-10" type="curve" smooth="yes"/>
      <point x="385" y="-10"/>
      <point x="450" y="12"/>
      <point x="494" y="28" type="curve"/>
      <point x="495" y="155" type="line"/>
      <point x="440" y="133"/>
      <point x="387" y="117"/>
      <point x="335" y="117" type="curve" smooth="yes"/>
      <point x="249" y="117"/>
      <point x="210" y="169"/>
      <point x="210" y="274" type="curve" smooth="yes"/>
      <point x="210" y="415"/>
      <point x="277" y="599"/>
      <point x="424" y="599" type="curve" smooth="yes"/>
      <point x="480" y="599"/>
      <point x="524" y="578"/>
      <point x="570" y="552" type="curve"/>
      <point x="629" y="674" type="line"/>
      <point x="568" y="708"/>
      <point x="512" y="725"/>
      <point x="425" y="725" type="curve" smooth="yes"/>
      <point x="170" y="725"/>
      <point x="58" y="476"/>
      <point x="58" y="265" type="curve" smooth="yes"/>
      <point x="58" y="97"/>
      <point x="141" y="-10"/>
    </contour>
  </outline>
</glyph>
<glyph name="D" format="2">
  <advance width="645"/>
  <unicode hex="0044"/>
  <anchor x="269" y="0" name="bottom"/>
  <anchor x="365" y="357" name="center"/>
  <anchor x="415" y="714" name="top"/>
  <anchor x="722" y="714" name="topright"/>
  <outline>
    <contour>
      <point x="23" y="0" type="line"/>
      <point x="234" y="0" type="line" smooth="yes"/>
      <point x="479" y="0"/>
      <point x="620" y="176"/>
      <point x="620" y="448" type="curve" smooth="yes"/>
      <point x="620" y="620"/>
      <point x="524" y="714"/>
      <point x="359" y="714" type="curve" smooth="yes"/>
      <point x="174" y="714" type="line"/>
    </contour>
    <contour>
      <point x="246" y="125" type="curve" smooth="yes"/>
      <point x="199" y="125" type="line"/>
      <point x="296" y="590" type="line"/>
      <point x="345" y="590" type="line" smooth="yes"/>
      <point x="421" y="590"/>
      <point x="467" y="542"/>
      <point x="467" y="439" type="curve" smooth="yes"/>
      <point x="467" y="274"/>
      <point x="394" y="125"/>
    </contour>
  </outline>
</glyph>
<glyph name="E" format="2">
  <advance width="519"/>
  <unicode hex="0045"/>
  <anchor x="227" y="0" name="bottom"/>
  <anchor x="363" y="714" name="top"/>
  <anchor x="596" y="714" name="topright"/>
  <outline>
    <contour>
      <point x="23" y="0" type="line"/>
      <point x="406" y="0" type="line"/>
      <point x="434" y="125" type="line"/>
      <point x="199" y="125" type="line"/>
      <point x="236" y="309" type="line"/>
      <point x="455" y="309" type="line"/>
      <point x="483" y="433" type="line"/>
      <point x="265" y="433" type="line"/>
      <point x="296" y="590" type="line"/>
      <point x="530" y="590" type="line"/>
      <point x="558" y="714" type="line"/>
      <point x="174" y="714" type="line"/>
    </contour>
  </outline>
</glyph>
<glyph name="F" format="2">
  <advance width="511"/>
  <unicode hex="0046"/>
  <anchor x="201" y="0" name="bottom"/>
  <anchor x="373" y="714" name="top"/>
  <anchor x="589" y="714" name="topright"/>
  <outline>
    <contour>
      <point x="23" y="0" type="line"/>
      <point x="172" y="0" type="line"/>
      <point x="230" y="282" type="line"/>
      <point x="447" y="282" type="line"/>
      <point x="475" y="406" type="line"/>
      <point x="259" y="406" type="line"/>
      <point x="296" y="590" type="line"/>
      <point x="528" y="590" type="line"/>
      <point x="555" y="714" type="line"/>
      <point x="174" y="714" type="line"/>
    </contour>
  </outline>
</glyph>
<glyph name="G" format="2">
  <advance width="657"/>
  <unicode hex="0047"/>
  <anchor x="319" y="0" name="bottom"/>
  <anchor x="449" y="714" name="top"/>
  <anchor x="734" y="714" name="topright"/>
  <outline>
    <contour>
      <point x="307" y="-10" type="curve" smooth="yes"/>
      <point x="410" y="-10"/>
      <point x="475" y="7"/>
      <point x="537" y="29" type="curve"/>
      <point x="617" y="401" type="line"/>
      <point x="352" y="401" type="line"/>
      <point x="324" y="275" type="line"/>
      <point x="444" y="275" type="line"/>
      <point x="413" y="129" type="line"/>
      <point x="387" y="122"/>
      <point x="368" y="117"/>
      <point x="337" y="117" type="curve" smooth="yes"/>
      <point x="248" y="117"/>
      <point x="210" y="173"/>
      <point x="210" y="276" type="curve" smooth="yes"/>
      <point x="210" y="427"/>
      <point x="286" y="597"/>
      <point x="453" y="597" type="curve" smooth="yes"/>
      <point x="507" y="597"/>
      <point x="551" y="580"/>
      <point x="596" y="554" type="curve"/>
      <point x="653" y="677" type="line"/>
      <point x="593" y="710"/>
      <point x="532" y="725"/>
      <point x="460" y="725" type="curve" smooth="yes"/>
      <point x="195" y="725"/>
      <point x="58" y="508"/>
      <point x="58" y="264" type="curve" smooth="yes"/>
      <point x="58" y="86"/>
      <point x="151" y="-10"/>
    </contour>
  </outline>
</glyph>
<glyph name="H" format="2">
  <advance width="668"/>
  <unicode hex="0048"/>
  <anchor x="276" y="0" name="bottom"/>
  <anchor x="352" y="357" name="center"/>
  <anchor x="428" y="714" name="top"/>
  <anchor x="742" y="714" name="topright"/>
  <outline>
    <contour>
      <point x="23" y="0" type="line"/>
      <point x="172" y="0" type="line"/>
      <point x="236" y="308" type="line"/>
      <point x="444" y="308" type="line"/>
      <point x="380" y="0" type="line"/>
      <point x="529" y="0" type="line"/>
      <point x="680" y="714" type="line"/>
      <point x="531" y="714" type="line"/>
      <point x="473" y="434" type="line"/>
      <point x="265" y="434" type="line"/>
      <point x="323" y="714" type="line"/>
      <point x="174" y="714" type="line"/>
    </contour>
  </outline>
</glyph>
<glyph name="I" format="2">
  <advance width="371"/>
  <unicode hex="0049"/>
  <anchor x="131" y="0" name="bottom"/>
  <anchor x="276" y="714" name="top"/>
  <anchor x="449" y="714" name="topright"/>
  <outline>
    <contour>
      <point x="-29" y="0" type="line"/>
      <point x="280" y="0" type="line"/>
      <point x="299" y="86" type="line"/>
      <point x="226" y="126" type="line"/>
      <point x="323" y="588" type="line"/>
      <point x="412" y="628" type="line"/>
      <point x="431" y="714" type="line"/>
      <point x="122" y="714" type="line"/>
      <point x="103" y="628" type="line"/>
      <point x="174" y="588" type="line"/>
      <point x="77" y="126" type="line"/>
      <point x="-10" y="86" type="line"/>
    </contour>
  </outline>
</glyph>
<glyph name="K" format="2">
  <advance width="592"/>
  <unicode hex="004B"/>
  <anchor x="262" y="0" name="bottom"/>
  <anchor x="421" y="714" name="top"/>
  <anchor x="670" y="714" name="topright"/>
  <outline>
    <contour>
      <point x="23" y="0" type="line"/>
      <point x="172" y="0" type="line"/>
      <point x="225" y="255" type="line"/>
      <point x="281" y="289" type="line"/>
      <point x="372" y="0" type="line"/>
      <point x="538" y="0" type="line"/>
      <point x="409" y="372" type="line"/>
      <point x="684" y="714" type="line"/>
      <point x="508" y="714" type="line"/>
      <point x="322" y="471" type="line"/>
      <point x="250" y="369" type="line"/>
      <point x="323" y="714" type="line"/>
      <point x="174" y="714" type="line"/>
    </contour>
  </outline>
</glyph>
<glyph name="L" format="2">
  <advance width="494"/>
  <unicode hex="004C"/>
  <anchor x="205" y="0" name="bottom"/>
  <anchor x="165" y="357" name="center"/>
  <anchor x="244" y="714" name="top"/>
  <anchor x="408" y="714" name="topright"/>
  <outline>
    <contour>
      <point x="23" y="0" type="line"/>
      <point x="406" y="0" type="line"/>
      <point x="434" y="125" type="line"/>
      <point x="199" y="125" type="line"/>
      <point x="323" y="714" type="line"/>
      <point x="174" y="714" type="line"/>
    </contour>
  </outline>
</glyph>
<glyph name="M" format="2">
  <advance width="842"/>
  <unicode hex="004D"/>
  <anchor x="354" y="0" name="bottom"/>
  <anchor x="502" y="714" name="top"/>
  <anchor x="919" y="714" name="topright"/>
  <outline>
    <contour>
      <point x="23" y="0" type="line"/>
      <point x="157" y="0" type="line"/>
      <point x="224" y="332" type="line" smooth="yes"/>
      <point x="241" y="414"/>
      <point x="256" y="510"/>
      <point x="263" y="553" type="curve"/>
      <point x="267" y="553" type="line"/>
      <point x="284" y="0" type="line"/>
      <point x="422" y="0" type="line"/>
      <point x="685" y="553" type="line"/>
      <point x="688" y="553" type="line"/>
      <point x="674" y="494"/>
      <point x="651" y="406"/>
      <point x="636" y="338" type="curve" smooth="yes"/>
      <point x="565" y="0" type="line"/>
      <point x="702" y="0" type="line"/>
      <point x="854" y="714" type="line"/>
      <point x="648" y="714" type="line"/>
      <point x="394" y="180" type="line"/>
      <point x="390" y="180" type="line"/>
      <point x="371" y="714" type="line"/>
      <point x="174" y="714" type="line"/>
    </contour>
  </outline>
</glyph>
<glyph name="N" format="2">
  <advance width="724"/>
  <unicode hex="004E"/>
  <anchor x="299" y="0" name="bottom"/>
  <anchor x="454" y="714" name="top"/>
  <anchor x="801" y="714" name="topright"/>
  <outline>
    <contour>
      <point x="23" y="0" type="line"/>
      <point x="156" y="0" type="line"/>
      <point x="226" y="336" type="line" smooth="yes"/>
      <point x="240" y="404"/>
      <point x="256" y="525"/>
      <point x="258" y="540" type="curve"/>
      <point x="263" y="540" type="line"/>
      <point x="416" y="0" type="line"/>
      <point x="585" y="0" type="line"/>
      <point x="736" y="714" type="line"/>
      <point x="602" y="714" type="line"/>
      <point x="532" y="376" type="line" smooth="yes"/>
      <point x="520" y="319"/>
      <point x="506" y="230"/>
      <point x="499" y="188" type="curve"/>
      <point x="495" y="188" type="line"/>
      <point x="348" y="714" type="line"/>
      <point x="174" y="714" type="line"/>
    </contour>
  </outline>
</glyph>
<glyph name="O" format="2">
  <advance width="695"/>
  <unicode hex="004F"/>
  <anchor x="306" y="0" name="bottom"/>
  <anchor x="370" y="357" name="center"/>
  <anchor x="443" y="714" name="top"/>
  <anchor x="772" y="714" name="topright"/>
  <outline>
    <contour>
      <point x="308" y="-10" type="curve" smooth="yes"/>
      <point x="560" y="-10"/>
      <point x="670" y="229"/>
      <point x="670" y="462" type="curve" smooth="yes"/>
      <point x="670" y="621"/>
      <point x="587" y="725"/>
      <point x="424" y="725" type="curve" smooth="yes"/>
      <point x="173" y="725"/>
      <point x="58" y="481"/>
      <point x="58" y="258" type="curve" smooth="yes"/>
      <point x="58" y="96"/>
      <point x="144" y="-10"/>
    </contour>
    <contour>
      <point x="321" y="117" type="curve" smooth="yes"/>
      <point x="250" y="117"/>
      <point x="210" y="166"/>
      <point x="210" y="259" type="curve" smooth="yes"/>
      <point x="210" y="442"/>
      <point x="294" y="599"/>
      <point x="410" y="599" type="curve" smooth="yes"/>
      <point x="482" y="599"/>
      <point x="518" y="543"/>
      <point x="518" y="457" type="curve" smooth="yes"/>
      <point x="518" y="252"/>
      <point x="429" y="117"/>
    </contour>
  </outline>
</glyph>
<glyph name="P" format="2">
  <advance width="582"/>
  <unicode hex="0050"/>
  <anchor x="236" y="0" name="bottom"/>
  <anchor x="377" y="714" name="top"/>
  <anchor x="660" y="714" name="topright"/>
  <outline>
    <contour>
      <point x="23" y="0" type="line"/>
      <point x="172" y="0" type="line"/>
      <point x="224" y="254" type="line"/>
      <point x="291" y="254" type="line" smooth="yes"/>
      <point x="461" y="254"/>
      <point x="589" y="337"/>
      <point x="589" y="509" type="curve" smooth="yes"/>
      <point x="589" y="631"/>
      <point x="526" y="714"/>
      <point x="360" y="714" type="curve" smooth="yes"/>
      <point x="174" y="714" type="line"/>
    </contour>
    <contour>
      <point x="305" y="378" type="curve" smooth="yes"/>
      <point x="253" y="378" type="line"/>
      <point x="296" y="590" type="line"/>
      <point x="355" y="590" type="line" smooth="yes"/>
      <point x="411" y="590"/>
      <point x="439" y="562"/>
      <point x="439" y="504" type="curve" smooth="yes"/>
      <point x="439" y="425"/>
      <point x="385" y="378"/>
    </contour>
  </outline>
</glyph>
<glyph name="Q" format="2">
  <advance width="695"/>
  <unicode hex="0051"/>
  <anchor x="276" y="-110" name="bottom"/>
  <anchor x="443" y="714" name="top"/>
  <anchor x="772" y="714" name="topright"/>
  <outline>
    <contour>
      <point x="318" y="-10" type="curve"/>
      <point x="398" y="-170" type="line"/>
      <point x="571" y="-170" type="line"/>
      <point x="456" y="22" type="line"/>
      <point x="602" y="94"/>
      <point x="670" y="278"/>
      <point x="670" y="462" type="curve" smooth="yes"/>
      <point x="670" y="621"/>
      <point x="587" y="725"/>
      <point x="424" y="725" type="curve" smooth="yes"/>
      <point x="173" y="725"/>
      <point x="58" y="481"/>
      <point x="58" y="258" type="curve" smooth="yes"/>
      <point x="58" y="96"/>
      <point x="144" y="-10"/>
      <point x="306" y="-10" type="curve" smooth="yes"/>
      <point x="310" y="-10"/>
      <point x="314" y="-10"/>
    </contour>
    <contour>
      <point x="320" y="117" type="curve" smooth="yes"/>
      <point x="250" y="117"/>
      <point x="210" y="166"/>
      <point x="210" y="259" type="curve" smooth="yes"/>
      <point x="210" y="442"/>
      <point x="295" y="599"/>
      <point x="411" y="599" type="curve" smooth="yes"/>
      <point x="482" y="599"/>
      <point x="518" y="543"/>
      <point x="518" y="457" type="curve" smooth="yes"/>
      <point x="518" y="252"/>
      <point x="429" y="117"/>
    </contour>
  </outline>
</glyph>
<glyph name="R" format="2">
  <advance width="586"/>
  <unicode hex="0052"/>
  <anchor x="250" y="0" name="bottom"/>
  <anchor x="389" y="714" name="top"/>
  <anchor x="664" y="714" name="topright"/>
  <outline>
    <contour>
      <point x="23" y="0" type="line"/>
      <point x="172" y="0" type="line"/>
      <point x="229" y="274" type="line"/>
      <point x="281" y="274" type="line"/>
      <point x="373" y="0" type="line"/>
      <point x="535" y="0" type="line"/>
      <point x="417" y="303" type="line"/>
      <point x="499" y="334"/>
      <point x="565" y="406"/>
      <point x="565" y="521" type="curve" smooth="yes"/>
      <point x="565" y="657"/>
      <point x="481" y="714"/>
      <point x="343" y="714" type="curve" smooth="yes"/>
      <point x="174" y="714" type="line"/>
    </contour>
    <contour>
      <point x="290" y="397" type="curve" smooth="yes"/>
      <point x="256" y="397" type="line"/>
      <point x="296" y="590" type="line"/>
      <point x="329" y="590" type="line" smooth="yes"/>
      <point x="388" y="590"/>
      <point x="414" y="563"/>
      <point x="414" y="511" type="curve" smooth="yes"/>
      <point x="414" y="434"/>
      <point x="366" y="397"/>
    </contour>
  </outline>
</glyph>
<glyph name="S" format="2">
  <advance width="507"/>
  <unicode hex="0053"/>
  <anchor x="194" y="0" name="bottom"/>
  <anchor x="344" y="714" name="top"/>
  <anchor x="585" y="714" name="topright"/>
  <outline>
    <contour>
      <point x="187" y="-10" type="curve" smooth="yes"/>
      <point x="332" y="-10"/>
      <point x="444" y="62"/>
      <point x="444" y="214" type="curve" smooth="yes"/>
      <point x="444" y="296"/>
      <point x="408" y="356"/>
      <point x="335" y="407" type="curve" smooth="yes"/>
      <point x="282" y="444"/>
      <point x="254" y="467"/>
      <point x="254" y="517" type="curve" smooth="yes"/>
      <point x="254" y="567"/>
      <point x="287" y="598"/>
      <point x="338" y="598" type="curve" smooth="yes"/>
      <point x="380" y="598"/>
      <point x="424" y="586"/>
      <point x="472" y="562" type="curve"/>
      <point x="525" y="676" type="line"/>
      <point x="470" y="708"/>
      <point x="410" y="724"/>
      <point x="339" y="724" type="curve" smooth="yes"/>
      <point x="196" y="724"/>
      <point x="102" y="633"/>
      <point x="102" y="505" type="curve" smooth="yes"/>
      <point x="102" y="408"/>
      <point x="156" y="352"/>
      <point x="213" y="309" type="curve" smooth="yes"/>
      <point x="261" y="273"/>
      <point x="293" y="248"/>
      <point x="293" y="194" type="curve" smooth="yes"/>
      <point x="293" y="140"/>
      <point x="250" y="115"/>
      <point x="190" y="115" type="curve" smooth="yes"/>
      <point x="133" y="115"/>
      <point x="76" y="135"/>
      <point x="21" y="168" type="curve"/>
      <point x="20" y="34" type="line"/>
      <point x="60" y="7"/>
      <point x="118" y="-10"/>
    </contour>
  </outline>
</glyph>
<glyph name="T" format="2">
  <advance width="508"/>
  <unicode hex="0054"/>
  <anchor x="199" y="0" name="bottom"/>
  <anchor x="271" y="357" name="center"/>
  <anchor x="351" y="714" name="top"/>
  <anchor x="586" y="714" name="topright"/>
  <outline>
    <contour>
      <point x="121" y="0" type="line"/>
      <point x="270" y="0" type="line"/>
      <point x="392" y="588" type="line"/>
      <point x="553" y="588" type="line"/>
      <point x="581" y="714" type="line"/>
      <point x="111" y="714" type="line"/>
      <point x="83" y="588" type="line"/>
      <point x="243" y="588" type="line"/>
    </contour>
  </outline>
</glyph>
<glyph name="U" format="2">
  <advance width="658"/>
  <unicode hex="0055"/>
  <anchor x="275" y="0" name="bottom"/>
  <anchor x="421" y="714" name="top"/>
  <anchor x="736" y="714" name="topright"/>
  <outline>
    <contour>
      <point x="281" y="-10" type="curve" smooth="yes"/>
      <point x="460" y="-10"/>
      <point x="543" y="100"/>
      <point x="576" y="252" type="curve"/>
      <point x="674" y="714" type="line"/>
      <point x="525" y="714" type="line"/>
      <point x="430" y="266" type="line" smooth="yes"/>
      <point x="409" y="167"/>
      <point x="374" y="117"/>
      <point x="297" y="117" type="curve" smooth="yes"/>
      <point x="242" y="117"/>
      <point x="215" y="147"/>
      <point x="215" y="203" type="curve" smooth="yes"/>
      <point x="215" y="220"/>
      <point x="219" y="241"/>
      <point x="224" y="265" type="curve" smooth="yes"/>
      <point x="319" y="714" type="line"/>
      <point x="169" y="714" type="line"/>
      <point x="73" y="263" type="line" smooth="yes"/>
      <point x="68" y="239"/>
      <point x="66" y="210"/>
      <point x="66" y="188" type="curve" smooth="yes"/>
      <point x="66" y="69"/>
      <point x="141" y="-10"/>
    </contour>
  </outline>
</glyph>
<glyph name="V" format="2">
  <advance width="565"/>
  <unicode hex="0056"/>
  <anchor x="220" y="0" name="bottom"/>
  <anchor x="360" y="714" name="top"/>
  <anchor x="643" y="714" name="topright"/>
  <outline>
    <contour>
      <point x="139" y="0" type="line"/>
      <point x="303" y="0" type="line"/>
      <point x="655" y="714" type="line"/>
      <point x="500" y="714" type="line"/>
      <point x="304" y="284" type="line" smooth="yes"/>
      <point x="283" y="238"/>
      <point x="265" y="190"/>
      <point x="252" y="146" type="curve"/>
      <point x="248" y="146" type="line"/>
      <point x="252" y="184"/>
      <point x="252" y="243"/>
      <point x="251" y="284" type="curve" smooth="yes"/>
      <point x="234" y="714" type="line"/>
      <point x="90" y="714" type="line"/>
    </contour>
  </outline>
</glyph>
<glyph name="W" format="2">
  <advance width="857"/>
  <unicode hex="0057"/>
  <anchor x="375" y="0" name="bottom"/>
  <anchor x="522" y="714" name="top"/>
  <anchor x="934" y="714" name="topright"/>
  <outline>
    <contour>
      <point x="104" y="0" type="line"/>
      <point x="269" y="0" type="line"/>
      <point x="415" y="351" type="line" smooth="yes"/>
      <point x="434" y="396"/>
      <point x="453" y="444"/>
      <point x="470" y="497" type="curve"/>
      <point x="474" y="497" type="line"/>
      <point x="471" y="446"/>
      <point x="471" y="393"/>
      <point x="472" y="325" type="curve" smooth="yes"/>
      <point x="475" y="0" type="line"/>
      <point x="645" y="0" type="line"/>
      <point x="952" y="714" type="line"/>
      <point x="802" y="714" type="line"/>
      <point x="649" y="325" type="line" smooth="yes"/>
      <point x="631" y="280"/>
      <point x="604" y="210"/>
      <point x="587" y="155" type="curve"/>
      <point x="583" y="155" type="line"/>
      <point x="587" y="209"/>
      <point x="589" y="280"/>
      <point x="589" y="314" type="curve" smooth="yes"/>
      <point x="585" y="714" type="line"/>
      <point x="455" y="714" type="line"/>
      <point x="282" y="314" type="line" smooth="yes"/>
      <point x="264" y="273"/>
      <point x="240" y="207"/>
      <point x="223" y="155" type="curve"/>
      <point x="219" y="155" type="line"/>
      <point x="224" y="207"/>
      <point x="228" y="275"/>
      <point x="228" y="324" type="curve" smooth="yes"/>
      <point x="231" y="714" type="line"/>
      <point x="90" y="714" type="line"/>
    </contour>
  </outline>
</glyph>
<glyph name="X" format="2">
  <advance width="586"/>
  <unicode hex="0058"/>
  <anchor x="238" y="0" name="bottom"/>
  <anchor x="373" y="714" name="top"/>
  <anchor x="663" y="714" name="topright"/>
  <outline>
    <contour>
      <point x="-55" y="0" type="line"/>
      <point x="113" y="0" type="line"/>
      <point x="294" y="265" type="line"/>
      <point x="368" y="0" type="line"/>
      <point x="531" y="0" type="line"/>
      <point x="411" y="360" type="line"/>
      <point x="667" y="714" type="line"/>
      <point x="498" y="714" type="line"/>
      <point x="332" y="461" type="line"/>
      <point x="266" y="714" type="line"/>
      <point x="110" y="714" type="line"/>
      <point x="215" y="373" type="line"/>
    </contour>
  </outline>
</glyph>
<glyph name="Y" format="2">
  <advance width="543"/>
  <unicode hex="0059"/>
  <anchor x="216" y="0" name="bottom"/>
  <anchor x="356" y="714" name="top"/>
  <anchor x="621" y="714" name="topright"/>
  <outline>
    <contour>
      <point x="139" y="0" type="line"/>
      <point x="287" y="0" type="line"/>
      <point x="345" y="273" type="line"/>
      <point x="636" y="714" type="line"/>
      <point x="469" y="714" type="line"/>
      <point x="298" y="425" type="line"/>
      <point x="244" y="714" type="line"/>
      <point x="92" y="714" type="line"/>
      <point x="197" y="273" type="line"/>
    </contour>
  </outline>
</glyph>
<glyph name="Z" format="2">
  <advance width="510"/>
  <unicode hex="005A"/>
  <anchor x="198" y="0" name="bottom"/>
  <anchor x="345" y="714" name="top"/>
  <anchor x="588" y="714" name="topright"/>
  <outline>
    <contour>
      <point x="-31" y="0" type="line"/>
      <point x="429" y="0" type="line"/>
      <point x="456" y="125" type="line"/>
      <point x="184" y="125" type="line"/>
      <point x="545" y="615" type="line"/>
      <point x="566" y="714" type="line"/>
      <point x="128" y="714" type="line"/>
      <point x="100" y="589" type="line"/>
      <point x="347" y="589" type="line"/>
      <point x="-11" y="98" type="line"/>
    </contour>
  </outline>
</glyph>
<glyph name="bracketleft" format="2">
  <advance width="319"/>
  <unicode hex="005B"/>
  <outline>
    <contour>
      <point x="-20" y="-158" type="line"/>
      <point x="204" y="-158" type="line"/>
      <point x="227" y="-55" type="line"/>
      <point x="127" y="-55" type="line"/>
      <point x="269" y="611" type="line"/>
      <point x="369" y="611" type="line"/>
      <point x="391" y="714" type="line"/>
      <point x="167" y="714" type="line"/>
    </contour>
  </outline>
</glyph>
<glyph name="backslash" format="2">
  <advance width="408"/>
  <unicode hex="005C"/>
  <outline>
    <contour>
      <point x="205" y="0" type="line"/>
      <point x="333" y="0" type="line"/>
      <point x="235" y="714" type="line"/>
      <point x="110" y="714" type="line"/>
    </contour>
  </outline>
</glyph>
<glyph name="bracketright" format="2">
  <advance width="319"/>
  <unicode hex="005D"/>
  <outline>
    <contour>
      <point x="-65" y="-158" type="line"/>
      <point x="158" y="-158" type="line"/>
      <point x="345" y="714" type="line"/>
      <point x="121" y="714" type="line"/>
      <point x="98" y="611" type="line"/>
      <point x="198" y="611" type="line"/>
      <point x="57" y="-55" type="line"/>
      <point x="-42" y="-55" type="line"/>
    </contour>
  </outline>
</glyph>
<glyph name="asciicircum" format="2">
  <advance width="520"/>
  <unicode hex="005E"/>
  <outline>
    <contour>
      <point x="15" y="254" type="line"/>
      <point x="133" y="254" type="line"/>
      <point x="319" y="563" type="line"/>
      <point x="394" y="254" type="line"/>
      <point x="502" y="254" type="line"/>
      <point x="378" y="718" type="line"/>
      <point x="308" y="718" type="line"/>
    </contour>
  </outline>
</glyph>
<glyph name="grave" format="2">
  <advance width="316"/>
  <unicode hex="0060"/>
  <anchor x="254" y="546" name="_top"/>
  <outline>
    <contour>
      <point x="257" y="606" type="curve"/>
      <point x="347" y="606" type="line"/>
      <point x="347" y="618" type="line"/>
      <point x="324" y="667"/>
      <point x="306" y="721"/>
      <point x="297" y="766" type="curve"/>
      <point x="145" y="766" type="line"/>
      <point x="145" y="756" type="line"/>
      <point x="167" y="710"/>
      <point x="218" y="646"/>
    </contour>
  </outline>
</glyph>
<glyph name="a" format="2">
  <advance width="566"/>
  <unicode hex="0061"/>
  <anchor x="198" y="0" name="bottom"/>
  <anchor x="344" y="546" name="top"/>
  <anchor x="588" y="546" name="topright"/>
  <outline>
    <contour>
      <point x="188" y="-10" type="curve" smooth="yes"/>
      <point x="253" y="-10"/>
      <point x="297" y="23"/>
      <point x="332" y="71" type="curve"/>
      <point x="336" y="71" type="line"/>
      <point x="329" y="0" type="line"/>
      <point x="441" y="0" type="line"/>
      <point x="557" y="546" type="line"/>
      <point x="443" y="546" type="line"/>
      <point x="416" y="476" type="line"/>
      <point x="412" y="476" type="line"/>
      <point x="389" y="524"/>
      <point x="351" y="556"/>
      <point x="286" y="556" type="curve" smooth="yes"/>
      <point x="136" y="556"/>
      <point x="43" y="363"/>
      <point x="43" y="184" type="curve" smooth="yes"/>
      <point x="43" y="43"/>
      <point x="112" y="-10"/>
    </contour>
    <contour>
      <point x="248" y="109" type="curve" smooth="yes"/>
      <point x="212" y="109"/>
      <point x="192" y="137"/>
      <point x="192" y="193" type="curve" smooth="yes"/>
      <point x="192" y="308"/>
      <point x="246" y="437"/>
      <point x="312" y="437" type="curve" smooth="yes"/>
      <point x="349" y="437"/>
      <point x="371" y="404"/>
      <point x="371" y="358" type="curve" smooth="yes"/>
      <point x="371" y="329"/>
      <point x="369" y="303"/>
      <point x="364" y="275" type="curve" smooth="yes"/>
      <point x="349" y="190"/>
      <point x="302" y="109"/>
    </contour>
  </outline>
</glyph>
<glyph name="b" format="2">
  <advance width="567"/>
  <unicode hex="0062"/>
  <anchor x="234" y="0" name="bottom"/>
  <anchor x="398" y="760" name="top"/>
  <anchor x="594" y="760" name="topright"/>
  <outline>
    <contour>
      <point x="287" y="-10" type="curve" smooth="yes"/>
      <point x="438" y="-10"/>
      <point x="530" y="183"/>
      <point x="530" y="362" type="curve" smooth="yes"/>
      <point x="530" y="503"/>
      <point x="461" y="556"/>
      <point x="385" y="556" type="curve" smooth="yes"/>
      <point x="323" y="556"/>
      <point x="290" y="517"/>
      <point x="258" y="473" type="curve"/>
      <point x="254" y="473" type="line"/>
      <point x="265" y="512"/>
      <point x="285" y="579"/>
      <point x="294" y="619" type="curve" smooth="yes"/>
      <point x="324" y="760" type="line"/>
      <point x="177" y="760" type="line"/>
      <point x="16" y="0" type="line"/>
      <point x="130" y="0" type="line"/>
      <point x="157" y="70" type="line"/>
      <point x="160" y="70" type="line"/>
      <point x="185" y="22"/>
      <point x="224" y="-10"/>
    </contour>
    <contour>
      <point x="261" y="109" type="curve" smooth="yes"/>
      <point x="224" y="109"/>
      <point x="203" y="142"/>
      <point x="203" y="193" type="curve" smooth="yes"/>
      <point x="203" y="270"/>
      <point x="240" y="437"/>
      <point x="325" y="437" type="curve" smooth="yes"/>
      <point x="362" y="437"/>
      <point x="381" y="409"/>
      <point x="381" y="353" type="curve" smooth="yes"/>
      <point x="381" y="238"/>
      <point x="327" y="109"/>
    </contour>
  </outline>
</glyph>
<glyph name="c" format="2">
  <advance width="463"/>
  <unicode hex="0063"/>
  <anchor x="226" y="0" name="bottom"/>
  <anchor x="326" y="546" name="top"/>
  <anchor x="494" y="546" name="topright"/>
  <outline>
    <contour>
      <point x="234" y="-10" type="curve"/>
      <point x="300" y="-10"/>
      <point x="349" y="5"/>
      <point x="394" y="29" type="curve"/>
      <point x="395" y="149" type="line"/>
      <point x="351" y="126"/>
      <point x="313" y="109"/>
      <point x="267" y="109" type="curve" smooth="yes"/>
      <point x="220" y="109"/>
      <point x="192" y="140"/>
      <point x="192" y="201" type="curve" smooth="yes"/>
      <point x="192" y="316"/>
      <point x="241" y="437"/>
      <point x="328" y="437" type="curve"/>
      <point x="367" y="437"/>
      <point x="398" y="424"/>
      <point x="431" y="409" type="curve"/>
      <point x="478" y="521" type="line"/>
      <point x="433" y="543"/>
      <point x="385" y="556"/>
      <point x="323" y="556" type="curve"/>
      <point x="146" y="556"/>
      <point x="43" y="384"/>
      <point x="43" y="188" type="curve" smooth="yes"/>
      <point x="43" y="46"/>
      <point x="128" y="-10"/>
    </contour>
  </outline>
</glyph>
<glyph name="d" format="2">
  <advance width="566"/>
  <unicode hex="0064"/>
  <anchor x="200" y="0" name="bottom"/>
  <anchor x="281" y="273" name="center"/>
  <anchor x="369" y="760" name="top"/>
  <anchor x="629" y="760" name="topright"/>
  <outline>
    <contour>
      <point x="188" y="-10" type="curve" smooth="yes"/>
      <point x="254" y="-10"/>
      <point x="297" y="23"/>
      <point x="332" y="71" type="curve"/>
      <point x="336" y="71" type="line"/>
      <point x="328" y="0" type="line"/>
      <point x="441" y="0" type="line"/>
      <point x="602" y="760" type="line"/>
      <point x="455" y="760" type="line"/>
      <point x="419" y="585" type="line" smooth="yes"/>
      <point x="410" y="544"/>
      <point x="405" y="482"/>
      <point x="405" y="476" type="curve"/>
      <point x="401" y="476" type="line"/>
      <point x="376" y="521"/>
      <point x="347" y="556"/>
      <point x="286" y="556" type="curve" smooth="yes"/>
      <point x="136" y="556"/>
      <point x="43" y="363"/>
      <point x="43" y="185" type="curve" smooth="yes"/>
      <point x="43" y="43"/>
      <point x="112" y="-10"/>
    </contour>
    <contour>
      <point x="251" y="109" type="curve" smooth="yes"/>
      <point x="213" y="109"/>
      <point x="192" y="137"/>
      <point x="192" y="193" type="curve" smooth="yes"/>
      <point x="192" y="308"/>
      <point x="246" y="437"/>
      <point x="312" y="437" type="curve" smooth="yes"/>
      <point x="349" y="437"/>
      <point x="371" y="404"/>
      <point x="371" y="353" type="curve" smooth="yes"/>
      <point x="371" y="277"/>
      <point x="333" y="109"/>
    </contour>
  </outline>
</glyph>
<glyph name="e" format="2">
  <advance width="533"/>
  <unicode hex="0065"/>
  <anchor x="235" y="0" name="bottom"/>
  <anchor x="333" y="546" name="top"/>
  <anchor x="575" y="546" name="topright"/>
  <outline>
    <contour>
      <point x="247" y="-10" type="curve" smooth="yes"/>
      <point x="324" y="-10"/>
      <point x="376" y="4"/>
      <point x="431" y="32" type="curve"/>
      <point x="432" y="143" type="line"/>
      <point x="372" y="113"/>
      <point x="333" y="101"/>
      <point x="279" y="101" type="curve" smooth="yes"/>
      <point x="222" y="101"/>
      <point x="191" y="137"/>
      <point x="191" y="196" type="curve" smooth="yes"/>
      <point x="191" y="204"/>
      <point x="191" y="209"/>
      <point x="192" y="217" type="curve"/>
      <point x="216" y="217" type="line" smooth="yes"/>
      <point x="418" y="217"/>
      <point x="514" y="293"/>
      <point x="514" y="409" type="curve" smooth="yes"/>
      <point x="514" y="495"/>
      <point x="454" y="556"/>
      <point x="339" y="556" type="curve" smooth="yes"/>
      <point x="145" y="556"/>
      <point x="43" y="381"/>
      <point x="43" y="198" type="curve" smooth="yes"/>
      <point x="43" y="58"/>
      <point x="124" y="-10"/>
    </contour>
    <contour>
      <point x="228" y="316" type="curve" smooth="yes"/>
      <point x="209" y="316" type="line"/>
      <point x="224" y="395"/>
      <point x="277" y="450"/>
      <point x="327" y="450" type="curve" smooth="yes"/>
      <point x="356" y="450"/>
      <point x="373" y="435"/>
      <point x="373" y="405" type="curve" smooth="yes"/>
      <point x="373" y="357"/>
      <point x="331" y="316"/>
    </contour>
  </outline>
</glyph>
<glyph name="h" format="2">
  <advance width="577"/>
  <unicode hex="0068"/>
  <anchor x="234" y="0" name="bottom"/>
  <anchor x="291" y="273" name="center"/>
  <anchor x="249" y="760" name="top"/>
  <anchor x="598" y="760" name="topright"/>
  <outline>
    <contour>
      <point x="16" y="0" type="line"/>
      <point x="163" y="0" type="line"/>
      <point x="212" y="226" type="line" smooth="yes"/>
      <point x="237" y="342"/>
      <point x="280" y="437"/>
      <point x="338" y="437" type="curve" smooth="yes"/>
      <point x="368" y="437"/>
      <point x="385" y="418"/>
      <point x="385" y="378" type="curve" smooth="yes"/>
      <point x="385" y="362"/>
      <point x="382" y="342"/>
      <point x="377" y="319" type="curve" smooth="yes"/>
      <point x="310" y="0" type="line"/>
      <point x="458" y="0" type="line"/>
      <point x="522" y="311" type="line"/>
      <point x="529" y="345"/>
      <point x="534" y="376"/>
      <point x="534" y="402" type="curve" smooth="yes"/>
      <point x="534" y="496"/>
      <point x="490" y="556"/>
      <point x="400" y="556" type="curve" smooth="yes"/>
      <point x="340" y="556"/>
      <point x="295" y="523"/>
      <point x="258" y="473" type="curve"/>
      <point x="254" y="473" type="line"/>
      <point x="256" y="473"/>
      <point x="283" y="566"/>
      <point x="296" y="628" type="curve" smooth="yes"/>
      <point x="324" y="760" type="line"/>
      <point x="177" y="760" type="line"/>
    </contour>
  </outline>
</glyph>
<glyph name="i" format="2">
  <advance width="287"/>
  <unicode hex="0069"/>
  <anchor x="89" y="0" name="bottom"/>
  <anchor x="251" y="760" name="top"/>
  <anchor x="365" y="760" name="topright"/>
  <outline>
    <contour>
      <point x="16" y="0" type="line"/>
      <point x="163" y="0" type="line"/>
      <point x="279" y="546" type="line"/>
      <point x="132" y="546" type="line"/>
    </contour>
    <contour>
      <point x="228" y="614" type="curve" smooth="yes"/>
      <point x="289" y="614"/>
      <point x="317" y="650"/>
      <point x="317" y="702" type="curve" smooth="yes"/>
      <point x="317" y="745"/>
      <point x="283" y="760"/>
      <point x="245" y="760" type="curve" smooth="yes"/>
      <point x="189" y="760"/>
      <point x="155" y="730"/>
      <point x="155" y="673" type="curve" smooth="yes"/>
      <point x="155" y="630"/>
      <point x="187" y="614"/>
    </contour>
  </outline>
</glyph>
<glyph name="j" format="2">
  <advance width="287"/>
  <unicode hex="006A"/>
  <anchor x="-42" y="-240" name="bottom"/>
  <anchor x="251" y="760" name="top"/>
  <anchor x="367" y="760" name="topright"/>
  <outline>
    <contour>
      <point x="-42" y="-240" type="curve" smooth="yes"/>
      <point x="78" y="-240"/>
      <point x="131" y="-159"/>
      <point x="152" y="-59" type="curve" smooth="yes"/>
      <point x="280" y="546" type="line"/>
      <point x="133" y="546" type="line"/>
      <point x="10" y="-37" type="line"/>
      <point x="-2" y="-95"/>
      <point x="-33" y="-120"/>
      <point x="-71" y="-120" type="curve" smooth="yes"/>
      <point x="-89" y="-120"/>
      <point x="-103" y="-117"/>
      <point x="-124" y="-110" type="curve"/>
      <point x="-125" y="-228" type="line"/>
      <point x="-106" y="-235"/>
      <point x="-72" y="-240"/>
    </contour>
    <contour>
      <point x="230" y="614" type="curve"/>
      <point x="289" y="614"/>
      <point x="318" y="649"/>
      <point x="318" y="701" type="curve" smooth="yes"/>
      <point x="318" y="745"/>
      <point x="285" y="760"/>
      <point x="246" y="760" type="curve"/>
      <point x="190" y="760"/>
      <point x="157" y="730"/>
      <point x="157" y="674" type="curve" smooth="yes"/>
      <point x="157" y="630"/>
      <point x="188" y="614"/>
    </contour>
  </outline>
</glyph>
<glyph name="k" format="2">
  <advance width="549"/>
  <unicode hex="006B"/>
  <anchor x="244" y="0" name="bottom"/>
  <anchor x="246" y="760" name="top"/>
  <anchor x="545" y="840" name="topright"/>
  <outline>
    <contour>
      <point x="16" y="0" type="line"/>
      <point x="163" y="0" type="line"/>
      <point x="199" y="170" type="line"/>
      <point x="253" y="205" type="line"/>
      <point x="332" y="0" type="line"/>
      <point x="497" y="0" type="line"/>
      <point x="369" y="300" type="line"/>
      <point x="602" y="546" type="line"/>
      <point x="434" y="546" type="line"/>
      <point x="226" y="314" type="line"/>
      <point x="223" y="314" type="line"/>
      <point x="229" y="336"/>
      <point x="245" y="388"/>
      <point x="252" y="421" type="curve" smooth="yes"/>
      <point x="324" y="760" type="line"/>
      <point x="177" y="760" type="line"/>
    </contour>
  </outline>
</glyph>
<glyph name="l" format="2">
  <advance width="287"/>
  <unicode hex="006C"/>
  <anchor x="86" y="0" name="bottom"/>
  <anchor x="144" y="273" name="center"/>
  <anchor x="247" y="760" name="top"/>
  <anchor x="370" y="760" name="topright"/>
  <outline>
    <contour>
      <point x="16" y="0" type="line"/>
      <point x="163" y="0" type="line"/>
      <point x="324" y="760" type="line"/>
      <point x="177" y="760" type="line"/>
    </contour>
  </outline>
</glyph>
<glyph name="o" format="2">
  <advance width="560"/>
  <unicode hex="006F"/>
  <anchor x="222" y="0" name="bottom"/>
  <anchor x="280" y="273" name="center"/>
  <anchor x="338" y="546" name="top"/>
  <anchor x="598" y="546" name="topright"/>
  <outline>
    <contour>
      <point x="240" y="-10" type="curve" smooth="yes"/>
      <point x="431" y="-10"/>
      <point x="522" y="158"/>
      <point x="522" y="343" type="curve" smooth="yes"/>
      <point x="522" y="477"/>
      <point x="447" y="556"/>
      <point x="326" y="556" type="curve" smooth="yes"/>
      <point x="138" y="556"/>
      <point x="43" y="390"/>
      <point x="43" y="197" type="curve" smooth="yes"/>
      <point x="43" y="69"/>
      <point x="122" y="-10"/>
    </contour>
    <contour>
      <point x="254" y="110" type="curve" smooth="yes"/>
      <point x="212" y="110"/>
      <point x="192" y="140"/>
      <point x="192" y="198" type="curve" smooth="yes"/>
      <point x="192" y="296"/>
      <point x="233" y="436"/>
      <point x="313" y="436" type="curve" smooth="yes"/>
      <point x="357" y="436"/>
      <point x="373" y="396"/>
      <point x="373" y="342" type="curve" smooth="yes"/>
      <point x="373" y="224"/>
      <point x="328" y="110"/>
    </contour>
  </outline>
</glyph>
<glyph name="p" format="2">
  <advance width="567"/>
  <unicode hex="0070"/>
  <anchor x="37" y="-240" name="bottom"/>
  <anchor x="342" y="546" name="top"/>
  <anchor x="605" y="546" name="topright"/>
  <outline>
    <contour>
      <point x="-35" y="-240" type="line"/>
      <point x="111" y="-240" type="line"/>
      <point x="146" y="-74" type="line" smooth="yes"/>
      <point x="157" y="-24"/>
      <point x="164" y="17"/>
      <point x="168" y="70" type="curve"/>
      <point x="172" y="70" type="line"/>
      <point x="196" y="25"/>
      <point x="226" y="-10"/>
      <point x="287" y="-10" type="curve" smooth="yes"/>
      <point x="434" y="-10"/>
      <point x="530" y="183"/>
      <point x="530" y="361" type="curve" smooth="yes"/>
      <point x="530" y="503"/>
      <point x="462" y="556"/>
      <point x="384" y="556" type="curve" smooth="yes"/>
      <point x="319" y="556"/>
      <point x="273" y="510"/>
      <point x="241" y="463" type="curve"/>
      <point x="237" y="463" type="line"/>
      <point x="245" y="546" type="line"/>
      <point x="132" y="546" type="line"/>
    </contour>
    <contour>
      <point x="262" y="109" type="curve" smooth="yes"/>
      <point x="225" y="109"/>
      <point x="203" y="142"/>
      <point x="203" y="193" type="curve" smooth="yes"/>
      <point x="203" y="272"/>
      <point x="240" y="437"/>
      <point x="325" y="437" type="curve" smooth="yes"/>
      <point x="362" y="437"/>
      <point x="381" y="409"/>
      <point x="381" y="353" type="curve" smooth="yes"/>
      <point x="381" y="238"/>
      <point x="328" y="109"/>
    </contour>
  </outline>
</glyph>
<glyph name="q" format="2">
  <advance width="566"/>
  <unicode hex="0071"/>
  <anchor x="315" y="-240" name="bottom"/>
  <anchor x="341" y="546" name="top"/>
  <anchor x="594" y="546" name="topright"/>
  <outline>
    <contour>
      <point x="278" y="-75" type="curve" smooth="yes"/>
      <point x="242" y="-240" type="line"/>
      <point x="390" y="-240" type="line"/>
      <point x="557" y="546" type="line"/>
      <point x="443" y="546" type="line"/>
      <point x="416" y="476" type="line"/>
      <point x="412" y="476" type="line"/>
      <point x="382" y="526"/>
      <point x="347" y="556"/>
      <point x="286" y="556" type="curve" smooth="yes"/>
      <point x="136" y="556"/>
      <point x="43" y="363"/>
      <point x="43" y="184" type="curve" smooth="yes"/>
      <point x="43" y="43"/>
      <point x="113" y="-10"/>
      <point x="181" y="-10" type="curve" smooth="yes"/>
      <point x="244" y="-10"/>
      <point x="283" y="28"/>
      <point x="315" y="73" type="curve"/>
      <point x="319" y="73" type="line"/>
      <point x="306" y="30"/>
      <point x="285" y="-40"/>
    </contour>
    <contour>
      <point x="252" y="109" type="curve" smooth="yes"/>
      <point x="214" y="109"/>
      <point x="192" y="137"/>
      <point x="192" y="193" type="curve" smooth="yes"/>
      <point x="192" y="308"/>
      <point x="246" y="437"/>
      <point x="312" y="437" type="curve" smooth="yes"/>
      <point x="349" y="437"/>
      <point x="371" y="404"/>
      <point x="371" y="353" type="curve" smooth="yes"/>
      <point x="371" y="277"/>
      <point x="334" y="109"/>
    </contour>
  </outline>
</glyph>
<glyph name="r" format="2">
  <advance width="403"/>
  <unicode hex="0072"/>
  <anchor x="94" y="0" name="bottom"/>
  <anchor x="300" y="546" name="top"/>
  <anchor x="451" y="546" name="topright"/>
  <outline>
    <contour>
      <point x="16" y="0" type="line"/>
      <point x="163" y="0" type="line"/>
      <point x="215" y="244" type="line" smooth="yes"/>
      <point x="239" y="359"/>
      <point x="296" y="417"/>
      <point x="363" y="417" type="curve" smooth="yes"/>
      <point x="383" y="417"/>
      <point x="400" y="413"/>
      <point x="411" y="409" type="curve"/>
      <point x="445" y="551" type="line"/>
      <point x="435" y="554"/>
      <point x="416" y="556"/>
      <point x="402" y="556" type="curve" smooth="yes"/>
      <point x="333" y="556"/>
      <point x="283" y="514"/>
      <point x="240" y="445" type="curve"/>
      <point x="235" y="445" type="line"/>
      <point x="245" y="546" type="line"/>
      <point x="132" y="546" type="line"/>
    </contour>
  </outline>
</glyph>
<glyph name="s" format="2">
  <advance width="455"/>
  <unicode hex="0073"/>
  <anchor x="170" y="0" name="bottom"/>
  <anchor x="286" y="546" name="top"/>
  <anchor x="473" y="546" name="topright"/>
  <outline>
    <contour>
      <point x="168" y="-10" type="curve"/>
      <point x="303" y="-10"/>
      <point x="390" y="55"/>
      <point x="392" y="180" type="curve"/>
      <point x="392" y="254"/>
      <point x="350" y="296"/>
      <point x="286" y="330" type="curve"/>
      <point x="235" y="359"/>
      <point x="218" y="374"/>
      <point x="218" y="399" type="curve" smooth="yes"/>
      <point x="218" y="431"/>
      <point x="244" y="446"/>
      <point x="273" y="446" type="curve"/>
      <point x="313" y="446"/>
      <point x="355" y="428"/>
      <point x="392" y="405" type="curve"/>
      <point x="441" y="510" type="line"/>
      <point x="388" y="543"/>
      <point x="333" y="556"/>
      <point x="271" y="556" type="curve"/>
      <point x="143" y="556"/>
      <point x="69" y="495"/>
      <point x="68" y="382" type="curve"/>
      <point x="68" y="313"/>
      <point x="102" y="276"/>
      <point x="166" y="238" type="curve"/>
      <point x="229" y="200"/>
      <point x="242" y="185"/>
      <point x="242" y="159" type="curve" smooth="yes"/>
      <point x="242" y="118"/>
      <point x="201" y="99"/>
      <point x="161" y="99" type="curve"/>
      <point x="109" y="99"/>
      <point x="60" y="115"/>
      <point x="12" y="143" type="curve"/>
      <point x="11" y="22" type="line"/>
      <point x="53" y="-1"/>
      <point x="101" y="-10"/>
    </contour>
  </outline>
</glyph>
<glyph name="t" format="2">
  <advance width="398"/>
  <unicode hex="0074"/>
  <anchor x="171" y="0" name="bottom"/>
  <anchor x="158" y="273" name="center"/>
  <anchor x="250" y="662" name="top"/>
  <anchor x="391" y="840" name="topright"/>
  <outline>
    <contour>
      <point x="190" y="-10" type="curve"/>
      <point x="245" y="-10"/>
      <point x="289" y="1"/>
      <point x="320" y="16" type="curve"/>
      <point x="322" y="126" type="line"/>
      <point x="293" y="115"/>
      <point x="270" y="109"/>
      <point x="245" y="109" type="curve"/>
      <point x="221" y="109"/>
      <point x="206" y="119"/>
      <point x="206" y="145" type="curve"/>
      <point x="206" y="151"/>
      <point x="208" y="161"/>
      <point x="210" y="171" type="curve" smooth="yes"/>
      <point x="264" y="434" type="line"/>
      <point x="395" y="434" type="line"/>
      <point x="420" y="546" type="line"/>
      <point x="289" y="546" type="line"/>
      <point x="313" y="662" type="line"/>
      <point x="217" y="662" type="line"/>
      <point x="155" y="547" type="line"/>
      <point x="61" y="506" type="line"/>
      <point x="46" y="434" type="line"/>
      <point x="117" y="434" type="line"/>
      <point x="63" y="171" type="line" smooth="yes"/>
      <point x="59" y="151"/>
      <point x="56" y="132"/>
      <point x="56" y="116" type="curve"/>
      <point x="55" y="21"/>
      <point x="107" y="-10"/>
    </contour>
  </outline>
</glyph>
<glyph name="u" format="2">
  <advance width="577"/>
  <unicode hex="0075"/>
  <anchor x="191" y="0" name="bottom"/>
  <anchor x="345" y="546" name="top"/>
  <anchor x="615" y="546" name="topright"/>
  <outline>
    <contour>
      <point x="184" y="-10" type="curve" smooth="yes"/>
      <point x="255" y="-10"/>
      <point x="304" y="36"/>
      <point x="344" y="101" type="curve"/>
      <point x="348" y="101" type="line"/>
      <point x="339" y="0" type="line"/>
      <point x="452" y="0" type="line"/>
      <point x="568" y="546" type="line"/>
      <point x="420" y="546" type="line"/>
      <point x="371" y="320" type="line" smooth="yes"/>
      <point x="346" y="204"/>
      <point x="303" y="109"/>
      <point x="246" y="109" type="curve" smooth="yes"/>
      <point x="216" y="109"/>
      <point x="199" y="128"/>
      <point x="199" y="168" type="curve" smooth="yes"/>
      <point x="199" y="184"/>
      <point x="203" y="204"/>
      <point x="207" y="227" type="curve" smooth="yes"/>
      <point x="274" y="546" type="line"/>
      <point x="127" y="546" type="line"/>
      <point x="65" y="251" type="line"/>
      <point x="56" y="211"/>
      <point x="52" y="169"/>
      <point x="52" y="144" type="curve" smooth="yes"/>
      <point x="52" y="50"/>
      <point x="94" y="-10"/>
    </contour>
  </outline>
</glyph>
<glyph name="v" format="2">
  <advance width="492"/>
  <unicode hex="0076"/>
  <anchor x="188" y="0" name="bottom"/>
  <anchor x="304" y="546" name="top"/>
  <anchor x="530" y="546" name="topright"/>
  <outline>
    <contour>
      <point x="111" y="0" type="line"/>
      <point x="266" y="0" type="line"/>
      <point x="553" y="546" type="line"/>
      <point x="395" y="546" type="line"/>
      <point x="257" y="256" type="line" smooth="yes"/>
      <point x="245" y="231"/>
      <point x="228" y="180"/>
      <point x="218" y="147" type="curve"/>
      <point x="213" y="147" type="line"/>
      <point x="214" y="183"/>
      <point x="213" y="235"/>
      <point x="212" y="260" type="curve" smooth="yes"/>
      <point x="196" y="546" type="line"/>
      <point x="52" y="546" type="line"/>
    </contour>
  </outline>
</glyph>
<glyph name="w" format="2">
  <advance width="755"/>
  <unicode hex="0077"/>
  <anchor x="320" y="0" name="bottom"/>
  <anchor x="426" y="546" name="top"/>
  <anchor x="793" y="546" name="topright"/>
  <outline>
    <contour>
      <point x="81" y="0" type="line"/>
      <point x="239" y="0" type="line"/>
      <point x="346" y="264" type="line" smooth="yes"/>
      <point x="361" y="301"/>
      <point x="385" y="372"/>
      <point x="401" y="420" type="curve"/>
      <point x="406" y="420" type="line"/>
      <point x="402" y="372"/>
      <point x="399" y="295"/>
      <point x="398" y="254" type="curve" smooth="yes"/>
      <point x="396" y="0" type="line"/>
      <point x="558" y="0" type="line"/>
      <point x="810" y="546" type="line"/>
      <point x="660" y="546" type="line"/>
      <point x="556" y="304" type="line" smooth="yes"/>
      <point x="539" y="265"/>
      <point x="516" y="184"/>
      <point x="503" y="139" type="curve"/>
      <point x="498" y="139" type="line"/>
      <point x="504" y="193"/>
      <point x="504" y="239"/>
      <point x="505" y="284" type="curve" smooth="yes"/>
      <point x="510" y="546" type="line"/>
      <point x="352" y="546" type="line"/>
      <point x="242" y="284" type="line" smooth="yes"/>
      <point x="235" y="266"/>
      <point x="208" y="189"/>
      <point x="196" y="139" type="curve"/>
      <point x="192" y="139" type="line"/>
      <point x="197" y="200"/>
      <point x="198" y="251"/>
      <point x="198" y="304" type="curve" smooth="yes"/>
      <point x="199" y="546" type="line"/>
      <point x="62" y="546" type="line"/>
    </contour>
  </outline>
</glyph>
<glyph name="x" format="2">
  <advance width="511"/>
  <unicode hex="0078"/>
  <anchor x="198" y="0" name="bottom"/>
  <anchor x="312" y="546" name="top"/>
  <anchor x="549" y="546" name="topright"/>
  <outline>
    <contour>
      <point x="-48" y="0" type="line"/>
      <point x="123" y="0" type="line"/>
      <point x="243" y="167" type="line"/>
      <point x="295" y="0" type="line"/>
      <point x="455" y="0" type="line"/>
      <point x="346" y="272" type="line"/>
      <point x="566" y="546" type="line"/>
      <point x="392" y="546" type="line"/>
      <point x="283" y="383" type="line"/>
      <point x="235" y="546" type="line"/>
      <point x="77" y="546" type="line"/>
      <point x="177" y="280" type="line"/>
    </contour>
  </outline>
</glyph>
<glyph name="y" format="2">
  <advance width="497"/>
  <unicode hex="0079"/>
  <anchor x="2" y="-240" name="bottom"/>
  <anchor x="307" y="546" name="top"/>
  <anchor x="535" y="546" name="topright"/>
  <outline>
    <contour>
      <point x="2" y="-240" type="curve" smooth="yes"/>
      <point x="99" y="-240"/>
      <point x="175" y="-189"/>
      <point x="232" y="-78" type="curve" smooth="yes"/>
      <point x="553" y="546" type="line"/>
      <point x="393" y="546" type="line"/>
      <point x="274" y="283" type="line" smooth="yes"/>
      <point x="250" y="229"/>
      <point x="237" y="183"/>
      <point x="225" y="150" type="curve"/>
      <point x="221" y="150" type="line"/>
      <point x="222" y="189"/>
      <point x="222" y="248"/>
      <point x="218" y="293" type="curve" smooth="yes"/>
      <point x="196" y="546" type="line"/>
      <point x="51" y="546" type="line"/>
      <point x="121" y="0" type="line"/>
      <point x="109" y="-24" type="line" smooth="yes"/>
      <point x="81" y="-80"/>
      <point x="46" y="-120"/>
      <point x="-12" y="-120" type="curve" smooth="yes"/>
      <point x="-34" y="-120"/>
      <point x="-51" y="-117"/>
      <point x="-66" y="-114" type="curve"/>
      <point x="-67" y="-231" type="line"/>
      <point x="-52" y="-236"/>
      <point x="-32" y="-240"/>
    </contour>
  </outline>
</glyph>
<glyph name="z" format="2">
  <advance width="438"/>
  <unicode hex="007A"/>
  <anchor x="161" y="0" name="bottom"/>
  <anchor x="277" y="546" name="top"/>
  <anchor x="476" y="546" name="topright"/>
  <outline>
    <contour>
      <point x="-21" y="0" type="line"/>
      <point x="352" y="0" type="line"/>
      <point x="377" y="114" type="line"/>
      <point x="179" y="114" type="line"/>
      <point x="438" y="448" type="line"/>
      <point x="460" y="546" type="line"/>
      <point x="107" y="546" type="line"/>
      <point x="81" y="432" type="line"/>
      <point x="261" y="432" type="line"/>
      <point x="-3" y="88" type="line"/>
    </contour>
  </outline>
</glyph>
<glyph name="braceleft" format="2">
  <advance width="338"/>
  <unicode hex="007B"/>
  <outline>
    <contour>
      <point x="217" y="-158" type="curve" smooth="yes"/>
      <point x="244" y="-158" type="line"/>
      <point x="245" y="-48" type="line"/>
      <point x="210" y="-48"/>
      <point x="189" y="-37"/>
      <point x="189" y="-3" type="curve" smooth="yes"/>
      <point x="189" y="5"/>
      <point x="190" y="13"/>
      <point x="192" y="23" type="curve" smooth="yes"/>
      <point x="210" y="110" type="line"/>
      <point x="214" y="132"/>
      <point x="217" y="149"/>
      <point x="217" y="166" type="curve" smooth="yes"/>
      <point x="217" y="217"/>
      <point x="192" y="254"/>
      <point x="140" y="271" type="curve"/>
      <point x="140" y="275" type="line"/>
      <point x="208" y="284"/>
      <point x="254" y="318"/>
      <point x="269" y="390" type="curve" smooth="yes"/>
      <point x="300" y="535" type="line"/>
      <point x="312" y="591"/>
      <point x="340" y="603"/>
      <point x="387" y="604" type="curve"/>
      <point x="412" y="714" type="line"/>
      <point x="369" y="714" type="line"/>
      <point x="248" y="714"/>
      <point x="201" y="663"/>
      <point x="180" y="563" type="curve" smooth="yes"/>
      <point x="151" y="424" type="line"/>
      <point x="137" y="361"/>
      <point x="96" y="336"/>
      <point x="21" y="336" type="curve"/>
      <point x="-2" y="224" type="line"/>
      <point x="61" y="224"/>
      <point x="91" y="201"/>
      <point x="91" y="157" type="curve" smooth="yes"/>
      <point x="91" y="144"/>
      <point x="88" y="129"/>
      <point x="85" y="114" type="curve" smooth="yes"/>
      <point x="66" y="24" type="line"/>
      <point x="62" y="4"/>
      <point x="59" y="-16"/>
      <point x="59" y="-38" type="curve" smooth="yes"/>
      <point x="59" y="-109"/>
      <point x="103" y="-158"/>
    </contour>
  </outline>
</glyph>
<glyph name="bar" format="2">
  <advance width="526"/>
  <unicode hex="007C"/>
  <outline>
    <contour>
      <point x="207" y="-227" type="line"/>
      <point x="313" y="-227" type="line"/>
      <point x="313" y="757" type="line"/>
      <point x="207" y="757" type="line"/>
    </contour>
  </outline>
</glyph>
<glyph name="braceright" format="2">
  <advance width="339"/>
  <unicode hex="007D"/>
  <outline>
    <contour>
      <point x="-49" y="-48" type="curve"/>
      <point x="-50" y="-158" type="line"/>
      <point x="-27" y="-158" type="line" smooth="yes"/>
      <point x="94" y="-158"/>
      <point x="141" y="-106"/>
      <point x="162" y="-7" type="curve" smooth="yes"/>
      <point x="192" y="132" type="line" smooth="yes"/>
      <point x="206" y="195"/>
      <point x="248" y="220"/>
      <point x="323" y="220" type="curve"/>
      <point x="347" y="332" type="line"/>
      <point x="283" y="332"/>
      <point x="252" y="355"/>
      <point x="252" y="399" type="curve" smooth="yes"/>
      <point x="252" y="412"/>
      <point x="255" y="427"/>
      <point x="258" y="442" type="curve" smooth="yes"/>
      <point x="277" y="532" type="line" smooth="yes"/>
      <point x="281" y="552"/>
      <point x="284" y="572"/>
      <point x="284" y="595" type="curve" smooth="yes"/>
      <point x="284" y="665"/>
      <point x="241" y="714"/>
      <point x="127" y="714" type="curve" smooth="yes"/>
      <point x="109" y="714" type="line"/>
      <point x="88" y="604" type="line"/>
      <point x="132" y="604"/>
      <point x="154" y="593"/>
      <point x="154" y="559" type="curve" smooth="yes"/>
      <point x="154" y="551"/>
      <point x="153" y="543"/>
      <point x="151" y="533" type="curve" smooth="yes"/>
      <point x="133" y="446" type="line" smooth="yes"/>
      <point x="129" y="425"/>
      <point x="126" y="407"/>
      <point x="126" y="390" type="curve" smooth="yes"/>
      <point x="126" y="339"/>
      <point x="151" y="302"/>
      <point x="203" y="285" type="curve"/>
      <point x="203" y="281" type="line"/>
      <point x="135" y="272"/>
      <point x="90" y="238"/>
      <point x="74" y="166" type="curve" smooth="yes"/>
      <point x="42" y="21" type="line" smooth="yes"/>
      <point x="30" y="-35"/>
      <point x="2" y="-47"/>
    </contour>
  </outline>
</glyph>
<glyph name="asciitilde" format="2">
  <advance width="536"/>
  <unicode hex="007E"/>
  <outline>
    <contour>
      <point x="270" y="301" type="curve" smooth="yes"/>
      <point x="330" y="274"/>
      <point x="362" y="270"/>
      <point x="398" y="270" type="curve" smooth="yes"/>
      <point x="447" y="270"/>
      <point x="486" y="288"/>
      <point x="518" y="323" type="curve"/>
      <point x="518" y="436" type="line"/>
      <point x="486" y="403"/>
      <point x="446" y="377"/>
      <point x="411" y="377" type="curve" smooth="yes"/>
      <point x="383" y="377"/>
      <point x="350" y="383"/>
      <point x="304" y="404" type="curve" smooth="yes"/>
      <point x="245" y="431"/>
      <point x="213" y="435"/>
      <point x="176" y="435" type="curve" smooth="yes"/>
      <point x="127" y="435"/>
      <point x="88" y="417"/>
      <point x="57" y="382" type="curve"/>
      <point x="57" y="269" type="line"/>
      <point x="88" y="302"/>
      <point x="128" y="328"/>
      <point x="164" y="328" type="curve" smooth="yes"/>
      <point x="193" y="328"/>
      <point x="224" y="322"/>
    </contour>
  </outline>
</glyph>
<glyph name="exclamdown" format="2">
  <advance width="275"/>
  <unicode hex="00A1"/>
  <outline>
    <contour>
      <point x="-39" y="-181" type="line"/>
      <point x="126" y="-181" type="line"/>
      <point x="207" y="296" type="line"/>
      <point x="82" y="296" type="line"/>
    </contour>
    <contour>
      <point x="164" y="380" type="curve" smooth="yes"/>
      <point x="235" y="380"/>
      <point x="263" y="430"/>
      <point x="263" y="478" type="curve" smooth="yes"/>
      <point x="263" y="512"/>
      <point x="244" y="546"/>
      <point x="189" y="546" type="curve" smooth="yes"/>
      <point x="131" y="546"/>
      <point x="92" y="506"/>
      <point x="92" y="450" type="curve" smooth="yes"/>
      <point x="92" y="406"/>
      <point x="120" y="380"/>
    </contour>
  </outline>
</glyph>
<glyph name="cent" format="2">
  <advance width="529"/>
  <unicode hex="00A2"/>
  <outline>
    <contour>
      <point x="202" y="93" type="curve"/>
      <point x="178" y="-10" type="line"/>
      <point x="269" y="-10" type="line"/>
      <point x="289" y="84" type="line"/>
      <point x="345" y="87"/>
      <point x="388" y="101"/>
      <point x="429" y="123" type="curve"/>
      <point x="430" y="243" type="line"/>
      <point x="387" y="220"/>
      <point x="348" y="203"/>
      <point x="302" y="203" type="curve" smooth="yes"/>
      <point x="255" y="203"/>
      <point x="227" y="234"/>
      <point x="227" y="295" type="curve" smooth="yes"/>
      <point x="227" y="410"/>
      <point x="276" y="531"/>
      <point x="363" y="531" type="curve" smooth="yes"/>
      <point x="403" y="531"/>
      <point x="432" y="518"/>
      <point x="466" y="503" type="curve"/>
      <point x="513" y="615" type="line"/>
      <point x="481" y="631"/>
      <point x="448" y="642"/>
      <point x="408" y="647" type="curve"/>
      <point x="425" y="724" type="line"/>
      <point x="334" y="724" type="line"/>
      <point x="318" y="647" type="line"/>
      <point x="166" y="624"/>
      <point x="78" y="463"/>
      <point x="78" y="282" type="curve" smooth="yes"/>
      <point x="78" y="171"/>
      <point x="130" y="114"/>
    </contour>
  </outline>
</glyph>
<glyph name="sterling" format="2">
  <advance width="529"/>
  <unicode hex="00A3"/>
  <outline>
    <contour>
      <point x="19" y="120" type="curve"/>
      <point x="-6" y="0" type="line"/>
      <point x="457" y="0" type="line"/>
      <point x="485" y="127" type="line"/>
      <point x="186" y="127" type="line"/>
      <point x="232" y="150"/>
      <point x="270" y="193"/>
      <point x="284" y="259" type="curve" smooth="yes"/>
      <point x="293" y="300" type="line"/>
      <point x="427" y="300" type="line"/>
      <point x="451" y="407" type="line"/>
      <point x="315" y="407" type="line"/>
      <point x="337" y="519" type="line" smooth="yes"/>
      <point x="349" y="579"/>
      <point x="376" y="603"/>
      <point x="418" y="603" type="curve" smooth="yes"/>
      <point x="451" y="603"/>
      <point x="488" y="589"/>
      <point x="525" y="570" type="curve"/>
      <point x="582" y="683" type="line"/>
      <point x="537" y="706"/>
      <point x="479" y="725"/>
      <point x="411" y="725" type="curve" smooth="yes"/>
      <point x="292" y="725"/>
      <point x="214" y="654"/>
      <point x="189" y="528" type="curve" smooth="yes"/>
      <point x="166" y="407" type="line"/>
      <point x="78" y="407" type="line"/>
      <point x="55" y="300" type="line"/>
      <point x="143" y="300" type="line"/>
      <point x="132" y="249" type="line" smooth="yes"/>
      <point x="116" y="172"/>
      <point x="78" y="135"/>
    </contour>
  </outline>
</glyph>
<glyph name="currency" format="2">
  <advance width="529"/>
  <unicode hex="00A4"/>
  <outline>
    <contour>
      <point x="366" y="185" type="curve"/>
      <point x="424" y="124" type="line"/>
      <point x="495" y="195" type="line"/>
      <point x="438" y="256" type="line"/>
      <point x="454" y="286"/>
      <point x="463" y="318"/>
      <point x="463" y="355" type="curve" smooth="yes"/>
      <point x="463" y="389"/>
      <point x="454" y="424"/>
      <point x="440" y="450" type="curve"/>
      <point x="500" y="513" type="line"/>
      <point x="428" y="583" type="line"/>
      <point x="369" y="520" type="line"/>
      <point x="341" y="538"/>
      <point x="312" y="547"/>
      <point x="279" y="547" type="curve" smooth="yes"/>
      <point x="249" y="547"/>
      <point x="215" y="537"/>
      <point x="189" y="521" type="curve"/>
      <point x="131" y="583" type="line"/>
      <point x="58" y="511" type="line"/>
      <point x="118" y="449" type="line"/>
      <point x="102" y="420"/>
      <point x="93" y="387"/>
      <point x="93" y="351" type="curve" smooth="yes"/>
      <point x="93" y="317"/>
      <point x="100" y="285"/>
      <point x="116" y="257" type="curve"/>
      <point x="56" y="196" type="line"/>
      <point x="126" y="125" type="line"/>
      <point x="184" y="185" type="line"/>
      <point x="211" y="168"/>
      <point x="241" y="160"/>
      <point x="275" y="160" type="curve" smooth="yes"/>
      <point x="308" y="160"/>
      <point x="339" y="170"/>
    </contour>
    <contour>
      <point x="276" y="261" type="curve" smooth="yes"/>
      <point x="230" y="261"/>
      <point x="193" y="302"/>
      <point x="193" y="352" type="curve" smooth="yes"/>
      <point x="193" y="405"/>
      <point x="231" y="446"/>
      <point x="278" y="446" type="curve" smooth="yes"/>
      <point x="325" y="446"/>
      <point x="363" y="405"/>
      <point x="363" y="354" type="curve" smooth="yes"/>
      <point x="363" y="302"/>
      <point x="324" y="261"/>
    </contour>
  </outline>
</glyph>
<glyph name="yen" format="2">
  <advance width="528"/>
  <unicode hex="00A5"/>
  <outline>
    <contour>
      <point x="133" y="0" type="line"/>
      <point x="276" y="0" type="line"/>
      <point x="298" y="108" type="line"/>
      <point x="413" y="108" type="line"/>
      <point x="431" y="195" type="line"/>
      <point x="317" y="195" type="line"/>
      <point x="331" y="262" type="line"/>
      <point x="445" y="262" type="line"/>
      <point x="465" y="349" type="line"/>
      <point x="372" y="349" type="line"/>
      <point x="609" y="714" type="line"/>
      <point x="458" y="714" type="line"/>
      <point x="289" y="426" type="line"/>
      <point x="243" y="714" type="line"/>
      <point x="98" y="714" type="line"/>
      <point x="183" y="349" type="line"/>
      <point x="93" y="349" type="line"/>
      <point x="73" y="262" type="line"/>
      <point x="188" y="262" type="line"/>
      <point x="174" y="195" type="line"/>
      <point x="60" y="195" type="line"/>
      <point x="41" y="108" type="line"/>
      <point x="156" y="108" type="line"/>
    </contour>
  </outline>
</glyph>
<glyph name="brokenbar" format="2">
  <advance width="527"/>
  <unicode hex="00A6"/>
  <outline>
    <contour>
      <point x="208" y="359" type="line"/>
      <point x="314" y="359" type="line"/>
      <point x="314" y="757" type="line"/>
      <point x="208" y="757" type="line"/>
    </contour>
    <contour>
      <point x="208" y="-227" type="line"/>
      <point x="314" y="-227" type="line"/>
      <point x="314" y="171" type="line"/>
      <point x="208" y="171" type="line"/>
    </contour>
  </outline>
</glyph>
<glyph name="section" format="2">
  <advance width="465"/>
  <unicode hex="00A7"/>
  <outline>
    <contour>
      <point x="167" y="-10" type="curve" smooth="yes"/>
      <point x="299" y="-10"/>
      <point x="388" y="51"/>
      <point x="388" y="160" type="curve" smooth="yes"/>
      <point x="388" y="198"/>
      <point x="372" y="231"/>
      <point x="349" y="254" type="curve"/>
      <point x="395" y="283"/>
      <point x="438" y="327"/>
      <point x="438" y="402" type="curve" smooth="yes"/>
      <point x="438" y="465"/>
      <point x="404" y="511"/>
      <point x="327" y="546" type="curve" smooth="yes"/>
      <point x="273" y="571"/>
      <point x="252" y="590"/>
      <point x="252" y="617" type="curve" smooth="yes"/>
      <point x="252" y="654"/>
      <point x="277" y="669"/>
      <point x="316" y="669" type="curve" smooth="yes"/>
      <point x="371" y="669"/>
      <point x="414" y="649"/>
      <point x="447" y="628" type="curve"/>
      <point x="488" y="722" type="line"/>
      <point x="439" y="748"/>
      <point x="390" y="765"/>
      <point x="328" y="765" type="curve" smooth="yes"/>
      <point x="209" y="765"/>
      <point x="124" y="709"/>
      <point x="124" y="609" type="curve" smooth="yes"/>
      <point x="124" y="572"/>
      <point x="142" y="538"/>
      <point x="167" y="516" type="curve"/>
      <point x="109" y="479"/>
      <point x="74" y="433"/>
      <point x="74" y="368" type="curve" smooth="yes"/>
      <point x="74" y="303"/>
      <point x="116" y="258"/>
      <point x="187" y="221" type="curve" smooth="yes"/>
      <point x="240" y="193"/>
      <point x="258" y="174"/>
      <point x="258" y="148" type="curve" smooth="yes"/>
      <point x="258" y="110"/>
      <point x="232" y="85"/>
      <point x="172" y="85" type="curve" smooth="yes"/>
      <point x="113" y="85"/>
      <point x="57" y="108"/>
      <point x="12" y="136" type="curve"/>
      <point x="11" y="27" type="line"/>
      <point x="47" y="5"/>
      <point x="99" y="-10"/>
    </contour>
    <contour>
      <point x="274" y="299" type="curve"/>
      <point x="215" y="329"/>
      <point x="191" y="354"/>
      <point x="191" y="386" type="curve" smooth="yes"/>
      <point x="191" y="421"/>
      <point x="211" y="452"/>
      <point x="241" y="468" type="curve"/>
      <point x="292" y="446"/>
      <point x="320" y="418"/>
      <point x="320" y="383" type="curve" smooth="yes"/>
      <point x="320" y="343"/>
      <point x="297" y="315"/>
    </contour>
  </outline>
</glyph>
<glyph name="dieresis" format="2">
  <advance width="526"/>
  <unicode hex="00A8"/>
  <outline>
    <contour>
      <point x="442" y="621" type="curve" smooth="yes"/>
      <point x="494" y="621"/>
      <point x="516" y="653"/>
      <point x="516" y="700" type="curve" smooth="yes"/>
      <point x="516" y="739"/>
      <point x="487" y="752"/>
      <point x="455" y="752" type="curve" smooth="yes"/>
      <point x="407" y="752"/>
      <point x="380" y="725"/>
      <point x="380" y="674" type="curve" smooth="yes"/>
      <point x="380" y="635"/>
      <point x="406" y="621"/>
    </contour>
    <contour>
      <point x="255" y="621" type="curve" smooth="yes"/>
      <point x="307" y="621"/>
      <point x="330" y="653"/>
      <point x="330" y="700" type="curve" smooth="yes"/>
      <point x="330" y="739"/>
      <point x="301" y="752"/>
      <point x="268" y="752" type="curve" smooth="yes"/>
      <point x="221" y="752"/>
      <point x="193" y="725"/>
      <point x="193" y="674" type="curve" smooth="yes"/>
      <point x="193" y="635"/>
      <point x="219" y="621"/>
    </contour>
  </outline>
</glyph>
<glyph name="copyright" format="2">
  <advance width="788"/>
  <unicode hex="00A9"/>
  <outline>
    <contour>
      <point x="410" y="-10" type="curve" smooth="yes"/>
      <point x="604" y="-10"/>
      <point x="762" y="156"/>
      <point x="762" y="360" type="curve" smooth="yes"/>
      <point x="762" y="562"/>
      <point x="609" y="724"/>
      <point x="418" y="724" type="curve" smooth="yes"/>
      <point x="223" y="724"/>
      <point x="65" y="558"/>
      <point x="65" y="354" type="curve" smooth="yes"/>
      <point x="65" y="152"/>
      <point x="218" y="-10"/>
    </contour>
    <contour>
      <point x="426" y="133" type="curve" smooth="yes"/>
      <point x="472" y="133"/>
      <point x="503" y="144"/>
      <point x="534" y="157" type="curve"/>
      <point x="534" y="220" type="line"/>
      <point x="503" y="208"/>
      <point x="461" y="198"/>
      <point x="431" y="198" type="curve" smooth="yes"/>
      <point x="356" y="198"/>
      <point x="322" y="253"/>
      <point x="322" y="353" type="curve" smooth="yes"/>
      <point x="322" y="456"/>
      <point x="363" y="515"/>
      <point x="434" y="515" type="curve" smooth="yes"/>
      <point x="463" y="515"/>
      <point x="494" y="506"/>
      <point x="526" y="489" type="curve"/>
      <point x="558" y="550" type="line"/>
      <point x="520" y="569"/>
      <point x="476" y="580"/>
      <point x="434" y="580" type="curve" smooth="yes"/>
      <point x="307" y="580"/>
      <point x="238" y="487"/>
      <point x="238" y="353" type="curve" smooth="yes"/>
      <point x="238" y="221"/>
      <point x="302" y="133"/>
    </contour>
    <contour>
      <point x="410" y="43" type="curve" smooth="yes"/>
      <point x="250" y="43"/>
      <point x="120" y="183"/>
      <point x="120" y="354" type="curve" smooth="yes"/>
      <point x="120" y="528"/>
      <point x="254" y="671"/>
      <point x="417" y="671" type="curve" smooth="yes"/>
      <point x="578" y="671"/>
      <point x="708" y="531"/>
      <point x="708" y="360" type="curve" smooth="yes"/>
      <point x="708" y="186"/>
      <point x="574" y="43"/>
    </contour>
  </outline>
</glyph>
<glyph name="ordfeminine" format="2">
  <advance width="362"/>
  <unicode hex="00AA"/>
  <anchor x="199" y="367" name="bottom"/>
  <anchor x="271" y="719" name="top"/>
  <outline>
    <contour>
      <point x="173" y="365" type="curve" smooth="yes"/>
      <point x="216" y="365"/>
      <point x="246" y="385"/>
      <point x="269" y="416" type="curve"/>
      <point x="273" y="416" type="line"/>
      <point x="269" y="371" type="line"/>
      <point x="341" y="371" type="line"/>
      <point x="419" y="714" type="line"/>
      <point x="344" y="714" type="line"/>
      <point x="326" y="670" type="line"/>
      <point x="322" y="670" type="line"/>
      <point x="303" y="702"/>
      <point x="278" y="720"/>
      <point x="237" y="720" type="curve" smooth="yes"/>
      <point x="123" y="720"/>
      <point x="74" y="581"/>
      <point x="74" y="494" type="curve" smooth="yes"/>
      <point x="74" y="398"/>
      <point x="123" y="365"/>
    </contour>
    <contour>
      <point x="213" y="439" type="curve" smooth="yes"/>
      <point x="187" y="439"/>
      <point x="175" y="458"/>
      <point x="175" y="492" type="curve" smooth="yes"/>
      <point x="175" y="561"/>
      <point x="206" y="645"/>
      <point x="255" y="645" type="curve" smooth="yes"/>
      <point x="282" y="645"/>
      <point x="294" y="623"/>
      <point x="294" y="594" type="curve" smooth="yes"/>
      <point x="294" y="545"/>
      <point x="269" y="439"/>
    </contour>
  </outline>
</glyph>
<glyph name="overscore" format="2">
  <advance width="465"/>
  <unicode hex="00AF"/>
  <outline>
    <contour>
      <point x="93" y="760" type="line"/>
      <point x="564" y="760" type="line"/>
      <point x="587" y="858" type="line"/>
      <point x="116" y="858" type="line"/>
    </contour>
  </outline>
</glyph>
<glyph name="degree" format="2">
  <advance width="405"/>
  <unicode hex="00B0"/>
  <outline>
    <contour>
      <point x="243" y="387" type="curve" smooth="yes"/>
      <point x="334" y="387"/>
      <point x="407" y="462"/>
      <point x="407" y="557" type="curve" smooth="yes"/>
      <point x="407" y="649"/>
      <point x="336" y="724"/>
      <point x="246" y="724" type="curve" smooth="yes"/>
      <point x="155" y="724"/>
      <point x="82" y="647"/>
      <point x="82" y="553" type="curve" smooth="yes"/>
      <point x="82" y="460"/>
      <point x="153" y="387"/>
    </contour>
    <contour>
      <point x="244" y="480" type="curve" smooth="yes"/>
      <point x="205" y="480"/>
      <point x="174" y="514"/>
      <point x="174" y="554" type="curve" smooth="yes"/>
      <point x="174" y="597"/>
      <point x="206" y="632"/>
      <point x="245" y="632" type="curve" smooth="yes"/>
      <point x="284" y="632"/>
      <point x="315" y="597"/>
      <point x="315" y="556" type="curve" smooth="yes"/>
      <point x="315" y="514"/>
      <point x="283" y="480"/>
    </contour>
  </outline>
</glyph>
<glyph name="plusminus" format="2">
  <advance width="536"/>
  <unicode hex="00B1"/>
  <outline>
    <contour>
      <point x="77" y="0" type="line"/>
      <point x="538" y="0" type="line"/>
      <point x="538" y="107" type="line"/>
      <point x="77" y="107" type="line"/>
    </contour>
    <component base="plus" xOffset="20" yOffset="30"/>
  </outline>
</glyph>
<glyph name="twosuperior" format="2">
  <advance width="367"/>
  <unicode hex="00B2"/>
  <outline>
    <contour>
      <point x="63" y="415" type="line"/>
      <point x="368" y="415" type="line"/>
      <point x="389" y="513" type="line"/>
      <point x="231" y="513" type="line"/>
      <point x="288" y="558" type="line" smooth="yes"/>
      <point x="374" y="626"/>
      <point x="421" y="662"/>
      <point x="421" y="745" type="curve" smooth="yes"/>
      <point x="421" y="807"/>
      <point x="371" y="853"/>
      <point x="294" y="853" type="curve" smooth="yes"/>
      <point x="224" y="853"/>
      <point x="175" y="833"/>
      <point x="128" y="796" type="curve"/>
      <point x="176" y="719" type="line"/>
      <point x="209" y="746"/>
      <point x="238" y="759"/>
      <point x="264" y="759" type="curve" smooth="yes"/>
      <point x="284" y="759"/>
      <point x="301" y="746"/>
      <point x="301" y="720" type="curve" smooth="yes"/>
      <point x="301" y="682"/>
      <point x="271" y="655"/>
      <point x="209" y="603" type="curve" smooth="yes"/>
      <point x="81" y="496" type="line"/>
    </contour>
  </outline>
</glyph>
<glyph name="threesuperior" format="2">
  <advance width="367"/>
  <unicode hex="00B3"/>
  <outline>
    <contour>
      <point x="207" y="407" type="curve" smooth="yes"/>
      <point x="303" y="407"/>
      <point x="389" y="449"/>
      <point x="389" y="548" type="curve" smooth="yes"/>
      <point x="389" y="590"/>
      <point x="369" y="620"/>
      <point x="318" y="632" type="curve"/>
      <point x="318" y="636" type="line"/>
      <point x="376" y="651"/>
      <point x="421" y="681"/>
      <point x="421" y="750" type="curve" smooth="yes"/>
      <point x="421" y="803"/>
      <point x="381" y="852"/>
      <point x="289" y="852" type="curve" smooth="yes"/>
      <point x="231" y="852"/>
      <point x="186" y="837"/>
      <point x="141" y="807" type="curve"/>
      <point x="179" y="734" type="line"/>
      <point x="211" y="754"/>
      <point x="239" y="766"/>
      <point x="267" y="766" type="curve" smooth="yes"/>
      <point x="293" y="766"/>
      <point x="309" y="753"/>
      <point x="309" y="728" type="curve" smooth="yes"/>
      <point x="309" y="690"/>
      <point x="277" y="672"/>
      <point x="227" y="672" type="curve" smooth="yes"/>
      <point x="185" y="672" type="line"/>
      <point x="167" y="594" type="line"/>
      <point x="225" y="594" type="line" smooth="yes"/>
      <point x="265" y="594"/>
      <point x="278" y="575"/>
      <point x="278" y="552" type="curve" smooth="yes"/>
      <point x="278" y="512"/>
      <point x="244" y="493"/>
      <point x="199" y="493" type="curve" smooth="yes"/>
      <point x="157" y="493"/>
      <point x="117" y="506"/>
      <point x="81" y="528" type="curve"/>
      <point x="80" y="434" type="line"/>
      <point x="112" y="418"/>
      <point x="157" y="407"/>
    </contour>
  </outline>
</glyph>
<glyph name="acute" format="2">
  <advance width="324"/>
  <unicode hex="00B4"/>
  <anchor x="181" y="546" name="_top"/>
  <outline>
    <contour>
      <point x="113" y="618" type="curve"/>
      <point x="113" y="606" type="line"/>
      <point x="216" y="606" type="line"/>
      <point x="267" y="642"/>
      <point x="359" y="722"/>
      <point x="387" y="758" type="curve"/>
      <point x="387" y="766" type="line"/>
      <point x="223" y="766" type="line"/>
      <point x="192" y="719"/>
      <point x="147" y="655"/>
    </contour>
  </outline>
</glyph>
<glyph name="micro" format="2">
  <advance width="583"/>
  <unicode hex="00B5"/>
  <outline>
    <contour>
      <point x="-35" y="-240" type="line"/>
      <point x="112" y="-240" type="line"/>
      <point x="145" y="-84" type="line" smooth="yes"/>
      <point x="152" y="-51"/>
      <point x="158" y="-8"/>
      <point x="162" y="23" type="curve"/>
      <point x="167" y="23" type="line"/>
      <point x="178" y="5"/>
      <point x="202" y="-10"/>
      <point x="233" y="-10" type="curve" smooth="yes"/>
      <point x="281" y="-10"/>
      <point x="319" y="25"/>
      <point x="351" y="86" type="curve"/>
      <point x="356" y="86" type="line"/>
      <point x="348" y="0" type="line"/>
      <point x="458" y="0" type="line"/>
      <point x="574" y="546" type="line"/>
      <point x="426" y="546" type="line"/>
      <point x="377" y="317" type="line" smooth="yes"/>
      <point x="353" y="206"/>
      <point x="316" y="109"/>
      <point x="253" y="109" type="curve" smooth="yes"/>
      <point x="226" y="109"/>
      <point x="205" y="131"/>
      <point x="205" y="169" type="curve" smooth="yes"/>
      <point x="205" y="185"/>
      <point x="209" y="207"/>
      <point x="214" y="231" type="curve" smooth="yes"/>
      <point x="280" y="546" type="line"/>
      <point x="132" y="546" type="line"/>
    </contour>
  </outline>
</glyph>
<glyph name="paragraph" format="2">
  <advance width="620"/>
  <unicode hex="00B6"/>
  <outline>
    <contour>
      <point x="328" y="273" type="curve"/>
      <point x="328" y="-127" type="line"/>
      <point x="405" y="-127" type="line"/>
      <point x="405" y="662" type="line"/>
      <point x="481" y="662" type="line"/>
      <point x="481" y="-127" type="line"/>
      <point x="559" y="-127" type="line"/>
      <point x="559" y="760" type="line"/>
      <point x="282" y="760" type="line" smooth="yes"/>
      <point x="156" y="760"/>
      <point x="70" y="699"/>
      <point x="70" y="503" type="curve" smooth="yes"/>
      <point x="70" y="325"/>
      <point x="146" y="264"/>
      <point x="262" y="264" type="curve" smooth="yes"/>
      <point x="289" y="264"/>
      <point x="309" y="267"/>
    </contour>
  </outline>
</glyph>
<glyph name="cedilla" format="2">
  <advance width="191"/>
  <unicode hex="00B8"/>
  <outline>
    <contour>
      <point x="-26" y="-240" type="curve" smooth="yes"/>
      <point x="76" y="-240"/>
      <point x="122" y="-188"/>
      <point x="122" y="-121" type="curve" smooth="yes"/>
      <point x="122" y="-73"/>
      <point x="92" y="-48"/>
      <point x="54" y="-35" type="curve"/>
      <point x="71" y="0" type="line"/>
      <point x="-16" y="0" type="line"/>
      <point x="-60" y="-75" type="line"/>
      <point x="-10" y="-81"/>
      <point x="6" y="-96"/>
      <point x="6" y="-118" type="curve" smooth="yes"/>
      <point x="6" y="-144"/>
      <point x="-10" y="-158"/>
      <point x="-39" y="-158" type="curve" smooth="yes"/>
      <point x="-59" y="-158"/>
      <point x="-84" y="-152"/>
      <point x="-99" y="-147" type="curve"/>
      <point x="-100" y="-229" type="line"/>
      <point x="-84" y="-234"/>
      <point x="-57" y="-240"/>
    </contour>
  </outline>
</glyph>
<glyph name="onesuperior" format="2">
  <advance width="367"/>
  <unicode hex="00B9"/>
  <outline>
    <contour>
      <point x="218" y="609" type="curve" smooth="yes"/>
      <point x="177" y="415" type="line"/>
      <point x="297" y="415" type="line"/>
      <point x="388" y="843" type="line"/>
      <point x="288" y="843" type="line"/>
      <point x="99" y="722" type="line"/>
      <point x="148" y="641" type="line"/>
      <point x="208" y="681" type="line" smooth="yes"/>
      <point x="216" y="687"/>
      <point x="232" y="700"/>
      <point x="244" y="710" type="curve"/>
      <point x="237" y="687"/>
      <point x="226" y="650"/>
    </contour>
  </outline>
</glyph>
<glyph name="ordmasculine" format="2">
  <advance width="355"/>
  <unicode hex="00BA"/>
  <anchor x="200" y="366" name="bottom"/>
  <anchor x="266" y="721" name="top"/>
  <outline>
    <contour>
      <point x="210" y="365" type="curve" smooth="yes"/>
      <point x="348" y="365"/>
      <point x="392" y="497"/>
      <point x="392" y="583" type="curve" smooth="yes"/>
      <point x="392" y="662"/>
      <point x="353" y="720"/>
      <point x="266" y="720" type="curve" smooth="yes"/>
      <point x="145" y="720"/>
      <point x="83" y="619"/>
      <point x="83" y="503" type="curve" smooth="yes"/>
      <point x="83" y="416"/>
      <point x="127" y="365"/>
    </contour>
    <contour>
      <point x="220" y="445" type="curve" smooth="yes"/>
      <point x="198" y="445"/>
      <point x="185" y="462"/>
      <point x="185" y="498" type="curve" smooth="yes"/>
      <point x="185" y="556"/>
      <point x="210" y="640"/>
      <point x="255" y="640" type="curve" smooth="yes"/>
      <point x="277" y="640"/>
      <point x="289" y="623"/>
      <point x="289" y="589" type="curve" smooth="yes"/>
      <point x="289" y="527"/>
      <point x="266" y="445"/>
    </contour>
  </outline>
</glyph>
<glyph name="AE" format="2">
  <advance width="859"/>
  <unicode hex="00C6"/>
  <anchor x="375" y="0" name="bottom"/>
  <anchor x="550" y="714" name="top"/>
  <outline>
    <contour>
      <point x="-57" y="0" type="line"/>
      <point x="102" y="0" type="line"/>
      <point x="202" y="170" type="line"/>
      <point x="399" y="170" type="line"/>
      <point x="364" y="0" type="line"/>
      <point x="747" y="0" type="line"/>
      <point x="775" y="125" type="line"/>
      <point x="540" y="125" type="line"/>
      <point x="577" y="309" type="line"/>
      <point x="796" y="309" type="line"/>
      <point x="824" y="433" type="line"/>
      <point x="606" y="433" type="line"/>
      <point x="637" y="590" type="line"/>
      <point x="871" y="590" type="line"/>
      <point x="898" y="714" type="line"/>
      <point x="377" y="714" type="line"/>
    </contour>
    <contour>
      <point x="282" y="297" type="line"/>
      <point x="452" y="590" type="line"/>
      <point x="488" y="590" type="line"/>
      <point x="427" y="297" type="line"/>
    </contour>
  </outline>
</glyph>
<glyph name="multiply" format="2">
  <advance width="534"/>
  <unicode hex="00D7"/>
  <outline>
    <contour>
      <point x="418" y="575" type="line"/>
      <point x="285" y="429" type="line"/>
      <point x="154" y="575" type="line"/>
      <point x="77" y="500" type="line"/>
      <point x="207" y="353" type="line"/>
      <point x="78" y="206" type="line"/>
      <point x="154" y="132" type="line"/>
      <point x="285" y="278" type="line"/>
      <point x="418" y="131" type="line"/>
      <point x="494" y="205" type="line"/>
      <point x="363" y="353" type="line"/>
      <point x="496" y="502" type="line"/>
    </contour>
  </outline>
</glyph>
<glyph name="Oslash" format="2">
  <advance width="694"/>
  <unicode hex="00D8"/>
  <anchor x="283" y="-42" name="bottom"/>
  <anchor x="452" y="752" name="top"/>
  <outline>
    <contour>
      <point x="117" y="-42" type="line"/>
      <point x="168" y="25" type="line"/>
      <point x="206" y="2"/>
      <point x="253" y="-10"/>
      <point x="310" y="-10" type="curve" smooth="yes"/>
      <point x="559" y="-10"/>
      <point x="670" y="229"/>
      <point x="670" y="462" type="curve" smooth="yes"/>
      <point x="670" y="525"/>
      <point x="657" y="580"/>
      <point x="629" y="624" type="curve"/>
      <point x="682" y="695" type="line"/>
      <point x="612" y="752" type="line"/>
      <point x="564" y="688" type="line"/>
      <point x="527" y="712"/>
      <point x="479" y="725"/>
      <point x="422" y="725" type="curve" smooth="yes"/>
      <point x="173" y="725"/>
      <point x="58" y="481"/>
      <point x="58" y="258" type="curve" smooth="yes"/>
      <point x="58" y="191"/>
      <point x="73" y="132"/>
      <point x="102" y="88" type="curve"/>
      <point x="46" y="14" type="line"/>
    </contour>
    <contour>
      <point x="323" y="114" type="curve" smooth="yes"/>
      <point x="296" y="114"/>
      <point x="272" y="121"/>
      <point x="255" y="132" type="curve"/>
      <point x="522" y="493" type="line"/>
      <point x="522" y="483"/>
      <point x="523" y="467"/>
      <point x="523" y="456" type="curve" smooth="yes"/>
      <point x="523" y="252"/>
      <point x="435" y="114"/>
    </contour>
    <contour>
      <point x="478" y="581" type="curve"/>
      <point x="209" y="213" type="line"/>
      <point x="207" y="229"/>
      <point x="206" y="246"/>
      <point x="206" y="260" type="curve" smooth="yes"/>
      <point x="206" y="442"/>
      <point x="287" y="602"/>
      <point x="408" y="602" type="curve" smooth="yes"/>
      <point x="437" y="602"/>
      <point x="461" y="593"/>
    </contour>
  </outline>
</glyph>
<glyph name="Thorn" format="2">
  <advance width="579"/>
  <unicode hex="00DE"/>
  <anchor x="234" y="0" name="bottom"/>
  <anchor x="386" y="714" name="top"/>
  <outline>
    <contour>
      <point x="23" y="0" type="line"/>
      <point x="172" y="0" type="line"/>
      <point x="202" y="143" type="line"/>
      <point x="260" y="143" type="line" smooth="yes"/>
      <point x="431" y="143"/>
      <point x="559" y="225"/>
      <point x="559" y="397" type="curve" smooth="yes"/>
      <point x="559" y="519"/>
      <point x="497" y="602"/>
      <point x="333" y="602" type="curve" smooth="yes"/>
      <point x="300" y="602" type="line"/>
      <point x="323" y="714" type="line"/>
      <point x="174" y="714" type="line"/>
    </contour>
    <contour>
      <point x="275" y="267" type="curve" smooth="yes"/>
      <point x="230" y="267" type="line"/>
      <point x="273" y="478" type="line"/>
      <point x="323" y="478" type="line" smooth="yes"/>
      <point x="380" y="478"/>
      <point x="409" y="450"/>
      <point x="409" y="392" type="curve" smooth="yes"/>
      <point x="409" y="313"/>
      <point x="355" y="267"/>
    </contour>
  </outline>
</glyph>
<glyph name="germandbls" format="2">
  <advance width="635"/>
  <unicode hex="00DF"/>
  <anchor x="212" y="-240" name="bottom"/>
  <anchor x="426" y="765" name="top"/>
  <outline>
    <contour>
      <point x="-45" y="-240" type="curve" smooth="yes"/>
      <point x="79" y="-240"/>
      <point x="132" y="-164"/>
      <point x="155" y="-55" type="curve" smooth="yes"/>
      <point x="279" y="540" type="line" smooth="yes"/>
      <point x="291" y="598"/>
      <point x="319" y="649"/>
      <point x="390" y="649" type="curve" smooth="yes"/>
      <point x="443" y="649"/>
      <point x="465" y="623"/>
      <point x="465" y="584" type="curve" smooth="yes"/>
      <point x="465" y="546"/>
      <point x="441" y="524"/>
      <point x="398" y="499" type="curve" smooth="yes"/>
      <point x="339" y="465"/>
      <point x="301" y="432"/>
      <point x="301" y="365" type="curve" smooth="yes"/>
      <point x="301" y="314"/>
      <point x="325" y="280"/>
      <point x="376" y="241" type="curve" smooth="yes"/>
      <point x="425" y="203"/>
      <point x="438" y="185"/>
      <point x="438" y="158" type="curve" smooth="yes"/>
      <point x="438" y="123"/>
      <point x="412" y="99"/>
      <point x="354" y="99" type="curve" smooth="yes"/>
      <point x="311" y="99"/>
      <point x="267" y="115"/>
      <point x="233" y="137" type="curve"/>
      <point x="232" y="20" type="line"/>
      <point x="265" y="0"/>
      <point x="309" y="-10"/>
      <point x="367" y="-10" type="curve" smooth="yes"/>
      <point x="515" y="-10"/>
      <point x="587" y="68"/>
      <point x="587" y="173" type="curve" smooth="yes"/>
      <point x="587" y="239"/>
      <point x="556" y="278"/>
      <point x="508" y="318" type="curve" smooth="yes"/>
      <point x="473" y="347"/>
      <point x="457" y="361"/>
      <point x="457" y="376" type="curve" smooth="yes"/>
      <point x="457" y="401"/>
      <point x="475" y="416"/>
      <point x="512" y="437" type="curve" smooth="yes"/>
      <point x="583" y="477"/>
      <point x="618" y="521"/>
      <point x="618" y="606" type="curve" smooth="yes"/>
      <point x="618" y="702"/>
      <point x="539" y="765"/>
      <point x="404" y="765" type="curve" smooth="yes"/>
      <point x="241" y="765"/>
      <point x="164" y="698"/>
      <point x="134" y="556" type="curve" smooth="yes"/>
      <point x="11" y="-33" type="line" smooth="yes"/>
      <point x="-2" y="-96"/>
      <point x="-29" y="-120"/>
      <point x="-68" y="-120" type="curve" smooth="yes"/>
      <point x="-86" y="-120"/>
      <point x="-102" y="-117"/>
      <point x="-122" y="-110" type="curve"/>
      <point x="-123" y="-228" type="line"/>
      <point x="-104" y="-235"/>
      <point x="-70" y="-240"/>
    </contour>
  </outline>
</glyph>
<glyph name="ae" format="2">
  <advance width="828"/>
  <unicode hex="00E6"/>
  <anchor x="359" y="0" name="bottom"/>
  <anchor x="475" y="546" name="top"/>
  <outline>
    <contour>
      <point x="185" y="-10" type="curve" smooth="yes"/>
      <point x="250" y="-10"/>
      <point x="290" y="23"/>
      <point x="326" y="71" type="curve"/>
      <point x="331" y="71" type="line"/>
      <point x="324" y="0" type="line"/>
      <point x="414" y="0" type="line"/>
      <point x="424" y="46" type="line"/>
      <point x="451" y="7"/>
      <point x="493" y="-10"/>
      <point x="558" y="-10" type="curve" smooth="yes"/>
      <point x="622" y="-10"/>
      <point x="678" y="8"/>
      <point x="727" y="32" type="curve"/>
      <point x="728" y="143" type="line"/>
      <point x="684" y="120"/>
      <point x="629" y="101"/>
      <point x="581" y="101" type="curve" smooth="yes"/>
      <point x="511" y="101"/>
      <point x="487" y="145"/>
      <point x="487" y="197" type="curve" smooth="yes"/>
      <point x="487" y="205"/>
      <point x="487" y="209"/>
      <point x="488" y="217" type="curve"/>
      <point x="512" y="217" type="line" smooth="yes"/>
      <point x="714" y="217"/>
      <point x="809" y="293"/>
      <point x="809" y="409" type="curve" smooth="yes"/>
      <point x="809" y="495"/>
      <point x="753" y="556"/>
      <point x="654" y="556" type="curve" smooth="yes"/>
      <point x="602" y="556"/>
      <point x="551" y="537"/>
      <point x="521" y="502" type="curve"/>
      <point x="528" y="546" type="line"/>
      <point x="439" y="546" type="line"/>
      <point x="412" y="476" type="line"/>
      <point x="408" y="476" type="line"/>
      <point x="380" y="528"/>
      <point x="347" y="556"/>
      <point x="284" y="556" type="curve" smooth="yes"/>
      <point x="139" y="556"/>
      <point x="43" y="376"/>
      <point x="43" y="184" type="curve" smooth="yes"/>
      <point x="43" y="58"/>
      <point x="102" y="-10"/>
    </contour>
    <contour>
      <point x="245" y="109" type="curve" smooth="yes"/>
      <point x="216" y="109"/>
      <point x="192" y="133"/>
      <point x="192" y="193" type="curve" smooth="yes"/>
      <point x="192" y="308"/>
      <point x="242" y="437"/>
      <point x="309" y="437" type="curve" smooth="yes"/>
      <point x="348" y="437"/>
      <point x="367" y="404"/>
      <point x="367" y="353" type="curve" smooth="yes"/>
      <point x="367" y="322"/>
      <point x="363" y="290"/>
      <point x="356" y="259" type="curve" smooth="yes"/>
      <point x="337" y="176"/>
      <point x="297" y="109"/>
    </contour>
    <contour>
      <point x="524" y="316" type="curve" smooth="yes"/>
      <point x="504" y="316" type="line"/>
      <point x="520" y="395"/>
      <point x="572" y="450"/>
      <point x="623" y="450" type="curve" smooth="yes"/>
      <point x="652" y="450"/>
      <point x="669" y="435"/>
      <point x="669" y="405" type="curve" smooth="yes"/>
      <point x="669" y="357"/>
      <point x="627" y="316"/>
    </contour>
  </outline>
</glyph>
<glyph name="eth" format="2">
  <advance width="545"/>
  <unicode hex="00F0"/>
  <anchor x="218" y="0" name="bottom"/>
  <anchor x="381" y="765" name="top"/>
  <outline>
    <contour>
      <point x="238" y="-10" type="curve" smooth="yes"/>
      <point x="438" y="-10"/>
      <point x="520" y="176"/>
      <point x="520" y="394" type="curve" smooth="yes"/>
      <point x="520" y="489"/>
      <point x="501" y="568"/>
      <point x="454" y="635" type="curve"/>
      <point x="543" y="687" type="line"/>
      <point x="508" y="761" type="line"/>
      <point x="397" y="697" type="line"/>
      <point x="370" y="720"/>
      <point x="332" y="745"/>
      <point x="291" y="765" type="curve"/>
      <point x="235" y="674" type="line"/>
      <point x="256" y="662"/>
      <point x="276" y="650"/>
      <point x="290" y="635" type="curve"/>
      <point x="195" y="580" type="line"/>
      <point x="234" y="508" type="line"/>
      <point x="346" y="572" type="line"/>
      <point x="378" y="536"/>
      <point x="392" y="479"/>
      <point x="396" y="425" type="curve"/>
      <point x="391" y="425" type="line"/>
      <point x="370" y="457"/>
      <point x="335" y="486"/>
      <point x="275" y="486" type="curve" smooth="yes"/>
      <point x="125" y="486"/>
      <point x="36" y="350"/>
      <point x="36" y="195" type="curve" smooth="yes"/>
      <point x="36" y="50"/>
      <point x="119" y="-10"/>
    </contour>
    <contour>
      <point x="248" y="100" type="curve" smooth="yes"/>
      <point x="206" y="100"/>
      <point x="184" y="131"/>
      <point x="184" y="182" type="curve" smooth="yes"/>
      <point x="184" y="273"/>
      <point x="221" y="376"/>
      <point x="296" y="376" type="curve" smooth="yes"/>
      <point x="338" y="376"/>
      <point x="358" y="341"/>
      <point x="358" y="295" type="curve" smooth="yes"/>
      <point x="358" y="203"/>
      <point x="315" y="100"/>
    </contour>
  </outline>
</glyph>
<glyph name="divide" format="2">
  <advance width="536"/>
  <unicode hex="00F7"/>
  <outline>
    <contour>
      <point x="57" y="299" type="line"/>
      <point x="518" y="299" type="line"/>
      <point x="518" y="406" type="line"/>
      <point x="57" y="406" type="line"/>
    </contour>
    <contour>
      <point x="287" y="108" type="curve" smooth="yes"/>
      <point x="323" y="108"/>
      <point x="355" y="130"/>
      <point x="355" y="182" type="curve" smooth="yes"/>
      <point x="355" y="237"/>
      <point x="323" y="256"/>
      <point x="287" y="256" type="curve" smooth="yes"/>
      <point x="250" y="256"/>
      <point x="219" y="237"/>
      <point x="219" y="182" type="curve" smooth="yes"/>
      <point x="219" y="130"/>
      <point x="250" y="108"/>
    </contour>
    <contour>
      <point x="287" y="449" type="curve" smooth="yes"/>
      <point x="323" y="449"/>
      <point x="355" y="471"/>
      <point x="355" y="523" type="curve" smooth="yes"/>
      <point x="355" y="578"/>
      <point x="323" y="597"/>
      <point x="287" y="597" type="curve" smooth="yes"/>
      <point x="250" y="597"/>
      <point x="219" y="578"/>
      <point x="219" y="523" type="curve" smooth="yes"/>
      <point x="219" y="471"/>
      <point x="250" y="449"/>
    </contour>
  </outline>
</glyph>
<glyph name="oslash" format="2">
  <advance width="564"/>
  <unicode hex="00F8"/>
  <anchor x="216" y="-50" name="bottom"/>
  <anchor x="349" y="572" name="top"/>
  <outline>
    <contour>
      <point x="86" y="-50" type="line"/>
      <point x="138" y="16" type="line"/>
      <point x="167" y="0"/>
      <point x="203" y="-10"/>
      <point x="243" y="-10" type="curve" smooth="yes"/>
      <point x="435" y="-10"/>
      <point x="526" y="158"/>
      <point x="526" y="343" type="curve" smooth="yes"/>
      <point x="526" y="392"/>
      <point x="515" y="434"/>
      <point x="495" y="467" type="curve"/>
      <point x="537" y="518" type="line"/>
      <point x="471" y="572" type="line"/>
      <point x="436" y="529" type="line"/>
      <point x="406" y="547"/>
      <point x="370" y="556"/>
      <point x="328" y="556" type="curve" smooth="yes"/>
      <point x="139" y="556"/>
      <point x="43" y="390"/>
      <point x="43" y="197" type="curve" smooth="yes"/>
      <point x="43" y="150"/>
      <point x="55" y="108"/>
      <point x="77" y="75" type="curve"/>
      <point x="22" y="3" type="line"/>
    </contour>
    <contour>
      <point x="257" y="105" type="curve" smooth="yes"/>
      <point x="241" y="105"/>
      <point x="226" y="111"/>
      <point x="218" y="116" type="curve"/>
      <point x="383" y="333" type="line"/>
      <point x="383" y="327"/>
      <point x="383" y="320"/>
      <point x="382" y="313" type="curve" smooth="yes"/>
      <point x="371" y="229"/>
      <point x="337" y="105"/>
    </contour>
    <contour>
      <point x="355" y="429" type="curve"/>
      <point x="186" y="208" type="line"/>
      <point x="186" y="216"/>
      <point x="186" y="224"/>
      <point x="187" y="232" type="curve" smooth="yes"/>
      <point x="197" y="321"/>
      <point x="231" y="441"/>
      <point x="315" y="441" type="curve" smooth="yes"/>
      <point x="331" y="441"/>
      <point x="347" y="435"/>
    </contour>
  </outline>
</glyph>
<glyph name="thorn" format="2">
  <advance width="567"/>
  <unicode hex="00FE"/>
  <anchor x="178" y="-240" name="bottom"/>
  <anchor x="390" y="760" name="top"/>
  <outline>
    <contour>
      <point x="-35" y="-240" type="line"/>
      <point x="111" y="-240" type="line"/>
      <point x="146" y="-74" type="line" smooth="yes"/>
      <point x="157" y="-24"/>
      <point x="164" y="17"/>
      <point x="168" y="70" type="curve"/>
      <point x="172" y="70" type="line"/>
      <point x="196" y="25"/>
      <point x="232" y="-10"/>
      <point x="293" y="-10" type="curve" smooth="yes"/>
      <point x="450" y="-10"/>
      <point x="530" y="200"/>
      <point x="530" y="361" type="curve" smooth="yes"/>
      <point x="530" y="493"/>
      <point x="471" y="556"/>
      <point x="385" y="556" type="curve" smooth="yes"/>
      <point x="338" y="556"/>
      <point x="296" y="528"/>
      <point x="258" y="473" type="curve"/>
      <point x="254" y="473" type="line"/>
      <point x="265" y="511"/>
      <point x="284" y="568"/>
      <point x="293" y="610" type="curve" smooth="yes"/>
      <point x="324" y="760" type="line"/>
      <point x="177" y="760" type="line"/>
    </contour>
    <contour>
      <point x="262" y="109" type="curve" smooth="yes"/>
      <point x="221" y="109"/>
      <point x="203" y="142"/>
      <point x="203" y="193" type="curve" smooth="yes"/>
      <point x="203" y="218"/>
      <point x="205" y="246"/>
      <point x="210" y="273" type="curve" smooth="yes"/>
      <point x="226" y="359"/>
      <point x="265" y="437"/>
      <point x="321" y="437" type="curve" smooth="yes"/>
      <point x="358" y="437"/>
      <point x="381" y="409"/>
      <point x="381" y="353" type="curve" smooth="yes"/>
      <point x="381" y="238"/>
      <point x="331" y="109"/>
    </contour>
  </outline>
</glyph>
<glyph name="dcroat" format="2">
  <advance width="566"/>
  <unicode hex="0111"/>
  <anchor x="228" y="0" name="bottom"/>
  <anchor x="389" y="760" name="top"/>
  <outline>
    <contour>
      <point x="192" y="-10" type="curve" smooth="yes"/>
      <point x="260" y="-10"/>
      <point x="299" y="28"/>
      <point x="332" y="71" type="curve"/>
      <point x="336" y="71" type="line"/>
      <point x="329" y="0" type="line"/>
      <point x="441" y="0" type="line"/>
      <point x="563" y="584" type="line"/>
      <point x="636" y="584" type="line"/>
      <point x="657" y="681" type="line"/>
      <point x="585" y="681" type="line"/>
      <point x="602" y="760" type="line"/>
      <point x="454" y="760" type="line"/>
      <point x="438" y="681" type="line"/>
      <point x="305" y="681" type="line"/>
      <point x="285" y="584" type="line"/>
      <point x="418" y="584" type="line"/>
      <point x="410" y="540" type="line" smooth="yes"/>
      <point x="405" y="511"/>
      <point x="400" y="471"/>
      <point x="400" y="453" type="curve"/>
      <point x="396" y="453" type="line"/>
      <point x="374" y="495"/>
      <point x="340" y="526"/>
      <point x="278" y="526" type="curve" smooth="yes"/>
      <point x="123" y="526"/>
      <point x="43" y="333"/>
      <point x="43" y="185" type="curve" smooth="yes"/>
      <point x="43" y="53"/>
      <point x="107" y="-10"/>
    </contour>
    <contour>
      <point x="252" y="109" type="curve" smooth="yes"/>
      <point x="215" y="109"/>
      <point x="192" y="137"/>
      <point x="192" y="193" type="curve" smooth="yes"/>
      <point x="192" y="294"/>
      <point x="239" y="407"/>
      <point x="309" y="407" type="curve" smooth="yes"/>
      <point x="350" y="407"/>
      <point x="368" y="377"/>
      <point x="368" y="331" type="curve" smooth="yes"/>
      <point x="368" y="245"/>
      <point x="326" y="109"/>
    </contour>
  </outline>
</glyph>
<glyph name="Hbar" format="2">
  <advance width="668"/>
  <unicode hex="0126"/>
  <anchor x="279" y="0" name="bottom"/>
  <anchor x="431" y="714" name="top"/>
  <outline>
    <contour>
      <point x="23" y="0" type="line"/>
      <point x="172" y="0" type="line"/>
      <point x="236" y="308" type="line"/>
      <point x="444" y="308" type="line"/>
      <point x="380" y="0" type="line"/>
      <point x="529" y="0" type="line"/>
      <point x="639" y="522" type="line"/>
      <point x="722" y="522" type="line"/>
      <point x="743" y="619" type="line"/>
      <point x="661" y="619" type="line"/>
      <point x="680" y="714" type="line"/>
      <point x="531" y="714" type="line"/>
      <point x="512" y="619" type="line"/>
      <point x="304" y="619" type="line"/>
      <point x="323" y="714" type="line"/>
      <point x="174" y="714" type="line"/>
      <point x="155" y="619" type="line"/>
      <point x="72" y="619" type="line"/>
      <point x="52" y="522" type="line"/>
      <point x="133" y="522" type="line"/>
    </contour>
    <contour>
      <point x="265" y="434" type="line"/>
      <point x="282" y="522" type="line"/>
      <point x="490" y="522" type="line"/>
      <point x="473" y="434" type="line"/>
    </contour>
  </outline>
</glyph>
<glyph name="hbar" format="2">
  <advance width="577"/>
  <unicode hex="0127"/>
  <anchor x="233" y="0" name="bottom"/>
  <anchor x="395" y="760" name="top"/>
  <outline>
    <contour>
      <point x="16" y="0" type="line"/>
      <point x="163" y="0" type="line"/>
      <point x="205" y="196" type="line" smooth="yes"/>
      <point x="230" y="312"/>
      <point x="273" y="407"/>
      <point x="332" y="407" type="curve" smooth="yes"/>
      <point x="363" y="407"/>
      <point x="378" y="388"/>
      <point x="378" y="348" type="curve" smooth="yes"/>
      <point x="378" y="332"/>
      <point x="375" y="312"/>
      <point x="370" y="289" type="curve"/>
      <point x="310" y="0" type="line"/>
      <point x="458" y="0" type="line"/>
      <point x="515" y="281" type="line"/>
      <point x="523" y="315"/>
      <point x="527" y="346"/>
      <point x="527" y="372" type="curve" smooth="yes"/>
      <point x="527" y="466"/>
      <point x="484" y="526"/>
      <point x="394" y="526" type="curve" smooth="yes"/>
      <point x="334" y="526"/>
      <point x="289" y="493"/>
      <point x="252" y="443" type="curve"/>
      <point x="248" y="443" type="line"/>
      <point x="257" y="470"/>
      <point x="273" y="523"/>
      <point x="287" y="584" type="curve"/>
      <point x="423" y="584" type="line"/>
      <point x="444" y="681" type="line"/>
      <point x="308" y="681" type="line"/>
      <point x="324" y="760" type="line"/>
      <point x="177" y="760" type="line"/>
      <point x="160" y="681" type="line"/>
      <point x="85" y="681" type="line"/>
      <point x="64" y="584" type="line"/>
      <point x="139" y="584" type="line"/>
    </contour>
  </outline>
</glyph>
<glyph name="idotless" format="2">
  <advance width="287"/>
  <unicode hex="0131"/>
  <anchor x="89" y="0" name="bottom"/>
  <anchor x="205" y="546" name="top"/>
  <outline>
    <contour>
      <point x="16" y="0" type="line"/>
      <point x="163" y="0" type="line"/>
      <point x="279" y="546" type="line"/>
      <point x="132" y="546" type="line"/>
    </contour>
  </outline>
</glyph>
<glyph name="kgreenlandic" format="2">
  <advance width="548"/>
  <unicode hex="0138"/>
  <anchor x="219" y="0" name="bottom"/>
  <anchor x="335" y="546" name="top"/>
  <outline>
    <contour>
      <point x="16" y="0" type="line"/>
      <point x="163" y="0" type="line"/>
      <point x="199" y="170" type="line"/>
      <point x="253" y="205" type="line"/>
      <point x="332" y="0" type="line"/>
      <point x="497" y="0" type="line"/>
      <point x="369" y="300" type="line"/>
      <point x="601" y="546" type="line"/>
      <point x="433" y="546" type="line"/>
      <point x="225" y="311" type="line"/>
      <point x="221" y="311" type="line"/>
      <point x="232" y="346"/>
      <point x="244" y="391"/>
      <point x="252" y="426" type="curve" smooth="yes"/>
      <point x="279" y="546" type="line"/>
      <point x="132" y="546" type="line"/>
    </contour>
  </outline>
</glyph>
<glyph name="Lslash" format="2">
  <advance width="496"/>
  <unicode hex="0141"/>
  <anchor x="193" y="0" name="bottom"/>
  <anchor x="345" y="714" name="top"/>
  <outline>
    <contour>
      <point x="26" y="0" type="line"/>
      <point x="409" y="0" type="line"/>
      <point x="436" y="125" type="line"/>
      <point x="201" y="125" type="line"/>
      <point x="243" y="324" type="line"/>
      <point x="394" y="406" type="line"/>
      <point x="343" y="505" type="line"/>
      <point x="275" y="467" type="line"/>
      <point x="325" y="714" type="line"/>
      <point x="177" y="714" type="line"/>
      <point x="107" y="377" type="line"/>
      <point x="-1" y="319" type="line"/>
      <point x="47" y="220" type="line"/>
      <point x="76" y="235" type="line"/>
    </contour>
  </outline>
</glyph>
<glyph name="lslash" format="2">
  <advance width="316"/>
  <unicode hex="0142"/>
  <anchor x="103" y="0" name="bottom"/>
  <anchor x="264" y="760" name="top"/>
  <outline>
    <contour>
      <point x="29" y="0" type="line"/>
      <point x="174" y="0" type="line"/>
      <point x="240" y="315" type="line"/>
      <point x="352" y="376" type="line"/>
      <point x="302" y="475" type="line"/>
      <point x="271" y="457" type="line"/>
      <point x="335" y="760" type="line"/>
      <point x="190" y="760" type="line"/>
      <point x="106" y="370" type="line"/>
      <point x="-1" y="311" type="line"/>
      <point x="46" y="212" type="line"/>
      <point x="76" y="228" type="line"/>
    </contour>
  </outline>
</glyph>
<glyph name="Eng" format="2">
  <advance width="723"/>
  <unicode hex="014A"/>
  <anchor x="261" y="-210" name="bottom"/>
  <anchor x="459" y="714" name="top"/>
  <outline>
    <contour>
      <point x="337" y="-210" type="curve" smooth="yes"/>
      <point x="468" y="-210"/>
      <point x="554" y="-145"/>
      <point x="585" y="0" type="curve" smooth="yes"/>
      <point x="736" y="714" type="line"/>
      <point x="602" y="714" type="line"/>
      <point x="540" y="427" type="line" smooth="yes"/>
      <point x="526" y="363"/>
      <point x="513" y="275"/>
      <point x="507" y="233" type="curve"/>
      <point x="502" y="233" type="line"/>
      <point x="336" y="714" type="line"/>
      <point x="174" y="714" type="line"/>
      <point x="23" y="0" type="line"/>
      <point x="156" y="0" type="line"/>
      <point x="226" y="336" type="line" smooth="yes"/>
      <point x="240" y="404"/>
      <point x="257" y="525"/>
      <point x="259" y="540" type="curve"/>
      <point x="263" y="540" type="line"/>
      <point x="448" y="0" type="line"/>
      <point x="428" y="-65"/>
      <point x="390" y="-91"/>
      <point x="325" y="-91" type="curve" smooth="yes"/>
      <point x="296" y="-91"/>
      <point x="271" y="-86"/>
      <point x="248" y="-80" type="curve"/>
      <point x="247" y="-198" type="line"/>
      <point x="268" y="-205"/>
      <point x="299" y="-210"/>
    </contour>
  </outline>
</glyph>
<glyph name="eng" format="2">
  <advance width="577"/>
  <unicode hex="014B"/>
  <anchor x="182" y="-240" name="bottom"/>
  <anchor x="350" y="546" name="top"/>
  <anchor x="615" y="546" name="topright"/>
  <outline>
    <contour>
      <point x="252" y="-240" type="curve"/>
      <point x="371" y="-240"/>
      <point x="424" y="-161"/>
      <point x="446" y="-57" type="curve" smooth="yes"/>
      <point x="522" y="311" type="line"/>
      <point x="529" y="345"/>
      <point x="534" y="376"/>
      <point x="534" y="402" type="curve" smooth="yes"/>
      <point x="534" y="496"/>
      <point x="490" y="556"/>
      <point x="400" y="556" type="curve" smooth="yes"/>
      <point x="329" y="556"/>
      <point x="278" y="510"/>
      <point x="239" y="445" type="curve"/>
      <point x="235" y="445" type="line"/>
      <point x="245" y="546" type="line"/>
      <point x="132" y="546" type="line"/>
      <point x="16" y="0" type="line"/>
      <point x="163" y="0" type="line"/>
      <point x="212" y="226" type="line" smooth="yes"/>
      <point x="237" y="342"/>
      <point x="280" y="437"/>
      <point x="338" y="437" type="curve" smooth="yes"/>
      <point x="368" y="437"/>
      <point x="385" y="418"/>
      <point x="385" y="378" type="curve" smooth="yes"/>
      <point x="385" y="362"/>
      <point x="382" y="342"/>
      <point x="377" y="319" type="curve" smooth="yes"/>
      <point x="303" y="-37" type="line" smooth="yes"/>
      <point x="291" y="-95"/>
      <point x="260" y="-120"/>
      <point x="222" y="-120" type="curve" smooth="yes"/>
      <point x="205" y="-120"/>
      <point x="190" y="-117"/>
      <point x="169" y="-110" type="curve"/>
      <point x="168" y="-228" type="line"/>
      <point x="188" y="-235"/>
      <point x="221" y="-240"/>
    </contour>
  </outline>
</glyph>
<glyph name="OE" format="2">
  <advance width="861"/>
  <unicode hex="0152"/>
  <anchor x="376" y="0" name="bottom"/>
  <anchor x="528" y="714" name="top"/>
  <outline>
    <contour>
      <point x="307" y="-10" type="curve" smooth="yes"/>
      <point x="337" y="-10"/>
      <point x="366" y="-6"/>
      <point x="392" y="0" type="curve"/>
      <point x="749" y="0" type="line"/>
      <point x="776" y="125" type="line"/>
      <point x="542" y="125" type="line"/>
      <point x="579" y="309" type="line"/>
      <point x="797" y="309" type="line"/>
      <point x="826" y="433" type="line"/>
      <point x="607" y="433" type="line"/>
      <point x="639" y="590" type="line"/>
      <point x="873" y="590" type="line"/>
      <point x="900" y="714" type="line"/>
      <point x="519" y="714" type="line"/>
      <point x="493" y="723"/>
      <point x="466" y="725"/>
      <point x="424" y="725" type="curve" smooth="yes"/>
      <point x="170" y="725"/>
      <point x="58" y="481"/>
      <point x="58" y="258" type="curve" smooth="yes"/>
      <point x="58" y="96"/>
      <point x="144" y="-10"/>
    </contour>
    <contour>
      <point x="320" y="117" type="curve" smooth="yes"/>
      <point x="250" y="117"/>
      <point x="210" y="166"/>
      <point x="210" y="259" type="curve" smooth="yes"/>
      <point x="210" y="442"/>
      <point x="296" y="599"/>
      <point x="411" y="599" type="curve" smooth="yes"/>
      <point x="441" y="599"/>
      <point x="468" y="593"/>
      <point x="487" y="580" type="curve"/>
      <point x="395" y="133" type="line"/>
      <point x="371" y="122"/>
      <point x="345" y="117"/>
    </contour>
  </outline>
</glyph>
<glyph name="oe" format="2">
  <advance width="837"/>
  <unicode hex="0153"/>
  <anchor x="363" y="0" name="bottom"/>
  <anchor x="479" y="546" name="top"/>
  <outline>
    <contour>
      <point x="232" y="-10" type="curve" smooth="yes"/>
      <point x="307" y="-10"/>
      <point x="357" y="17"/>
      <point x="396" y="61" type="curve"/>
      <point x="426" y="13"/>
      <point x="484" y="-10"/>
      <point x="551" y="-10" type="curve" smooth="yes"/>
      <point x="628" y="-10"/>
      <point x="681" y="4"/>
      <point x="736" y="32" type="curve"/>
      <point x="737" y="143" type="line"/>
      <point x="677" y="113"/>
      <point x="638" y="101"/>
      <point x="584" y="101" type="curve" smooth="yes"/>
      <point x="527" y="101"/>
      <point x="496" y="137"/>
      <point x="496" y="196" type="curve" smooth="yes"/>
      <point x="496" y="204"/>
      <point x="496" y="209"/>
      <point x="496" y="217" type="curve"/>
      <point x="521" y="217" type="line" smooth="yes"/>
      <point x="723" y="217"/>
      <point x="818" y="293"/>
      <point x="818" y="409" type="curve" smooth="yes"/>
      <point x="818" y="495"/>
      <point x="759" y="556"/>
      <point x="643" y="556" type="curve" smooth="yes"/>
      <point x="563" y="556"/>
      <point x="503" y="526"/>
      <point x="459" y="478" type="curve"/>
      <point x="430" y="528"/>
      <point x="383" y="556"/>
      <point x="318" y="556" type="curve" smooth="yes"/>
      <point x="134" y="556"/>
      <point x="43" y="392"/>
      <point x="43" y="199" type="curve" smooth="yes"/>
      <point x="43" y="68"/>
      <point x="117" y="-10"/>
    </contour>
    <contour>
      <point x="253" y="110" type="curve" smooth="yes"/>
      <point x="212" y="110"/>
      <point x="192" y="142"/>
      <point x="192" y="200" type="curve" smooth="yes"/>
      <point x="192" y="298"/>
      <point x="230" y="436"/>
      <point x="306" y="436" type="curve" smooth="yes"/>
      <point x="349" y="436"/>
      <point x="367" y="396"/>
      <point x="367" y="342" type="curve" smooth="yes"/>
      <point x="367" y="225"/>
      <point x="324" y="110"/>
    </contour>
    <contour>
      <point x="533" y="316" type="curve" smooth="yes"/>
      <point x="513" y="316" type="line"/>
      <point x="528" y="395"/>
      <point x="581" y="450"/>
      <point x="631" y="450" type="curve" smooth="yes"/>
      <point x="661" y="450"/>
      <point x="678" y="435"/>
      <point x="678" y="405" type="curve" smooth="yes"/>
      <point x="678" y="357"/>
      <point x="636" y="316"/>
    </contour>
  </outline>
</glyph>
<glyph name="Tbar" format="2">
  <advance width="508"/>
  <unicode hex="0166"/>
  <anchor x="199" y="0" name="bottom"/>
  <anchor x="351" y="714" name="top"/>
  <outline>
    <contour>
      <point x="121" y="0" type="line"/>
      <point x="270" y="0" type="line"/>
      <point x="330" y="291" type="line"/>
      <point x="436" y="291" type="line"/>
      <point x="464" y="415" type="line"/>
      <point x="357" y="415" type="line"/>
      <point x="392" y="588" type="line"/>
      <point x="553" y="588" type="line"/>
      <point x="581" y="714" type="line"/>
      <point x="111" y="714" type="line"/>
      <point x="83" y="588" type="line"/>
      <point x="243" y="588" type="line"/>
      <point x="208" y="415" type="line"/>
      <point x="106" y="415" type="line"/>
      <point x="78" y="291" type="line"/>
      <point x="181" y="291" type="line"/>
    </contour>
  </outline>
</glyph>
<glyph name="tbar" format="2">
  <advance width="398"/>
  <unicode hex="0167"/>
  <anchor x="144" y="0" name="bottom"/>
  <anchor x="285" y="662" name="top"/>
  <outline>
    <contour>
      <point x="190" y="-10" type="curve" smooth="yes"/>
      <point x="245" y="-10"/>
      <point x="288" y="1"/>
      <point x="320" y="16" type="curve"/>
      <point x="321" y="126" type="line"/>
      <point x="292" y="115"/>
      <point x="268" y="109"/>
      <point x="244" y="109" type="curve" smooth="yes"/>
      <point x="221" y="109"/>
      <point x="205" y="119"/>
      <point x="205" y="144" type="curve" smooth="yes"/>
      <point x="205" y="151"/>
      <point x="207" y="161"/>
      <point x="209" y="171" type="curve" smooth="yes"/>
      <point x="222" y="243" type="line"/>
      <point x="332" y="243" type="line"/>
      <point x="353" y="340" type="line"/>
      <point x="244" y="340" type="line"/>
      <point x="263" y="434" type="line"/>
      <point x="395" y="434" type="line"/>
      <point x="420" y="546" type="line"/>
      <point x="288" y="546" type="line"/>
      <point x="312" y="662" type="line"/>
      <point x="216" y="662" type="line"/>
      <point x="154" y="547" type="line"/>
      <point x="61" y="506" type="line"/>
      <point x="46" y="434" type="line"/>
      <point x="116" y="434" type="line"/>
      <point x="97" y="340" type="line"/>
      <point x="37" y="340" type="line"/>
      <point x="16" y="243" type="line"/>
      <point x="76" y="243" type="line"/>
      <point x="61" y="171" type="line" smooth="yes"/>
      <point x="56" y="150"/>
      <point x="55" y="130"/>
      <point x="55" y="114" type="curve" smooth="yes"/>
      <point x="55" y="21"/>
      <point x="107" y="-10"/>
    </contour>
  </outline>
</glyph>
<glyph name="longs" format="2">
  <advance width="342"/>
  <unicode hex="017F"/>
  <anchor x="-35" y="-240" name="bottom"/>
  <anchor x="349" y="765" name="top"/>
  <outline>
    <contour>
      <point x="-33" y="-240" type="curve" smooth="yes"/>
      <point x="86" y="-240"/>
      <point x="139" y="-159"/>
      <point x="160" y="-59" type="curve" smooth="yes"/>
      <point x="295" y="576" type="line" smooth="yes"/>
      <point x="304" y="618"/>
      <point x="324" y="647"/>
      <point x="357" y="647" type="curve" smooth="yes"/>
      <point x="381" y="647"/>
      <point x="400" y="640"/>
      <point x="418" y="632" type="curve"/>
      <point x="458" y="741" type="line"/>
      <point x="428" y="756"/>
      <point x="389" y="765"/>
      <point x="345" y="765" type="curve" smooth="yes"/>
      <point x="243" y="765"/>
      <point x="179" y="719"/>
      <point x="151" y="587" type="curve" smooth="yes"/>
      <point x="18" y="-37" type="line" smooth="yes"/>
      <point x="6" y="-95"/>
      <point x="-22" y="-120"/>
      <point x="-61" y="-120" type="curve" smooth="yes"/>
      <point x="-79" y="-120"/>
      <point x="-95" y="-117"/>
      <point x="-115" y="-110" type="curve"/>
      <point x="-116" y="-228" type="line"/>
      <point x="-97" y="-235"/>
      <point x="-63" y="-240"/>
    </contour>
  </outline>
</glyph>
<glyph name="Ohorn" format="2">
  <advance width="738"/>
  <unicode hex="01A0"/>
  <anchor x="314" y="0" name="bottom"/>
  <anchor x="423" y="714" name="top"/>
  <outline>
    <contour>
      <point x="308" y="-10" type="curve"/>
      <point x="557" y="-10"/>
      <point x="670" y="225"/>
      <point x="670" y="458" type="curve" smooth="yes"/>
      <point x="670" y="487"/>
      <point x="668" y="514"/>
      <point x="663" y="540" type="curve"/>
      <point x="749" y="575"/>
      <point x="812" y="637"/>
      <point x="846" y="748" type="curve"/>
      <point x="841" y="760" type="line"/>
      <point x="694" y="760" type="line"/>
      <point x="684" y="694"/>
      <point x="658" y="647"/>
      <point x="629" y="624" type="curve"/>
      <point x="589" y="688"/>
      <point x="520" y="725"/>
      <point x="424" y="725" type="curve"/>
      <point x="176" y="725"/>
      <point x="58" y="485"/>
      <point x="58" y="262" type="curve" smooth="yes"/>
      <point x="58" y="98"/>
      <point x="143" y="-10"/>
    </contour>
    <contour>
      <point x="321" y="117" type="curve"/>
      <point x="250" y="117"/>
      <point x="210" y="167"/>
      <point x="210" y="262" type="curve" smooth="yes"/>
      <point x="210" y="445"/>
      <point x="295" y="599"/>
      <point x="410" y="599" type="curve"/>
      <point x="482" y="599"/>
      <point x="518" y="542"/>
      <point x="518" y="454" type="curve" smooth="yes"/>
      <point x="518" y="249"/>
      <point x="428" y="117"/>
    </contour>
  </outline>
</glyph>
<glyph name="ohorn" format="2">
  <advance width="622"/>
  <unicode hex="01A1"/>
  <anchor x="256" y="0" name="bottom"/>
  <anchor x="330" y="546" name="top"/>
  <outline>
    <contour>
      <point x="240" y="-10" type="curve" smooth="yes"/>
      <point x="431" y="-10"/>
      <point x="522" y="158"/>
      <point x="522" y="344" type="curve" smooth="yes"/>
      <point x="522" y="365"/>
      <point x="520" y="385"/>
      <point x="517" y="403" type="curve"/>
      <point x="634" y="446"/>
      <point x="681" y="509"/>
      <point x="711" y="616" type="curve"/>
      <point x="706" y="628" type="line"/>
      <point x="563" y="628" type="line"/>
      <point x="553" y="567"/>
      <point x="533" y="507"/>
      <point x="482" y="485" type="curve"/>
      <point x="448" y="531"/>
      <point x="395" y="556"/>
      <point x="326" y="556" type="curve" smooth="yes"/>
      <point x="138" y="556"/>
      <point x="43" y="390"/>
      <point x="43" y="197" type="curve" smooth="yes"/>
      <point x="43" y="69"/>
      <point x="122" y="-10"/>
    </contour>
    <contour>
      <point x="254" y="110" type="curve" smooth="yes"/>
      <point x="212" y="110"/>
      <point x="192" y="140"/>
      <point x="192" y="198" type="curve" smooth="yes"/>
      <point x="192" y="296"/>
      <point x="233" y="436"/>
      <point x="313" y="436" type="curve" smooth="yes"/>
      <point x="357" y="436"/>
      <point x="373" y="396"/>
      <point x="373" y="342" type="curve" smooth="yes"/>
      <point x="373" y="224"/>
      <point x="328" y="110"/>
    </contour>
  </outline>
</glyph>
<glyph name="Uhorn" format="2">
  <advance width="742"/>
  <unicode hex="01AF"/>
  <anchor x="283" y="0" name="bottom"/>
  <anchor x="426" y="714" name="top"/>
  <outline>
    <contour>
      <point x="274" y="-10" type="curve"/>
      <point x="453" y="-10"/>
      <point x="544" y="100"/>
      <point x="576" y="252" type="curve" smooth="yes"/>
      <point x="635" y="532" type="line"/>
      <point x="784" y="543"/>
      <point x="857" y="637"/>
      <point x="890" y="748" type="curve"/>
      <point x="886" y="760" type="line"/>
      <point x="738" y="760" type="line"/>
      <point x="729" y="692"/>
      <point x="710" y="642"/>
      <point x="655" y="624" type="curve"/>
      <point x="674" y="714" type="line"/>
      <point x="525" y="714" type="line"/>
      <point x="430" y="266" type="line" smooth="yes"/>
      <point x="409" y="167"/>
      <point x="368" y="117"/>
      <point x="296" y="117" type="curve" smooth="yes"/>
      <point x="241" y="117"/>
      <point x="215" y="147"/>
      <point x="215" y="202" type="curve" smooth="yes"/>
      <point x="215" y="220"/>
      <point x="219" y="241"/>
      <point x="224" y="265" type="curve" smooth="yes"/>
      <point x="319" y="714" type="line"/>
      <point x="169" y="714" type="line"/>
      <point x="73" y="263" type="line" smooth="yes"/>
      <point x="68" y="239"/>
      <point x="66" y="215"/>
      <point x="66" y="193" type="curve" smooth="yes"/>
      <point x="66" y="74"/>
      <point x="140" y="-10"/>
    </contour>
  </outline>
</glyph>
<glyph name="uhorn" format="2">
  <advance width="685"/>
  <unicode hex="01B0"/>
  <anchor x="248" y="0" name="bottom"/>
  <anchor x="342" y="546" name="top"/>
  <outline>
    <contour>
      <point x="183" y="-10" type="curve"/>
      <point x="254" y="-10"/>
      <point x="305" y="36"/>
      <point x="345" y="101" type="curve"/>
      <point x="349" y="101" type="line"/>
      <point x="339" y="0" type="line"/>
      <point x="451" y="0" type="line"/>
      <point x="536" y="399" type="line"/>
      <point x="686" y="411"/>
      <point x="758" y="504"/>
      <point x="792" y="615" type="curve"/>
      <point x="787" y="627" type="line"/>
      <point x="640" y="627" type="line"/>
      <point x="629" y="563"/>
      <point x="614" y="507"/>
      <point x="556" y="491" type="curve"/>
      <point x="568" y="546" type="line"/>
      <point x="420" y="546" type="line"/>
      <point x="371" y="320" type="line" smooth="yes"/>
      <point x="346" y="204"/>
      <point x="303" y="109"/>
      <point x="245" y="109" type="curve" smooth="yes"/>
      <point x="215" y="109"/>
      <point x="198" y="128"/>
      <point x="198" y="169" type="curve" smooth="yes"/>
      <point x="198" y="185"/>
      <point x="202" y="205"/>
      <point x="207" y="227" type="curve"/>
      <point x="273" y="546" type="line"/>
      <point x="126" y="546" type="line"/>
      <point x="64" y="251" type="line" smooth="yes"/>
      <point x="56" y="212"/>
      <point x="50" y="170"/>
      <point x="50" y="147" type="curve" smooth="yes"/>
      <point x="50" y="51"/>
      <point x="92" y="-10"/>
    </contour>
  </outline>
</glyph>
<glyph name="Aringacute" format="2">
  <advance width="605"/>
  <unicode hex="01FA"/>
  <anchor x="247" y="0" name="bottom"/>
  <anchor x="451" y="958" name="top"/>
  <outline>
    <contour>
      <point x="290" y="657" type="curve"/>
      <point x="-57" y="0" type="line"/>
      <point x="99" y="0" type="line"/>
      <point x="175" y="161" type="line"/>
      <point x="390" y="161" type="line"/>
      <point x="402" y="0" type="line"/>
      <point x="547" y="0" type="line"/>
      <point x="481" y="626" type="line"/>
      <point x="502" y="646"/>
      <point x="516" y="677"/>
      <point x="516" y="715" type="curve" smooth="yes"/>
      <point x="516" y="785"/>
      <point x="464" y="829"/>
      <point x="398" y="829" type="curve" smooth="yes"/>
      <point x="329" y="829"/>
      <point x="280" y="784"/>
      <point x="280" y="711" type="curve" smooth="yes"/>
      <point x="280" y="691"/>
      <point x="284" y="672"/>
    </contour>
    <contour>
      <point x="239" y="288" type="line"/>
      <point x="322" y="455" type="line" smooth="yes"/>
      <point x="333" y="478"/>
      <point x="351" y="521"/>
      <point x="364" y="561" type="curve"/>
      <point x="370" y="561" type="line"/>
      <point x="370" y="518"/>
      <point x="373" y="461"/>
      <point x="375" y="439" type="curve" smooth="yes"/>
      <point x="386" y="288" type="line"/>
    </contour>
    <contour>
      <point x="397" y="666" type="curve" smooth="yes"/>
      <point x="368" y="666"/>
      <point x="353" y="684"/>
      <point x="353" y="712" type="curve" smooth="yes"/>
      <point x="353" y="742"/>
      <point x="373" y="760"/>
      <point x="398" y="760" type="curve" smooth="yes"/>
      <point x="422" y="760"/>
      <point x="441" y="742"/>
      <point x="441" y="714" type="curve" smooth="yes"/>
      <point x="441" y="684"/>
      <point x="422" y="666"/>
    </contour>
    <contour>
      <point x="365" y="863" type="curve"/>
      <point x="365" y="856" type="line"/>
      <point x="470" y="856" type="line"/>
      <point x="514" y="877"/>
      <point x="589" y="919"/>
      <point x="629" y="953" type="curve"/>
      <point x="629" y="958" type="line"/>
      <point x="463" y="958" type="line"/>
      <point x="438" y="929"/>
      <point x="395" y="888"/>
    </contour>
  </outline>
</glyph>
<glyph name="aringacute" format="2">
  <advance width="566"/>
  <unicode hex="01FB"/>
  <anchor x="228" y="0" name="bottom"/>
  <anchor x="432" y="958" name="top"/>
  <outline>
    <contour>
      <point x="188" y="-10" type="curve" smooth="yes"/>
      <point x="253" y="-10"/>
      <point x="297" y="23"/>
      <point x="332" y="71" type="curve"/>
      <point x="336" y="71" type="line"/>
      <point x="329" y="0" type="line"/>
      <point x="441" y="0" type="line"/>
      <point x="557" y="546" type="line"/>
      <point x="443" y="546" type="line"/>
      <point x="416" y="476" type="line"/>
      <point x="412" y="476" type="line"/>
      <point x="389" y="524"/>
      <point x="351" y="556"/>
      <point x="286" y="556" type="curve" smooth="yes"/>
      <point x="136" y="556"/>
      <point x="43" y="363"/>
      <point x="43" y="184" type="curve" smooth="yes"/>
      <point x="43" y="43"/>
      <point x="112" y="-10"/>
    </contour>
    <contour>
      <point x="248" y="109" type="curve" smooth="yes"/>
      <point x="212" y="109"/>
      <point x="192" y="137"/>
      <point x="192" y="193" type="curve" smooth="yes"/>
      <point x="192" y="308"/>
      <point x="246" y="437"/>
      <point x="312" y="437" type="curve" smooth="yes"/>
      <point x="349" y="437"/>
      <point x="371" y="404"/>
      <point x="371" y="358" type="curve" smooth="yes"/>
      <point x="371" y="329"/>
      <point x="369" y="303"/>
      <point x="364" y="275" type="curve" smooth="yes"/>
      <point x="349" y="190"/>
      <point x="302" y="109"/>
    </contour>
    <contour>
      <point x="351" y="585" type="curve" smooth="yes"/>
      <point x="419" y="585"/>
      <point x="471" y="630"/>
      <point x="471" y="703" type="curve" smooth="yes"/>
      <point x="471" y="773"/>
      <point x="419" y="817"/>
      <point x="354" y="817" type="curve" smooth="yes"/>
      <point x="284" y="817"/>
      <point x="236" y="772"/>
      <point x="236" y="700" type="curve" smooth="yes"/>
      <point x="236" y="628"/>
      <point x="282" y="585"/>
    </contour>
    <contour>
      <point x="352" y="654" type="curve" smooth="yes"/>
      <point x="323" y="654"/>
      <point x="308" y="672"/>
      <point x="308" y="700" type="curve" smooth="yes"/>
      <point x="308" y="730"/>
      <point x="328" y="748"/>
      <point x="353" y="748" type="curve" smooth="yes"/>
      <point x="378" y="748"/>
      <point x="396" y="730"/>
      <point x="396" y="702" type="curve" smooth="yes"/>
      <point x="396" y="672"/>
      <point x="377" y="654"/>
    </contour>
    <contour>
      <point x="324" y="863" type="curve"/>
      <point x="324" y="856" type="line"/>
      <point x="429" y="856" type="line"/>
      <point x="473" y="877"/>
      <point x="549" y="919"/>
      <point x="589" y="953" type="curve"/>
      <point x="589" y="958" type="line"/>
      <point x="423" y="958" type="line"/>
      <point x="399" y="929"/>
      <point x="354" y="888"/>
    </contour>
  </outline>
</glyph>
<glyph name="jdotless" format="2">
  <advance width="287"/>
  <unicode hex="0237"/>
  <anchor x="38" y="-240" name="bottom"/>
  <anchor x="205" y="546" name="top"/>
  <outline>
    <contour>
      <point x="-41" y="-240" type="curve" smooth="yes"/>
      <point x="79" y="-240"/>
      <point x="132" y="-159"/>
      <point x="153" y="-59" type="curve" smooth="yes"/>
      <point x="281" y="546" type="line"/>
      <point x="134" y="546" type="line"/>
      <point x="11" y="-37" type="line" smooth="yes"/>
      <point x="-1" y="-95"/>
      <point x="-32" y="-120"/>
      <point x="-70" y="-120" type="curve" smooth="yes"/>
      <point x="-88" y="-120"/>
      <point x="-102" y="-117"/>
      <point x="-123" y="-110" type="curve"/>
      <point x="-124" y="-228" type="line"/>
      <point x="-105" y="-235"/>
      <point x="-71" y="-240"/>
    </contour>
  </outline>
</glyph>
<glyph name="Cstroke" format="2">
  <advance width="585"/>
  <unicode hex="023B"/>
  <anchor x="289" y="-75" name="bottom"/>
  <anchor x="430" y="760" name="top"/>
  <outline>
    <contour>
      <point x="120" y="-75" type="line"/>
      <point x="214" y="-75" type="line"/>
      <point x="617" y="760" type="line"/>
      <point x="525" y="760" type="line"/>
    </contour>
    <component base="C"/>
  </outline>
</glyph>
<glyph name="Tdiagonalstroke" format="2">
  <advance width="508"/>
  <unicode hex="023E"/>
  <anchor x="190" y="-44" name="bottom"/>
  <anchor x="367" y="791" name="top"/>
  <outline>
    <contour>
      <point x="-48" y="-44" type="line"/>
      <point x="59" y="-44" type="line"/>
      <point x="616" y="791" type="line"/>
      <point x="511" y="791" type="line"/>
    </contour>
    <component base="T"/>
  </outline>
</glyph>
<glyph name="Estroke" format="2">
  <advance width="519"/>
  <unicode hex="0246"/>
  <anchor x="211" y="-75" name="bottom"/>
  <anchor x="373" y="760" name="top"/>
  <outline>
    <contour>
      <point x="93" y="-75" type="line"/>
      <point x="189" y="-75" type="line"/>
      <point x="571" y="760" type="line"/>
      <point x="475" y="760" type="line"/>
    </contour>
    <component base="E"/>
  </outline>
</glyph>
<glyph name="schwahook" format="2">
  <advance width="746"/>
  <unicode hex="025A"/>
  <anchor x="197" y="-10" name="bottom"/>
  <anchor x="289" y="556" name="top"/>
  <outline>
    <contour>
      <point x="197" y="-10" type="curve" smooth="yes"/>
      <point x="363" y="-10"/>
      <point x="459" y="121"/>
      <point x="482" y="276" type="curve"/>
      <point x="524" y="287" type="line"/>
      <point x="533" y="205"/>
      <point x="576" y="170"/>
      <point x="636" y="170" type="curve" smooth="yes"/>
      <point x="681" y="170"/>
      <point x="719" y="187"/>
      <point x="747" y="209" type="curve"/>
      <point x="714" y="294" type="line"/>
      <point x="699" y="282"/>
      <point x="682" y="272"/>
      <point x="660" y="272" type="curve" smooth="yes"/>
      <point x="631" y="272"/>
      <point x="622" y="296"/>
      <point x="617" y="357" type="curve" smooth="yes"/>
      <point x="613" y="408" type="line"/>
      <point x="487" y="373" type="line"/>
      <point x="477" y="496"/>
      <point x="399" y="556"/>
      <point x="289" y="556" type="curve" smooth="yes"/>
      <point x="215" y="556"/>
      <point x="162" y="542"/>
      <point x="108" y="514" type="curve"/>
      <point x="107" y="403" type="line"/>
      <point x="168" y="433"/>
      <point x="204" y="445"/>
      <point x="257" y="445" type="curve" smooth="yes"/>
      <point x="311" y="445"/>
      <point x="342" y="413"/>
      <point x="341" y="340" type="curve"/>
      <point x="300" y="331" type="line" smooth="yes"/>
      <point x="124" y="292"/>
      <point x="24" y="247"/>
      <point x="24" y="133" type="curve" smooth="yes"/>
      <point x="24" y="47"/>
      <point x="85" y="-10"/>
    </contour>
    <contour>
      <point x="211" y="96" type="curve" smooth="yes"/>
      <point x="183" y="96"/>
      <point x="166" y="111"/>
      <point x="166" y="138" type="curve" smooth="yes"/>
      <point x="166" y="184"/>
      <point x="204" y="212"/>
      <point x="296" y="234" type="curve" smooth="yes"/>
      <point x="324" y="241" type="line"/>
      <point x="311" y="158"/>
      <point x="262" y="96"/>
    </contour>
  </outline>
</glyph>
<glyph name="rfishhookreversed" format="2">
  <advance width="349"/>
  <unicode hex="027F"/>
  <anchor x="68" y="-240" name="bottom"/>
  <anchor x="236" y="546" name="top"/>
  <outline>
    <contour>
      <point x="154" y="351" type="curve" smooth="yes"/>
      <point x="30" y="-240" type="line"/>
      <point x="177" y="-240" type="line"/>
      <point x="301" y="350" type="line" smooth="yes"/>
      <point x="306" y="372"/>
      <point x="309" y="391"/>
      <point x="309" y="410" type="curve" smooth="yes"/>
      <point x="309" y="505"/>
      <point x="251" y="558"/>
      <point x="164" y="558" type="curve" smooth="yes"/>
      <point x="116" y="558"/>
      <point x="87" y="551"/>
      <point x="52" y="540" type="curve"/>
      <point x="51" y="421" type="line"/>
      <point x="70" y="427"/>
      <point x="88" y="431"/>
      <point x="109" y="431" type="curve" smooth="yes"/>
      <point x="142" y="431"/>
      <point x="158" y="411"/>
      <point x="158" y="381" type="curve" smooth="yes"/>
      <point x="158" y="372"/>
      <point x="156" y="360"/>
    </contour>
  </outline>
</glyph>
<glyph name="eshsquatreversed" format="2">
  <advance width="296"/>
  <unicode hex="0285"/>
  <anchor x="42" y="-240" name="bottom"/>
  <anchor x="209" y="546" name="top"/>
  <outline>
    <contour>
      <point x="153" y="-240" type="curve" smooth="yes"/>
      <point x="185" y="-240"/>
      <point x="221" y="-234"/>
      <point x="244" y="-225" type="curve"/>
      <point x="245" y="-112" type="line"/>
      <point x="228" y="-118"/>
      <point x="215" y="-121"/>
      <point x="197" y="-121" type="curve" smooth="yes"/>
      <point x="174" y="-121"/>
      <point x="161" y="-111"/>
      <point x="161" y="-87" type="curve" smooth="yes"/>
      <point x="161" y="-78"/>
      <point x="163" y="-64"/>
      <point x="167" y="-45" type="curve" smooth="yes"/>
      <point x="247" y="350" type="line"/>
      <point x="252" y="375"/>
      <point x="256" y="397"/>
      <point x="256" y="417" type="curve" smooth="yes"/>
      <point x="256" y="506"/>
      <point x="206" y="558"/>
      <point x="125" y="558" type="curve" smooth="yes"/>
      <point x="84" y="558"/>
      <point x="58" y="551"/>
      <point x="26" y="540" type="curve"/>
      <point x="25" y="421" type="line"/>
      <point x="39" y="427"/>
      <point x="53" y="431"/>
      <point x="68" y="431" type="curve" smooth="yes"/>
      <point x="92" y="431"/>
      <point x="104" y="411"/>
      <point x="104" y="381" type="curve" smooth="yes"/>
      <point x="104" y="371"/>
      <point x="102" y="360"/>
      <point x="100" y="351" type="curve" smooth="yes"/>
      <point x="21" y="-35" type="line" smooth="yes"/>
      <point x="14" y="-72"/>
      <point x="11" y="-99"/>
      <point x="11" y="-116" type="curve" smooth="yes"/>
      <point x="11" y="-198"/>
      <point x="61" y="-240"/>
    </contour>
  </outline>
</glyph>
<glyph name="eshcurl" format="2">
  <advance width="296"/>
  <unicode hex="0286"/>
  <anchor x="42" y="-240" name="bottom"/>
  <anchor x="256" y="767" name="top"/>
  <outline>
    <contour>
      <point x="-39" y="-240" type="curve" smooth="yes"/>
      <point x="76" y="-240"/>
      <point x="123" y="-173"/>
      <point x="150" y="-77" type="curve"/>
      <point x="221" y="-77" type="line"/>
      <point x="238" y="0" type="line"/>
      <point x="169" y="0" type="line"/>
      <point x="293" y="590" type="line" smooth="yes"/>
      <point x="302" y="631"/>
      <point x="323" y="648"/>
      <point x="352" y="648" type="curve" smooth="yes"/>
      <point x="372" y="648"/>
      <point x="390" y="642"/>
      <point x="400" y="638" type="curve"/>
      <point x="402" y="752" type="line"/>
      <point x="390" y="758"/>
      <point x="362" y="767"/>
      <point x="325" y="767" type="curve" smooth="yes"/>
      <point x="223" y="767"/>
      <point x="170" y="703"/>
      <point x="148" y="598" type="curve" smooth="yes"/>
      <point x="21" y="0" type="line"/>
      <point x="2" y="0" type="line"/>
      <point x="-102" y="0"/>
      <point x="-163" y="-49"/>
      <point x="-163" y="-135" type="curve" smooth="yes"/>
      <point x="-163" y="-193"/>
      <point x="-120" y="-240"/>
    </contour>
    <contour>
      <point x="-50" y="-158" type="curve" smooth="yes"/>
      <point x="-67" y="-158"/>
      <point x="-76" y="-146"/>
      <point x="-76" y="-129" type="curve" smooth="yes"/>
      <point x="-76" y="-98"/>
      <point x="-53" y="-77"/>
      <point x="-17" y="-77" type="curve" smooth="yes"/>
      <point x="4" y="-77" type="line"/>
      <point x="-6" y="-134"/>
      <point x="-15" y="-158"/>
    </contour>
  </outline>
</glyph>
<glyph name="ezhcurl" format="2">
  <advance width="529"/>
  <unicode hex="0293"/>
  <anchor x="156" y="-253" name="bottom"/>
  <anchor x="326" y="546" name="top"/>
  <outline>
    <contour>
      <point x="112" y="-240" type="curve" smooth="yes"/>
      <point x="180" y="-240"/>
      <point x="231" y="-223"/>
      <point x="273" y="-199" type="curve"/>
      <point x="289" y="-224"/>
      <point x="298" y="-241"/>
      <point x="305" y="-253" type="curve"/>
      <point x="385" y="-199" type="line"/>
      <point x="375" y="-181"/>
      <point x="362" y="-164"/>
      <point x="352" y="-146" type="curve"/>
      <point x="405" y="-94"/>
      <point x="433" y="-25"/>
      <point x="433" y="59" type="curve" smooth="yes"/>
      <point x="433" y="161"/>
      <point x="370" y="237"/>
      <point x="267" y="250" type="curve"/>
      <point x="489" y="450" type="line"/>
      <point x="510" y="546" type="line"/>
      <point x="108" y="546" type="line"/>
      <point x="83" y="432" type="line"/>
      <point x="304" y="432" type="line"/>
      <point x="121" y="263" type="line"/>
      <point x="98" y="158" type="line"/>
      <point x="150" y="158" type="line" smooth="yes"/>
      <point x="239" y="158"/>
      <point x="281" y="112"/>
      <point x="281" y="44" type="curve" smooth="yes"/>
      <point x="281" y="13"/>
      <point x="278" y="-8"/>
      <point x="266" y="-35" type="curve"/>
      <point x="224" y="15"/>
      <point x="171" y="56"/>
      <point x="89" y="56" type="curve" smooth="yes"/>
      <point x="-1" y="56"/>
      <point x="-73" y="6"/>
      <point x="-73" y="-95" type="curve" smooth="yes"/>
      <point x="-73" y="-192"/>
      <point x="2" y="-240"/>
    </contour>
    <contour>
      <point x="95" y="-131" type="curve" smooth="yes"/>
      <point x="55" y="-131"/>
      <point x="29" y="-114"/>
      <point x="29" y="-84" type="curve" smooth="yes"/>
      <point x="29" y="-51"/>
      <point x="50" y="-33"/>
      <point x="86" y="-33" type="curve" smooth="yes"/>
      <point x="131" y="-33"/>
      <point x="165" y="-60"/>
      <point x="198" y="-103" type="curve"/>
      <point x="172" y="-119"/>
      <point x="131" y="-131"/>
    </contour>
  </outline>
</glyph>
<glyph name="cstretched" format="2">
  <advance width="493"/>
  <unicode hex="0297"/>
  <anchor x="190" y="-240" name="bottom"/>
  <anchor x="367" y="546" name="top"/>
  <outline>
    <contour>
      <point x="214" y="-240" type="curve" smooth="yes"/>
      <point x="270" y="-240"/>
      <point x="324" y="-225"/>
      <point x="369" y="-201" type="curve"/>
      <point x="370" y="-81" type="line"/>
      <point x="326" y="-104"/>
      <point x="296" y="-121"/>
      <point x="249" y="-121" type="curve" smooth="yes"/>
      <point x="202" y="-121"/>
      <point x="168" y="-88"/>
      <point x="168" y="6" type="curve" smooth="yes"/>
      <point x="168" y="199"/>
      <point x="234" y="437"/>
      <point x="358" y="437" type="curve" smooth="yes"/>
      <point x="400" y="437"/>
      <point x="428" y="424"/>
      <point x="462" y="409" type="curve"/>
      <point x="509" y="521" type="line"/>
      <point x="464" y="543"/>
      <point x="417" y="556"/>
      <point x="354" y="556" type="curve" smooth="yes"/>
      <point x="131" y="556"/>
      <point x="19" y="282"/>
      <point x="19" y="8" type="curve" smooth="yes"/>
      <point x="19" y="-181"/>
      <point x="109" y="-240"/>
    </contour>
  </outline>
</glyph>
<glyph name="eopenclosed" format="2">
  <advance width="579"/>
  <unicode hex="029A"/>
  <anchor x="235" y="0" name="bottom"/>
  <anchor x="351" y="546" name="top"/>
  <outline>
    <contour>
      <point x="232" y="-10" type="curve" smooth="yes"/>
      <point x="456" y="-10"/>
      <point x="541" y="129"/>
      <point x="541" y="313" type="curve" smooth="yes"/>
      <point x="541" y="476"/>
      <point x="458" y="556"/>
      <point x="307" y="556" type="curve" smooth="yes"/>
      <point x="161" y="556"/>
      <point x="78" y="494"/>
      <point x="78" y="390" type="curve" smooth="yes"/>
      <point x="78" y="335"/>
      <point x="108" y="301"/>
      <point x="158" y="284" type="curve"/>
      <point x="158" y="280" type="line"/>
      <point x="76" y="265"/>
      <point x="23" y="232"/>
      <point x="23" y="141" type="curve" smooth="yes"/>
      <point x="23" y="47"/>
      <point x="103" y="-10"/>
    </contour>
    <contour>
      <point x="247" y="100" type="curve" smooth="yes"/>
      <point x="197" y="100"/>
      <point x="172" y="124"/>
      <point x="172" y="159" type="curve" smooth="yes"/>
      <point x="172" y="206"/>
      <point x="201" y="228"/>
      <point x="277" y="228" type="curve"/>
      <point x="299" y="228" type="line"/>
      <point x="322" y="331" type="line"/>
      <point x="301" y="331" type="line" smooth="yes"/>
      <point x="250" y="331"/>
      <point x="222" y="345"/>
      <point x="222" y="383" type="curve" smooth="yes"/>
      <point x="222" y="427"/>
      <point x="254" y="444"/>
      <point x="297" y="444" type="curve" smooth="yes"/>
      <point x="355" y="444"/>
      <point x="393" y="408"/>
      <point x="393" y="313" type="curve" smooth="yes"/>
      <point x="393" y="211"/>
      <point x="365" y="100"/>
    </contour>
  </outline>
</glyph>
<glyph name="kturned" format="2">
  <advance width="548"/>
  <unicode hex="029E"/>
  <anchor x="165" y="-240" name="bottom"/>
  <anchor x="332.028" y="546" name="top"/>
  <anchor x="539" y="546" name="topright"/>
  <outline>
    <contour>
      <point x="303" y="125" type="curve" smooth="yes"/>
      <point x="225" y="-240" type="line"/>
      <point x="372" y="-240" type="line"/>
      <point x="539" y="546" type="line"/>
      <point x="392" y="546" type="line"/>
      <point x="356" y="376" type="line"/>
      <point x="301" y="341" type="line"/>
      <point x="223" y="546" type="line"/>
      <point x="58" y="546" type="line"/>
      <point x="186" y="246" type="line"/>
      <point x="-47" y="0" type="line"/>
      <point x="121" y="0" type="line"/>
      <point x="329" y="232" type="line"/>
      <point x="333" y="232" type="line"/>
      <point x="327" y="210"/>
      <point x="310" y="158"/>
    </contour>
  </outline>
</glyph>
<glyph name="qhook" format="2">
  <advance width="567"/>
  <unicode hex="02A0"/>
  <anchor x="177" y="-240" name="bottom"/>
  <anchor x="391" y="767" name="top"/>
  <outline>
    <contour>
      <point x="278" y="-75" type="curve" smooth="yes"/>
      <point x="242" y="-240" type="line"/>
      <point x="390" y="-240" type="line"/>
      <point x="565" y="591" type="line" smooth="yes"/>
      <point x="573" y="631"/>
      <point x="596" y="648"/>
      <point x="626" y="648" type="curve" smooth="yes"/>
      <point x="646" y="648"/>
      <point x="663" y="642"/>
      <point x="672" y="638" type="curve"/>
      <point x="674" y="752" type="line"/>
      <point x="662" y="758"/>
      <point x="635" y="767"/>
      <point x="599" y="767" type="curve" smooth="yes"/>
      <point x="501" y="767"/>
      <point x="443" y="703"/>
      <point x="422" y="599" type="curve" smooth="yes"/>
      <point x="419" y="584" type="line" smooth="yes"/>
      <point x="412" y="549"/>
      <point x="407" y="502"/>
      <point x="405" y="476" type="curve"/>
      <point x="401" y="476" type="line"/>
      <point x="374" y="524"/>
      <point x="345" y="556"/>
      <point x="284" y="556" type="curve" smooth="yes"/>
      <point x="136" y="556"/>
      <point x="43" y="363"/>
      <point x="43" y="184" type="curve" smooth="yes"/>
      <point x="43" y="43"/>
      <point x="113" y="-10"/>
      <point x="181" y="-10" type="curve" smooth="yes"/>
      <point x="244" y="-10"/>
      <point x="283" y="28"/>
      <point x="315" y="73" type="curve"/>
      <point x="319" y="73" type="line"/>
      <point x="306" y="30"/>
      <point x="285" y="-40"/>
    </contour>
    <contour>
      <point x="252" y="109" type="curve" smooth="yes"/>
      <point x="214" y="109"/>
      <point x="192" y="137"/>
      <point x="192" y="193" type="curve" smooth="yes"/>
      <point x="192" y="308"/>
      <point x="246" y="437"/>
      <point x="312" y="437" type="curve" smooth="yes"/>
      <point x="349" y="437"/>
      <point x="371" y="404"/>
      <point x="371" y="353" type="curve" smooth="yes"/>
      <point x="371" y="277"/>
      <point x="334" y="109"/>
    </contour>
  </outline>
</glyph>
<glyph name="circumflex" format="2">
  <advance width="468"/>
  <unicode hex="02C6"/>
  <outline>
    <contour>
      <point x="113" y="618" type="curve"/>
      <point x="113" y="606" type="line"/>
      <point x="219" y="606" type="line"/>
      <point x="256" y="631"/>
      <point x="291" y="656"/>
      <point x="328" y="688" type="curve"/>
      <point x="348" y="660"/>
      <point x="380" y="626"/>
      <point x="401" y="606" type="curve"/>
      <point x="499" y="606" type="line"/>
      <point x="499" y="618" type="line"/>
      <point x="474" y="657"/>
      <point x="437" y="719"/>
      <point x="419" y="766" type="curve"/>
      <point x="253" y="766" type="line"/>
      <point x="218" y="722"/>
      <point x="153" y="655"/>
    </contour>
  </outline>
</glyph>
<glyph name="caron" format="2">
  <advance width="469"/>
  <unicode hex="02C7"/>
  <outline>
    <contour>
      <point x="225" y="606" type="curve"/>
      <point x="392" y="606" type="line"/>
      <point x="426" y="650"/>
      <point x="491" y="717"/>
      <point x="531" y="754" type="curve"/>
      <point x="531" y="766" type="line"/>
      <point x="426" y="766" type="line"/>
      <point x="388" y="741"/>
      <point x="354" y="716"/>
      <point x="317" y="684" type="curve"/>
      <point x="296" y="712"/>
      <point x="265" y="746"/>
      <point x="243" y="766" type="curve"/>
      <point x="145" y="766" type="line"/>
      <point x="145" y="754" type="line"/>
      <point x="171" y="715"/>
      <point x="207" y="653"/>
    </contour>
  </outline>
</glyph>
<glyph name="breve" format="2">
  <advance width="418"/>
  <unicode hex="02D8"/>
  <outline>
    <contour>
      <point x="295" y="606" type="curve" smooth="yes"/>
      <point x="407" y="606"/>
      <point x="466" y="666"/>
      <point x="484" y="771" type="curve"/>
      <point x="394" y="771" type="line"/>
      <point x="382" y="725"/>
      <point x="349" y="710"/>
      <point x="302" y="710" type="curve" smooth="yes"/>
      <point x="254" y="710"/>
      <point x="230" y="729"/>
      <point x="231" y="771" type="curve"/>
      <point x="146" y="771" type="line"/>
      <point x="144" y="761"/>
      <point x="143" y="752"/>
      <point x="143" y="738" type="curve" smooth="yes"/>
      <point x="143" y="672"/>
      <point x="185" y="606"/>
    </contour>
  </outline>
</glyph>
<glyph name="dotaccent" format="2">
  <advance width="242"/>
  <unicode hex="02D9"/>
  <outline>
    <contour>
      <point x="201" y="614" type="curve" smooth="yes"/>
      <point x="263" y="614"/>
      <point x="290" y="650"/>
      <point x="290" y="702" type="curve" smooth="yes"/>
      <point x="290" y="745"/>
      <point x="255" y="760"/>
      <point x="217" y="760" type="curve" smooth="yes"/>
      <point x="161" y="760"/>
      <point x="128" y="730"/>
      <point x="128" y="673" type="curve" smooth="yes"/>
      <point x="128" y="630"/>
      <point x="159" y="614"/>
    </contour>
  </outline>
</glyph>
<glyph name="ring" format="2">
  <advance width="321"/>
  <unicode hex="02DA"/>
  <outline>
    <contour>
      <point x="254" y="605" type="curve" smooth="yes"/>
      <point x="321" y="605"/>
      <point x="374" y="650"/>
      <point x="374" y="723" type="curve" smooth="yes"/>
      <point x="374" y="793"/>
      <point x="322" y="837"/>
      <point x="256" y="837" type="curve" smooth="yes"/>
      <point x="186" y="837"/>
      <point x="138" y="792"/>
      <point x="138" y="720" type="curve" smooth="yes"/>
      <point x="138" y="648"/>
      <point x="185" y="605"/>
    </contour>
    <contour>
      <point x="254" y="674" type="curve" smooth="yes"/>
      <point x="226" y="674"/>
      <point x="211" y="692"/>
      <point x="211" y="720" type="curve" smooth="yes"/>
      <point x="211" y="750"/>
      <point x="230" y="768"/>
      <point x="255" y="768" type="curve" smooth="yes"/>
      <point x="280" y="768"/>
      <point x="299" y="750"/>
      <point x="299" y="722" type="curve" smooth="yes"/>
      <point x="299" y="692"/>
      <point x="279" y="674"/>
    </contour>
  </outline>
</glyph>
<glyph name="ogonek" format="2">
  <advance width="283"/>
  <unicode hex="02DB"/>
  <outline>
    <contour>
      <point x="58" y="-240" type="curve" smooth="yes"/>
      <point x="90" y="-240"/>
      <point x="113" y="-235"/>
      <point x="137" y="-228" type="curve"/>
      <point x="138" y="-142" type="line"/>
      <point x="121" y="-147"/>
      <point x="107" y="-151"/>
      <point x="89" y="-151" type="curve" smooth="yes"/>
      <point x="73" y="-151"/>
      <point x="63" y="-140"/>
      <point x="63" y="-122" type="curve" smooth="yes"/>
      <point x="63" y="-75"/>
      <point x="106" y="-38"/>
      <point x="152" y="0" type="curve"/>
      <point x="55" y="0" type="line"/>
      <point x="-4" y="-39"/>
      <point x="-46" y="-81"/>
      <point x="-46" y="-146" type="curve" smooth="yes"/>
      <point x="-46" y="-202"/>
      <point x="-7" y="-240"/>
    </contour>
  </outline>
</glyph>
<glyph name="tilde" format="2">
  <advance width="444"/>
  <unicode hex="02DC"/>
  <outline>
    <contour>
      <point x="111" y="605" type="curve"/>
      <point x="194" y="605" type="line"/>
      <point x="202" y="638"/>
      <point x="219" y="657"/>
      <point x="238" y="657" type="curve" smooth="yes"/>
      <point x="279" y="657"/>
      <point x="309" y="606"/>
      <point x="369" y="606" type="curve" smooth="yes"/>
      <point x="437" y="606"/>
      <point x="484" y="650"/>
      <point x="507" y="757" type="curve"/>
      <point x="426" y="757" type="line"/>
      <point x="412" y="721"/>
      <point x="397" y="705"/>
      <point x="376" y="705" type="curve" smooth="yes"/>
      <point x="337" y="705"/>
      <point x="305" y="756"/>
      <point x="246" y="756" type="curve" smooth="yes"/>
      <point x="180" y="756"/>
      <point x="131" y="710"/>
    </contour>
  </outline>
</glyph>
<glyph name="hungarumlaut" format="2">
  <advance width="494"/>
  <unicode hex="02DD"/>
  <outline>
    <contour>
      <point x="303" y="618" type="curve"/>
      <point x="303" y="606" type="line"/>
      <point x="388" y="606" type="line"/>
      <point x="437" y="642"/>
      <point x="531" y="722"/>
      <point x="557" y="758" type="curve"/>
      <point x="557" y="766" type="line"/>
      <point x="410" y="766" type="line"/>
      <point x="381" y="719"/>
      <point x="334" y="655"/>
    </contour>
    <contour>
      <point x="113" y="618" type="curve"/>
      <point x="113" y="606" type="line"/>
      <point x="198" y="606" type="line"/>
      <point x="247" y="642"/>
      <point x="341" y="722"/>
      <point x="368" y="758" type="curve"/>
      <point x="368" y="766" type="line"/>
      <point x="221" y="766" type="line"/>
      <point x="192" y="719"/>
      <point x="145" y="655"/>
    </contour>
  </outline>
</glyph>
<glyph name="rhotichookmod" format="2">
  <advance width="235"/>
  <unicode hex="02DE"/>
  <outline>
    <contour>
      <point x="123" y="174" type="curve" smooth="yes"/>
      <point x="168" y="174"/>
      <point x="205" y="191"/>
      <point x="238" y="215" type="curve"/>
      <point x="202" y="298" type="line"/>
      <point x="186" y="286"/>
      <point x="169" y="276"/>
      <point x="147" y="276" type="curve" smooth="yes"/>
      <point x="118" y="276"/>
      <point x="106" y="300"/>
      <point x="106" y="361" type="curve" smooth="yes"/>
      <point x="106" y="412" type="line"/>
      <point x="-103" y="358" type="line"/>
      <point x="-100" y="264" type="line"/>
      <point x="11" y="291" type="line"/>
      <point x="20" y="209"/>
      <point x="63" y="174"/>
    </contour>
  </outline>
</glyph>
<glyph name="dblverticallineabovecomb" format="2">
  <unicode hex="030E"/>
  <anchor x="60" y="546" name="_top"/>
  <anchor x="92" y="770" name="top"/>
  <outline>
    <contour>
      <point x="102" y="596" type="line"/>
      <point x="200" y="596" type="line"/>
      <point x="237" y="770" type="line"/>
      <point x="139" y="770" type="line"/>
    </contour>
    <contour>
      <point x="-59" y="596" type="line"/>
      <point x="38" y="596" type="line"/>
      <point x="75" y="770" type="line"/>
      <point x="-23" y="770" type="line"/>
    </contour>
  </outline>
</glyph>
<glyph name="dblgravecomb" format="2">
  <unicode hex="030F"/>
  <anchor x="-177" y="546" name="_top"/>
  <anchor x="-232" y="766" name="top"/>
  <outline>
    <contour>
      <point x="-127" y="606" type="curve"/>
      <point x="-52" y="606" type="line"/>
      <point x="-52" y="618" type="line"/>
      <point x="-75" y="667"/>
      <point x="-92" y="721"/>
      <point x="-102" y="766" type="curve"/>
      <point x="-238" y="766" type="line"/>
      <point x="-238" y="756" type="line"/>
      <point x="-217" y="710"/>
      <point x="-166" y="646"/>
    </contour>
    <contour>
      <point x="-305" y="606" type="curve"/>
      <point x="-231" y="606" type="line"/>
      <point x="-231" y="618" type="line"/>
      <point x="-253" y="667"/>
      <point x="-271" y="721"/>
      <point x="-280" y="766" type="curve"/>
      <point x="-417" y="766" type="line"/>
      <point x="-417" y="756" type="line"/>
      <point x="-395" y="710"/>
      <point x="-344" y="646"/>
    </contour>
  </outline>
</glyph>
<glyph name="candraBinducomb" format="2">
  <unicode hex="0310"/>
  <anchor x="55" y="546" name="_top"/>
  <anchor x="97" y="853" name="top"/>
  <outline>
    <contour>
      <point x="76" y="606" type="curve" smooth="yes"/>
      <point x="179" y="606"/>
      <point x="240" y="672"/>
      <point x="261" y="771" type="curve"/>
      <point x="190" y="771" type="line"/>
      <point x="173" y="721"/>
      <point x="138" y="688"/>
      <point x="83" y="688" type="curve" smooth="yes"/>
      <point x="27" y="688"/>
      <point x="-2" y="715"/>
      <point x="-2" y="771" type="curve"/>
      <point x="-72" y="771" type="line"/>
      <point x="-73" y="760"/>
      <point x="-74" y="751"/>
      <point x="-74" y="740" type="curve" smooth="yes"/>
      <point x="-74" y="659"/>
      <point x="-20" y="606"/>
    </contour>
    <contour>
      <point x="89" y="732" type="curve" smooth="yes"/>
      <point x="132" y="732"/>
      <point x="156" y="761"/>
      <point x="156" y="805" type="curve" smooth="yes"/>
      <point x="156" y="837"/>
      <point x="131" y="853"/>
      <point x="100" y="853" type="curve" smooth="yes"/>
      <point x="60" y="853"/>
      <point x="33" y="828"/>
      <point x="33" y="781" type="curve" smooth="yes"/>
      <point x="33" y="749"/>
      <point x="54" y="732"/>
    </contour>
  </outline>
</glyph>
<glyph name="breveinvertedcomb" format="2">
  <unicode hex="0311"/>
  <anchor x="61" y="546" name="_top"/>
  <anchor x="82" y="771" name="top"/>
  <outline>
    <contour>
      <point x="-92" y="606" type="curve"/>
      <point x="-2" y="606" type="line"/>
      <point x="10" y="652"/>
      <point x="43" y="667"/>
      <point x="90" y="667" type="curve" smooth="yes"/>
      <point x="138" y="667"/>
      <point x="162" y="648"/>
      <point x="161" y="606" type="curve"/>
      <point x="246" y="606" type="line"/>
      <point x="248" y="616"/>
      <point x="249" y="625"/>
      <point x="249" y="639" type="curve" smooth="yes"/>
      <point x="249" y="705"/>
      <point x="207" y="771"/>
      <point x="97" y="771" type="curve" smooth="yes"/>
      <point x="-15" y="771"/>
      <point x="-74" y="711"/>
    </contour>
  </outline>
</glyph>
<glyph name="lefttackbelowcomb" format="2">
  <unicode hex="0318"/>
  <anchor x="-38" y="22" name="_bottom"/>
  <anchor x="-68" y="-218" name="bottom"/>
  <outline>
    <contour>
      <point x="-74" y="-218" type="line"/>
      <point x="-13" y="-218" type="line"/>
      <point x="28" y="-28" type="line"/>
      <point x="-34" y="-28" type="line"/>
      <point x="-48" y="-93" type="line"/>
      <point x="-152" y="-93" type="line"/>
      <point x="-165" y="-153" type="line"/>
      <point x="-61" y="-153" type="line"/>
    </contour>
  </outline>
</glyph>
<glyph name="righttackbelowcomb" format="2">
  <unicode hex="0319"/>
  <anchor x="-51" y="22" name="_bottom"/>
  <anchor x="-81" y="-218" name="bottom"/>
  <outline>
    <contour>
      <point x="-179" y="-218" type="line"/>
      <point x="-116" y="-218" type="line"/>
      <point x="-102" y="-153" type="line"/>
      <point x="1" y="-153" type="line"/>
      <point x="14" y="-93" type="line"/>
      <point x="-89" y="-93" type="line"/>
      <point x="-75" y="-28" type="line"/>
      <point x="-138" y="-28" type="line"/>
    </contour>
  </outline>
</glyph>
<glyph name="leftangleabovecomb" format="2">
  <unicode hex="031A"/>
  <anchor x="245" y="650" name="_topright"/>
  <outline>
    <contour>
      <point x="178" y="689" type="line"/>
      <point x="240" y="689" type="line"/>
      <point x="289" y="916" type="line"/>
      <point x="62" y="916" type="line"/>
      <point x="49" y="856" type="line"/>
      <point x="214" y="856" type="line"/>
    </contour>
  </outline>
</glyph>
